<svg width="203" height="37" viewBox="0 0 203 37" fill="none" xmlns="http://www.w3.org/2000/svg">
<g filter="url(#filter0_d_342_317)">
<path d="M81.5312 23.8594V27.8125C81.0521 28.2292 80.4115 28.5781 79.6094 28.8594C78.8177 29.1406 77.849 29.2812 76.7031 29.2812C75.5677 29.2812 74.5885 29.026 73.7656 28.5156C72.8594 27.9635 72.4062 27.1771 72.4062 26.1562V10.2812C72.4062 9.32292 74.7552 8.84375 79.4531 8.84375H88.625C88.9271 9.39583 89.151 10.0156 89.2969 10.7031C89.4427 11.3802 89.5156 11.9896 89.5156 12.5312C89.5156 14.9167 88.4688 16.1094 86.375 16.1094H80.9688C80.5729 16.1094 80.375 16.276 80.375 16.6094V16.7188C80.375 16.7812 80.3854 16.8229 80.4062 16.8438H87.3125C87.8438 17.75 88.1094 18.7708 88.1094 19.9062C88.1094 21.3229 87.7917 22.4271 87.1562 23.2188H79.5C79.4167 23.3021 79.375 23.3958 79.375 23.5C79.375 23.6667 79.5 23.7656 79.75 23.7969C80.0104 23.8281 80.3021 23.8438 80.625 23.8438C80.9479 23.8438 81.25 23.849 81.5312 23.8594ZM98.1719 14.9375V21.125C98.1719 22.6771 98.5469 23.6875 99.2969 24.1562C99.3073 24.2083 99.3125 24.3073 99.3125 24.4531V24.7344C99.3125 26.2656 98.8958 27.4167 98.0625 28.1875C97.2917 28.9167 96.2604 29.2812 94.9688 29.2812C93.6875 29.2812 92.6302 28.9167 91.7969 28.1875C90.7448 27.2604 90.2188 25.9062 90.2188 24.125V13.9688C90.4062 13.8333 90.6094 13.724 90.8281 13.6406C91.0469 13.5573 91.276 13.4531 91.5156 13.3281C91.0677 13.099 90.6615 12.7031 90.2969 12.1406C89.9323 11.5677 89.75 10.901 89.75 10.1406C89.75 8.82812 90.1823 7.75521 91.0469 6.92188C91.9115 6.08854 92.9688 5.67188 94.2188 5.67188C95.4792 5.67188 96.5312 6.09896 97.375 6.95312C98.2292 7.79688 98.6562 8.85938 98.6562 10.1406C98.6562 11.1719 98.3333 12.0781 97.6875 12.8594C97.0417 13.6302 96.2552 14.1146 95.3281 14.3125C95.3281 14.7083 95.4792 14.9062 95.7812 14.9062C96.3125 14.9062 96.8542 14.6979 97.4062 14.2812C97.8229 14.6042 98.0781 14.8229 98.1719 14.9375ZM107.984 10.1406V21.125C107.984 22.6771 108.359 23.6875 109.109 24.1562C109.12 24.2083 109.125 24.3073 109.125 24.4531V24.7344C109.125 26.224 108.745 27.3542 107.984 28.125C107.234 28.8958 106.167 29.2812 104.781 29.2812C103.396 29.2812 102.297 28.8958 101.484 28.125C100.516 27.2083 100.031 25.8229 100.031 23.9688V7.73438C101.125 7.06771 102.375 6.73438 103.781 6.73438C105.198 6.73438 106.25 7.03646 106.938 7.64062C107.635 8.23438 107.984 9.06771 107.984 10.1406ZM135.125 21.2656C135.125 22.026 135.208 22.6458 135.375 23.125C135.542 23.6042 135.833 23.974 136.25 24.2344C136.26 24.2865 136.266 24.375 136.266 24.5V24.7344C136.266 26.1615 135.849 27.276 135.016 28.0781C134.182 28.8802 133.104 29.2812 131.781 29.2812C130.469 29.2812 129.411 28.9219 128.609 28.2031C127.661 27.3698 127.188 26.0938 127.188 24.375V19.4375C127.188 18.7396 126.958 18.3906 126.5 18.3906C126.323 18.3906 126.182 18.4323 126.078 18.5156L126.359 20.8438V24.375C126.359 25.7917 126.594 26.8646 127.062 27.5938C126.562 28.125 125.938 28.5417 125.188 28.8438C124.448 29.1354 123.693 29.2812 122.922 29.2812C121.672 29.2812 120.703 28.9792 120.016 28.375C119.182 27.6458 118.766 26.4948 118.766 24.9219V19.4375C118.766 18.7396 118.536 18.3906 118.078 18.3906C117.901 18.3906 117.76 18.4323 117.656 18.5156L117.938 20.8438V24.9844C117.938 26.151 118.094 27.0521 118.406 27.6875C117.385 28.7396 115.953 29.2656 114.109 29.2656C113.016 29.2656 112.094 28.9896 111.344 28.4375C110.479 27.8021 110.047 26.9479 110.047 25.875V18.4062C109.432 17.5417 109.125 16.4792 109.125 15.2188C109.125 13.9479 109.432 12.849 110.047 11.9219H113.812C114.552 11.9219 115.182 12.1979 115.703 12.75C115.245 13.1771 115.016 13.5312 115.016 13.8125C115.016 14.1354 115.198 14.2969 115.562 14.2969C116.021 13.5052 116.651 12.875 117.453 12.4062C118.391 11.875 119.49 11.6094 120.75 11.6094C121.708 11.6094 122.547 11.8125 123.266 12.2188C123.995 12.625 124.536 13.0938 124.891 13.625C125.38 12.9583 126.016 12.4583 126.797 12.125C127.589 11.7812 128.411 11.6094 129.266 11.6094C131.151 11.6094 132.615 12.1927 133.656 13.3594C134.677 14.526 135.188 16.125 135.188 18.1562L135.125 21.2656ZM145.75 23.8594V27.8125C145.271 28.2292 144.63 28.5781 143.828 28.8594C143.036 29.1406 142.068 29.2812 140.922 29.2812C139.786 29.2812 138.807 29.026 137.984 28.5156C137.078 27.9635 136.625 27.1771 136.625 26.1562V10.2812C136.625 9.32292 138.974 8.84375 143.672 8.84375H152.844C153.146 9.39583 153.37 10.0156 153.516 10.7031C153.661 11.3802 153.734 11.9896 153.734 12.5312C153.734 14.9167 152.688 16.1094 150.594 16.1094H145.188C144.792 16.1094 144.594 16.276 144.594 16.6094V16.7188C144.594 16.7812 144.604 16.8229 144.625 16.8438H151.531C152.062 17.75 152.328 18.7708 152.328 19.9062C152.328 21.3229 152.01 22.4271 151.375 23.2188H143.719C143.635 23.3021 143.594 23.3958 143.594 23.5C143.594 23.6667 143.719 23.7656 143.969 23.7969C144.229 23.8281 144.521 23.8438 144.844 23.8438C145.167 23.8438 145.469 23.849 145.75 23.8594ZM158.141 29.0156C156.984 29.0156 156.089 28.7083 155.453 28.0938C154.828 27.4792 154.516 26.5521 154.516 25.3125V10.0312C155.068 9.5625 155.74 9.20312 156.531 8.95312C157.333 8.69271 158.161 8.5625 159.016 8.5625C160.276 8.5625 161.344 8.875 162.219 9.5C163.167 10.2083 163.641 11.1875 163.641 12.4375V20.9844C163.057 21.0365 162.484 21.2031 161.922 21.4844C161.359 21.7552 161.078 22.0365 161.078 22.3281C161.078 22.5052 161.177 22.6562 161.375 22.7812C162.406 21.9167 163.938 21.4844 165.969 21.4844H169.672C170.359 22.6927 170.703 23.9271 170.703 25.1875C170.703 25.8125 170.594 26.5052 170.375 27.2656C170.156 28.026 169.865 28.6094 169.5 29.0156H158.141ZM180.484 11.6719V27.8125C180.005 28.2292 179.365 28.5781 178.562 28.8594C177.76 29.1406 176.786 29.2812 175.641 29.2812C174.495 29.2812 173.521 29.026 172.719 28.5156C171.812 27.9635 171.359 27.1823 171.359 26.1719V10.0312C171.839 9.61458 172.479 9.26562 173.281 8.98438C174.083 8.70312 175.052 8.5625 176.188 8.5625C177.323 8.5625 178.307 8.8125 179.141 9.3125C180.036 9.88542 180.484 10.6719 180.484 11.6719ZM191.172 25.3281L189.359 28.8594C188.578 29.151 187.729 29.2969 186.812 29.2969C185.198 29.2969 183.875 28.8385 182.844 27.9219C181.812 27.0052 181.297 25.7708 181.297 24.2188C181.297 22.8438 181.76 21.6198 182.688 20.5469C183.615 19.474 184.927 18.5729 186.625 17.8438C186.5 17.5 186.286 17.3281 185.984 17.3281C185.682 17.3281 185.13 17.6042 184.328 18.1562C183.547 17.75 182.859 17.0781 182.266 16.1406C181.682 15.2031 181.391 14.1198 181.391 12.8906C181.391 11.6615 181.844 10.6094 182.75 9.73438C183.656 8.85938 184.906 8.42188 186.5 8.42188C187.875 8.42188 189.005 8.67708 189.891 9.1875L191.547 12.4844L192.891 9.10938C193.776 8.71354 194.766 8.51562 195.859 8.51562C197.411 8.51562 198.672 8.94271 199.641 9.79688C200.609 10.6719 201.094 11.8958 201.094 13.4688C201.094 14.7708 200.625 15.9948 199.688 17.1406C198.76 18.276 197.568 19.1771 196.109 19.8438C196.224 20.1458 196.427 20.2969 196.719 20.2969C197.021 20.2969 197.505 20.0677 198.172 19.6094L201.391 23.6406C201.391 25.3177 200.974 26.6562 200.141 27.6562C199.224 28.7604 197.958 29.3125 196.344 29.3125C193.885 29.3125 192.161 27.9844 191.172 25.3281Z" fill="url(#paint0_linear_342_317)"/>
</g>
<path fill-rule="evenodd" clip-rule="evenodd" d="M4.24476 24.9312L6.18377 24.8652L7.50894 26.7412L10.6555 26.6106L9.33035 24.7347L10.644 24.6745L11.9664 26.549L15.1115 26.4156L13.7347 24.5383L15.047 24.4766L16.4238 26.3597L19.5173 26.222L18.1964 24.2944L19.5058 24.2844L20.8281 26.1603L23.9747 26.0284L22.6553 24.1023L25.1177 24.022L25.614 34.9834C25.667 35.666 25.102 36.2512 24.4179 36.3042C14.7142 36.7373 5.55847 32.6069 1.72348 27.203C-5.08168 17.4463 9.46946 1.69759 24.3189 10.1148C28.4321 12.4568 32.4622 15.9447 36.0892 19.1917C67.0329 46.7278 69.5399 19.2677 40.809 18.9679C39.709 18.9909 38.8342 18.0888 38.8657 16.9945L38.9489 3.15184C38.9633 0.173062 47.3431 0.095622 49.4829 0.013874C67.5134 -0.680267 64.8888 24.881 62.2241 29.8045C59.8033 34.2777 55.0117 36.8492 48.5149 34.9561C33.5148 30.6564 27.4368 11.0785 18.1247 9.76052C9.01626 8.50992 -0.249942 19.2691 5.68324 23.1571L8.63907 22.07L9.24716 19.5014L10.4863 19.0196L9.8739 21.6398L12.8283 20.5513L13.4378 17.9826L14.6253 17.4979L14.0617 20.121L17.019 19.0325L17.5754 16.461L18.8131 15.9762L18.2538 18.6008L21.1551 17.5108L21.7646 14.9422C22.3483 14.8275 22.9536 15.1344 23.1716 15.7253L23.8614 17.7102L4.24476 24.9312ZM42.269 15.5216C42.4727 15.589 42.7323 15.6091 42.9933 15.6277C43.3102 15.5976 43.5211 15.5618 43.785 15.5302C44.1449 15.6091 44.5451 15.8486 44.8419 16.0781C44.8893 16.1326 44.9366 16.1914 44.9854 16.2459C45.1417 16.2573 45.2937 16.3204 45.5045 16.2846C45.6092 16.2918 45.7139 16.3004 45.8717 16.2602C45.9291 16.21 45.9864 16.1627 46.0409 16.1139C46.3234 15.8213 46.7049 15.6406 47.0793 15.5116C47.3374 15.5833 47.5927 15.655 47.8508 15.6736C48.1147 15.6406 48.3786 15.6077 48.5937 15.5202C49.0011 15.655 49.3539 15.8386 49.6995 16.1254C49.7942 16.2373 49.8931 16.3491 49.9878 16.4595C50.091 16.4667 50.1957 16.4753 50.3004 16.4825C50.4022 16.4897 50.4582 16.4423 50.5643 16.4495C50.6245 16.3506 50.735 16.253 50.8468 16.1569C51.181 15.8687 51.5611 15.688 51.9368 15.5589C52.1935 15.6306 52.4474 15.7009 52.7127 15.6693C52.9723 15.688 53.2376 15.655 53.4527 15.5661C53.8615 15.7009 54.2143 15.8844 54.5054 16.1684C54.5527 16.2229 54.6044 16.2287 54.6546 16.2832C54.808 16.3477 54.9615 16.3577 55.1694 16.3735C55.2741 16.3807 55.4348 16.3419 55.5395 16.3491C55.5925 16.3004 55.6542 16.2 55.7101 16.1512C56.04 15.9146 56.3684 15.731 56.7972 15.6048C57.0009 15.6722 57.2605 15.6923 57.5201 15.7109C57.7782 15.731 58.0435 15.6966 58.3132 15.6134C58.6688 15.7439 59.0216 15.9275 59.3644 16.2129L59.4634 16.2731L60.7369 11.0886L57.4354 2.74454L50.3822 2.69147L43.3289 2.63841L39.9457 10.9064L41.2379 16.0178C41.5175 15.7798 41.8976 15.599 42.269 15.5216ZM45.4701 13.9297C44.9007 13.8881 44.3945 14.3743 44.3974 14.9996C44.3558 15.5718 44.8419 16.0781 45.4687 16.0723C46.0983 16.0666 46.6031 15.5818 46.5931 15.0053C46.5888 14.3786 46.0968 13.9254 45.4701 13.9297ZM50.3291 13.977C49.7009 13.9827 49.1947 14.4689 49.1488 15.0928C49.1545 15.7195 49.6923 16.2301 50.3205 16.2229C50.9487 16.2186 51.4535 15.7324 51.4478 15.1057C51.4936 14.4818 50.9515 14.0229 50.3291 13.977ZM55.1364 13.9684C54.5642 13.977 54.0551 14.4632 54.068 15.0383C54.0221 15.6636 54.5613 16.1211 55.1364 16.1096C55.7617 16.1555 56.2666 15.6722 56.2608 15.044C56.2537 14.4689 55.7661 13.9612 55.1364 13.9684ZM57.5301 12.7336C56.7987 12.7321 56.1289 13.3087 56.1217 14.0932C56.1203 14.8246 56.7542 15.4456 57.5373 15.4513C58.2687 15.4542 58.8897 14.8217 58.8911 14.0903C58.8954 13.3589 58.3146 12.7407 57.5301 12.7336ZM52.7256 12.6905C51.9397 12.6848 51.3187 13.3187 51.3187 14.0501C51.3158 14.783 51.8981 15.3997 52.6797 15.4054C53.4642 15.4112 54.0881 14.7773 54.0866 14.0458C54.0895 13.3158 53.4556 12.6934 52.7256 12.6905ZM47.8652 12.6447C47.0836 12.6389 46.4597 13.2728 46.4597 14.0042C46.4568 14.7357 47.0893 15.3581 47.8236 15.3581C48.6052 15.3653 49.2248 14.7844 49.2305 13.9999C49.2334 13.2685 48.6511 12.6504 47.8652 12.6447ZM43.0019 12.6504C42.2719 12.6489 41.6523 13.2298 41.6523 13.9612C41.6495 14.6927 42.2303 15.3108 43.0162 15.3165C43.7477 15.3179 44.416 14.7414 44.4203 14.0085C44.4246 13.2255 43.7878 12.6576 43.0019 12.6504ZM43.6114 4.43687L43.5756 12.0122L56.846 12.1068L56.8847 4.53152L43.6114 4.43687ZM8.72656 30.0727L8.73086 30.7009L22.6323 30.0598L22.5764 29.4259L8.72656 30.0727ZM14.317 33.6223L14.37 34.3079L22.8145 33.9407L22.76 33.258L14.317 33.6223ZM10.6785 31.9429L10.733 32.6256L22.694 32.049L22.6897 31.4209L10.6785 31.9429Z" fill="url(#paint1_linear_342_317)"/>
<defs>
<filter id="filter0_d_342_317" x="69.8062" y="5.07187" width="132.184" height="26.8406" filterUnits="userSpaceOnUse" color-interpolation-filters="sRGB">
<feFlood flood-opacity="0" result="BackgroundImageFix"/>
<feColorMatrix in="SourceAlpha" type="matrix" values="0 0 0 0 0 0 0 0 0 0 0 0 0 0 0 0 0 0 127 0" result="hardAlpha"/>
<feOffset dx="-1" dy="1"/>
<feGaussianBlur stdDeviation="0.8"/>
<feComposite in2="hardAlpha" operator="out"/>
<feColorMatrix type="matrix" values="0 0 0 0 0.123167 0 0 0 0 0.125201 0 0 0 0 0.174007 0 0 0 0.25 0"/>
<feBlend mode="normal" in2="BackgroundImageFix" result="effect1_dropShadow_342_317"/>
<feBlend mode="normal" in="SourceGraphic" in2="effect1_dropShadow_342_317" result="shape"/>
</filter>
<linearGradient id="paint0_linear_342_317" x1="196.709" y1="30" x2="132.693" y2="-19.3588" gradientUnits="userSpaceOnUse">
<stop stop-color="#20388C"/>
<stop offset="0.998353" stop-color="#871FA1"/>
</linearGradient>
<linearGradient id="paint1_linear_342_317" x1="-2.97339" y1="-0.247198" x2="63.7157" y2="37.0413" gradientUnits="userSpaceOnUse">
<stop stop-color="#434FC3"/>
<stop offset="1" stop-color="#A548BC"/>
</linearGradient>
</defs>
</svg>
