<svg width="142" height="26" viewBox="0 0 142 26" fill="none" xmlns="http://www.w3.org/2000/svg">
<g filter="url(#filter0_d_342_317)">
<path d="M58.209 16.4658V19.1836C57.8796 19.4701 57.4391 19.71 56.8877 19.9033C56.3434 20.0967 55.6774 20.1934 54.8896 20.1934C54.109 20.1934 53.4359 20.0179 52.8701 19.667C52.2471 19.2874 51.9355 18.7467 51.9355 18.0449V7.13086C51.9355 6.47201 53.5505 6.14258 56.7803 6.14258H63.0859C63.2936 6.52214 63.4476 6.94824 63.5479 7.4209C63.6481 7.88639 63.6982 8.30534 63.6982 8.67773C63.6982 10.3177 62.9785 11.1377 61.5391 11.1377H57.8223C57.5501 11.1377 57.4141 11.2523 57.4141 11.4814V11.5566C57.4141 11.5996 57.4212 11.6283 57.4355 11.6426H62.1836C62.5488 12.2656 62.7314 12.9674 62.7314 13.748C62.7314 14.722 62.513 15.4811 62.0762 16.0254H56.8125C56.7552 16.0827 56.7266 16.1471 56.7266 16.2188C56.7266 16.3333 56.8125 16.4014 56.9844 16.4229C57.1634 16.4443 57.3639 16.4551 57.5859 16.4551C57.8079 16.4551 58.0156 16.4587 58.209 16.4658ZM69.6494 10.332V14.5859C69.6494 15.653 69.9072 16.3477 70.4229 16.6699C70.43 16.7057 70.4336 16.7738 70.4336 16.874V17.0674C70.4336 18.1201 70.1471 18.9115 69.5742 19.4414C69.0443 19.9427 68.3353 20.1934 67.4473 20.1934C66.5664 20.1934 65.8395 19.9427 65.2666 19.4414C64.5433 18.804 64.1816 17.873 64.1816 16.6484V9.66602C64.3105 9.57292 64.4502 9.49772 64.6006 9.44043C64.751 9.38314 64.9085 9.31152 65.0732 9.22559C64.7653 9.06803 64.486 8.7959 64.2354 8.40918C63.9847 8.0153 63.8594 7.55697 63.8594 7.03418C63.8594 6.13184 64.1566 5.39421 64.751 4.82129C65.3454 4.24837 66.0723 3.96191 66.9316 3.96191C67.7982 3.96191 68.5215 4.25553 69.1016 4.84277C69.6888 5.42285 69.9824 6.15332 69.9824 7.03418C69.9824 7.74316 69.7604 8.36621 69.3164 8.90332C68.8724 9.43327 68.3317 9.76628 67.6943 9.90234C67.6943 10.1745 67.7982 10.3105 68.0059 10.3105C68.3711 10.3105 68.7435 10.1673 69.123 9.88086C69.4095 10.1029 69.585 10.2533 69.6494 10.332ZM76.3955 7.03418V14.5859C76.3955 15.653 76.6533 16.3477 77.1689 16.6699C77.1761 16.7057 77.1797 16.7738 77.1797 16.874V17.0674C77.1797 18.0915 76.9183 18.8685 76.3955 19.3984C75.8799 19.9284 75.1458 20.1934 74.1934 20.1934C73.2409 20.1934 72.4854 19.9284 71.9268 19.3984C71.2607 18.7682 70.9277 17.8158 70.9277 16.541V5.37988C71.6797 4.92155 72.5391 4.69238 73.5059 4.69238C74.4798 4.69238 75.2031 4.90007 75.6758 5.31543C76.1556 5.72363 76.3955 6.29655 76.3955 7.03418ZM95.0547 14.6826C95.0547 15.2054 95.112 15.6315 95.2266 15.9609C95.3411 16.2904 95.5417 16.5446 95.8281 16.7236C95.8353 16.7594 95.8389 16.8203 95.8389 16.9062V17.0674C95.8389 18.0485 95.5524 18.8148 94.9795 19.3662C94.4066 19.9176 93.6654 20.1934 92.7559 20.1934C91.8535 20.1934 91.1266 19.9463 90.5752 19.4521C89.9235 18.8792 89.5977 18.002 89.5977 16.8203V13.4258C89.5977 12.946 89.4401 12.7061 89.125 12.7061C89.0033 12.7061 88.9066 12.7347 88.835 12.792L89.0283 14.3926V16.8203C89.0283 17.7943 89.1895 18.5319 89.5117 19.0332C89.168 19.3984 88.7383 19.6849 88.2227 19.8926C87.7142 20.0931 87.195 20.1934 86.665 20.1934C85.8057 20.1934 85.1396 19.9857 84.667 19.5703C84.0941 19.069 83.8076 18.2777 83.8076 17.1963V13.4258C83.8076 12.946 83.6501 12.7061 83.335 12.7061C83.2132 12.7061 83.1165 12.7347 83.0449 12.792L83.2383 14.3926V17.2393C83.2383 18.0413 83.3457 18.6608 83.5605 19.0977C82.8587 19.821 81.874 20.1826 80.6064 20.1826C79.8545 20.1826 79.2207 19.9928 78.7051 19.6133C78.1107 19.1764 77.8135 18.5892 77.8135 17.8516V12.7168C77.391 12.1224 77.1797 11.3919 77.1797 10.5254C77.1797 9.65169 77.391 8.89616 77.8135 8.25879H80.4023C80.9108 8.25879 81.3441 8.44857 81.7021 8.82812C81.387 9.12174 81.2295 9.36523 81.2295 9.55859C81.2295 9.7806 81.3548 9.8916 81.6055 9.8916C81.9206 9.34733 82.3538 8.91406 82.9053 8.5918C83.5498 8.22656 84.3053 8.04395 85.1719 8.04395C85.8307 8.04395 86.4072 8.18359 86.9014 8.46289C87.4027 8.74219 87.7751 9.06445 88.0186 9.42969C88.3551 8.97135 88.792 8.6276 89.3291 8.39844C89.8734 8.16211 90.4391 8.04395 91.0264 8.04395C92.3226 8.04395 93.3288 8.44499 94.0449 9.24707C94.7467 10.0492 95.0977 11.1484 95.0977 12.5449L95.0547 14.6826ZM102.359 16.4658V19.1836C102.03 19.4701 101.59 19.71 101.038 19.9033C100.494 20.0967 99.8278 20.1934 99.04 20.1934C98.2594 20.1934 97.5863 20.0179 97.0205 19.667C96.3975 19.2874 96.0859 18.7467 96.0859 18.0449V7.13086C96.0859 6.47201 97.7008 6.14258 100.931 6.14258H107.236C107.444 6.52214 107.598 6.94824 107.698 7.4209C107.799 7.88639 107.849 8.30534 107.849 8.67773C107.849 10.3177 107.129 11.1377 105.689 11.1377H101.973C101.701 11.1377 101.564 11.2523 101.564 11.4814V11.5566C101.564 11.5996 101.572 11.6283 101.586 11.6426H106.334C106.699 12.2656 106.882 12.9674 106.882 13.748C106.882 14.722 106.663 15.4811 106.227 16.0254H100.963C100.906 16.0827 100.877 16.1471 100.877 16.2188C100.877 16.3333 100.963 16.4014 101.135 16.4229C101.314 16.4443 101.514 16.4551 101.736 16.4551C101.958 16.4551 102.166 16.4587 102.359 16.4658ZM110.878 20.0107C110.083 20.0107 109.467 19.7995 109.03 19.377C108.601 18.9544 108.386 18.3171 108.386 17.4648V6.95898C108.765 6.63672 109.227 6.38965 109.771 6.21777C110.323 6.03874 110.892 5.94922 111.479 5.94922C112.346 5.94922 113.08 6.16406 113.682 6.59375C114.333 7.08073 114.659 7.75391 114.659 8.61328V14.4893C114.258 14.5251 113.864 14.6396 113.478 14.833C113.091 15.0192 112.897 15.2126 112.897 15.4131C112.897 15.5348 112.965 15.6387 113.102 15.7246C113.811 15.1302 114.863 14.833 116.26 14.833H118.806C119.278 15.6637 119.515 16.5124 119.515 17.3789C119.515 17.8086 119.439 18.2848 119.289 18.8076C119.139 19.3304 118.938 19.7314 118.688 20.0107H110.878ZM126.239 8.08691V19.1836C125.91 19.4701 125.469 19.71 124.918 19.9033C124.367 20.0967 123.697 20.1934 122.909 20.1934C122.121 20.1934 121.452 20.0179 120.9 19.667C120.277 19.2874 119.966 18.7503 119.966 18.0557V6.95898C120.295 6.67253 120.736 6.43262 121.287 6.23926C121.839 6.0459 122.505 5.94922 123.285 5.94922C124.066 5.94922 124.743 6.12109 125.315 6.46484C125.931 6.85872 126.239 7.39941 126.239 8.08691ZM133.587 17.4756L132.341 19.9033C131.804 20.1038 131.22 20.2041 130.59 20.2041C129.48 20.2041 128.57 19.889 127.861 19.2588C127.152 18.6286 126.798 17.7799 126.798 16.7129C126.798 15.7676 127.117 14.9261 127.754 14.1885C128.391 13.4508 129.294 12.8314 130.461 12.3301C130.375 12.0938 130.228 11.9756 130.021 11.9756C129.813 11.9756 129.433 12.1654 128.882 12.5449C128.345 12.2656 127.872 11.8037 127.464 11.1592C127.063 10.5146 126.862 9.76986 126.862 8.9248C126.862 8.07975 127.174 7.35645 127.797 6.75488C128.42 6.15332 129.279 5.85254 130.375 5.85254C131.32 5.85254 132.097 6.02799 132.706 6.37891L133.845 8.64551L134.769 6.3252C135.377 6.05306 136.058 5.91699 136.81 5.91699C137.877 5.91699 138.743 6.21061 139.409 6.79785C140.075 7.39941 140.408 8.24089 140.408 9.32227C140.408 10.2174 140.086 11.0589 139.441 11.8467C138.804 12.6273 137.984 13.2467 136.981 13.7051C137.06 13.9128 137.2 14.0166 137.4 14.0166C137.608 14.0166 137.941 13.859 138.399 13.5439L140.612 16.3154C140.612 17.4684 140.326 18.3887 139.753 19.0762C139.123 19.8353 138.253 20.2148 137.143 20.2148C135.452 20.2148 134.267 19.3018 133.587 17.4756Z" fill="url(#paint0_linear_342_317)"/>
</g>
<path fill-rule="evenodd" clip-rule="evenodd" d="M2.95972 17.3837L4.31172 17.3377L5.23572 18.6457L7.42972 18.5547L6.50572 17.2467L7.42172 17.2047L8.34372 18.5117L10.5367 18.4187L9.57672 17.1097L10.4917 17.0667L11.4517 18.3797L13.6087 18.2837L12.6877 16.9397L13.6007 16.9327L14.5227 18.2407L16.7167 18.1487L15.7967 16.8057L17.5137 16.7497L17.8597 24.3927C17.8967 24.8687 17.5027 25.2767 17.0257 25.3137C10.2597 25.6157 3.87572 22.7357 1.20172 18.9677C-3.54328 12.1647 6.60272 1.18367 16.9567 7.05267C19.8247 8.68567 22.6347 11.1177 25.1637 13.3817C46.7397 32.5817 48.4877 13.4347 28.4547 13.2257C27.6877 13.2417 27.0777 12.6127 27.0997 11.8497L27.1577 2.19767C27.1677 0.12067 33.0107 0.0666739 34.5027 0.00967388C47.0747 -0.474326 45.2447 17.3487 43.3867 20.7817C41.6987 23.9007 38.3577 25.6937 33.8277 24.3737C23.3687 21.3757 19.1307 7.72467 12.6377 6.80567C6.28672 5.93367 -0.174276 13.4357 3.96272 16.1467L6.02372 15.3887L6.44772 13.5977L7.31172 13.2617L6.88472 15.0887L8.94472 14.3297L9.36972 12.5387L10.1977 12.2007L9.80472 14.0297L11.8667 13.2707L12.2547 11.4777L13.1177 11.1397L12.7277 12.9697L14.7507 12.2097L15.1757 10.4187C15.5827 10.3387 16.0047 10.5527 16.1567 10.9647L16.6377 12.3487L2.95972 17.3837ZM29.4727 10.8227C29.6147 10.8697 29.7957 10.8837 29.9777 10.8967C30.1987 10.8757 30.3457 10.8507 30.5297 10.8287C30.7807 10.8837 31.0597 11.0507 31.2667 11.2107C31.2997 11.2487 31.3327 11.2897 31.3667 11.3277C31.4757 11.3357 31.5817 11.3797 31.7287 11.3547C31.8017 11.3597 31.8747 11.3657 31.9847 11.3377C32.0247 11.3027 32.0647 11.2697 32.1027 11.2357C32.2997 11.0317 32.5657 10.9057 32.8267 10.8157C33.0067 10.8657 33.1847 10.9157 33.3647 10.9287C33.5487 10.9057 33.7327 10.8827 33.8827 10.8217C34.1667 10.9157 34.4127 11.0437 34.6537 11.2437C34.7197 11.3217 34.7887 11.3997 34.8547 11.4767C34.9267 11.4817 34.9997 11.4877 35.0727 11.4927C35.1437 11.4977 35.1827 11.4647 35.2567 11.4697C35.2987 11.4007 35.3757 11.3327 35.4537 11.2657C35.6867 11.0647 35.9517 10.9387 36.2137 10.8487C36.3927 10.8987 36.5697 10.9477 36.7547 10.9257C36.9357 10.9387 37.1207 10.9157 37.2707 10.8537C37.5557 10.9477 37.8017 11.0757 38.0047 11.2737C38.0377 11.3117 38.0737 11.3157 38.1087 11.3537C38.2157 11.3987 38.3227 11.4057 38.4677 11.4167C38.5407 11.4217 38.6527 11.3947 38.7257 11.3997C38.7627 11.3657 38.8057 11.2957 38.8447 11.2617C39.0747 11.0967 39.3037 10.9687 39.6027 10.8807C39.7447 10.9277 39.9257 10.9417 40.1067 10.9547C40.2867 10.9687 40.4717 10.9447 40.6597 10.8867C40.9077 10.9777 41.1537 11.1057 41.3927 11.3047L41.4617 11.3467L42.3497 7.73167L40.0477 1.91367L35.1297 1.87667L30.2117 1.83967L27.8527 7.60467L28.7537 11.1687C28.9487 11.0027 29.2137 10.8767 29.4727 10.8227ZM31.7047 9.71267C31.3077 9.68367 30.9547 10.0227 30.9567 10.4587C30.9277 10.8577 31.2667 11.2107 31.7037 11.2067C32.1427 11.2027 32.4947 10.8647 32.4877 10.4627C32.4847 10.0257 32.1417 9.70967 31.7047 9.71267ZM35.0927 9.74567C34.6547 9.74967 34.3017 10.0887 34.2697 10.5237C34.2737 10.9607 34.6487 11.3167 35.0867 11.3117C35.5247 11.3087 35.8767 10.9697 35.8727 10.5327C35.9047 10.0977 35.5267 9.77767 35.0927 9.74567ZM38.4447 9.73967C38.0457 9.74567 37.6907 10.0847 37.6997 10.4857C37.6677 10.9217 38.0437 11.2407 38.4447 11.2327C38.8807 11.2647 39.2327 10.9277 39.2287 10.4897C39.2237 10.0887 38.8837 9.73467 38.4447 9.73967ZM40.1137 8.87867C39.6037 8.87767 39.1367 9.27967 39.1317 9.82667C39.1307 10.3367 39.5727 10.7697 40.1187 10.7737C40.6287 10.7757 41.0617 10.3347 41.0627 9.82467C41.0657 9.31467 40.6607 8.88367 40.1137 8.87867ZM36.7637 8.84867C36.2157 8.84467 35.7827 9.28667 35.7827 9.79667C35.7807 10.3077 36.1867 10.7377 36.7317 10.7417C37.2787 10.7457 37.7137 10.3037 37.7127 9.79367C37.7147 9.28467 37.2727 8.85067 36.7637 8.84867ZM33.3747 8.81667C32.8297 8.81267 32.3947 9.25467 32.3947 9.76467C32.3927 10.2747 32.8337 10.7087 33.3457 10.7087C33.8907 10.7137 34.3227 10.3087 34.3267 9.76167C34.3287 9.25167 33.9227 8.82067 33.3747 8.81667ZM29.9837 8.82067C29.4747 8.81967 29.0427 9.22467 29.0427 9.73467C29.0407 10.2447 29.4457 10.6757 29.9937 10.6797C30.5037 10.6807 30.9697 10.2787 30.9727 9.76767C30.9757 9.22167 30.5317 8.82567 29.9837 8.82067ZM30.4087 3.09367L30.3837 8.37567L39.6367 8.44167L39.6637 3.15967L30.4087 3.09367ZM6.08472 20.9687L6.08772 21.4067L15.7807 20.9597L15.7417 20.5177L6.08472 20.9687ZM9.98272 23.4437L10.0197 23.9217L15.9077 23.6657L15.8697 23.1897L9.98272 23.4437ZM7.44572 22.2727L7.48372 22.7487L15.8237 22.3467L15.8207 21.9087L7.44572 22.2727Z" fill="url(#paint1_linear_342_317)"/>
<defs>
<filter id="filter0_d_342_317" x="49.3355" y="3.36191" width="91.8768" height="19.4529" filterUnits="userSpaceOnUse" color-interpolation-filters="sRGB">
<feFlood flood-opacity="0" result="BackgroundImageFix"/>
<feColorMatrix in="SourceAlpha" type="matrix" values="0 0 0 0 0 0 0 0 0 0 0 0 0 0 0 0 0 0 127 0" result="hardAlpha"/>
<feOffset dx="-1" dy="1"/>
<feGaussianBlur stdDeviation="0.8"/>
<feComposite in2="hardAlpha" operator="out"/>
<feColorMatrix type="matrix" values="0 0 0 0 0.123167 0 0 0 0 0.125201 0 0 0 0 0.174007 0 0 0 0.25 0"/>
<feBlend mode="normal" in2="BackgroundImageFix" result="effect1_dropShadow_342_317"/>
<feBlend mode="normal" in="SourceGraphic" in2="effect1_dropShadow_342_317" result="shape"/>
</filter>
<linearGradient id="paint0_linear_342_317" x1="137.649" y1="23" x2="84.2038" y2="-7.28615" gradientUnits="userSpaceOnUse">
<stop stop-color="#20388C"/>
<stop offset="0.998353" stop-color="#871FA1"/>
</linearGradient>
<linearGradient id="paint1_linear_342_317" x1="-2.07324" y1="-0.172363" x2="44.4268" y2="25.8276" gradientUnits="userSpaceOnUse">
<stop stop-color="#434FC3"/>
<stop offset="1" stop-color="#A548BC"/>
</linearGradient>
</defs>
</svg>
