<svg width="55" height="55" viewBox="0 0 55 55" fill="none" xmlns="http://www.w3.org/2000/svg">
<path d="M42.9688 47.2656H12.0312C9.66195 47.2656 7.73438 45.338 7.73438 42.9688V12.0312C7.73438 9.66195 9.66195 7.73438 12.0312 7.73438H42.9688C45.338 7.73438 47.2656 9.66195 47.2656 12.0312V42.9688C47.2656 45.338 45.338 47.2656 42.9688 47.2656ZM12.0312 9.45312C10.6098 9.45312 9.45312 10.6098 9.45312 12.0312V42.9688C9.45312 44.3902 10.6098 45.5469 12.0312 45.5469H42.9688C44.3902 45.5469 45.5469 44.3902 45.5469 42.9688V12.0312C45.5469 10.6098 44.3902 9.45312 42.9688 9.45312H12.0312Z" fill="url(#paint0_linear_9_64)"/>
<path d="M40.3906 39.1402L33.183 31.9318C34.4635 30.3738 35.2344 28.3809 35.2344 26.2109C35.2344 21.2352 31.1867 17.1875 26.2109 17.1875C21.2352 17.1875 17.1875 21.2352 17.1875 26.2109C17.1875 31.1867 21.2352 35.2344 26.2109 35.2344C28.3809 35.2344 30.3746 34.4635 31.9327 33.1822L39.1402 40.3906L40.3906 39.1402ZM26.2109 33.5156C22.183 33.5156 18.9062 30.2388 18.9062 26.2109C18.9062 22.183 22.183 18.9062 26.2109 18.9062C30.2388 18.9062 33.5156 22.183 33.5156 26.2109C33.5156 30.2388 30.2388 33.5156 26.2109 33.5156Z" fill="url(#paint1_linear_9_64)"/>
<path d="M26.2109 20.625C24.7295 20.625 23.3087 21.2135 22.2611 22.2611C21.2135 23.3087 20.625 24.7295 20.625 26.2109C20.625 27.6924 21.2135 29.1132 22.2611 30.1608C23.3087 31.2084 24.7295 31.7969 26.2109 31.7969C27.6924 31.7969 29.1132 31.2084 30.1608 30.1608C31.2084 29.1132 31.7969 27.6924 31.7969 26.2109C31.7969 24.7295 31.2084 23.3087 30.1608 22.2611C29.1132 21.2135 27.6924 20.625 26.2109 20.625Z" fill="url(#paint2_linear_9_64)"/>
<defs>
<linearGradient id="paint0_linear_9_64" x1="27.5" y1="7.8057" x2="27.5" y2="46.9872" gradientUnits="userSpaceOnUse">
<stop stop-color="#1A6DFF"/>
<stop offset="1" stop-color="#C822FF"/>
</linearGradient>
<linearGradient id="paint1_linear_9_64" x1="28.7891" y1="8.97016" x2="28.7891" y2="47.9119" gradientUnits="userSpaceOnUse">
<stop stop-color="#1A6DFF"/>
<stop offset="1" stop-color="#C822FF"/>
</linearGradient>
<linearGradient id="paint2_linear_9_64" x1="26.2109" y1="20.625" x2="26.2109" y2="31.7969" gradientUnits="userSpaceOnUse">
<stop stop-color="#6DC7FF"/>
<stop offset="1" stop-color="#E6ABFF"/>
</linearGradient>
</defs>
</svg>
