<svg width="397" height="52" viewBox="0 0 397 52" fill="none" xmlns="http://www.w3.org/2000/svg">
<rect width="37" height="52" rx="5" fill="#F40705"/>
<mask id="path-2-outside-1_459_351" maskUnits="userSpaceOnUse" x="5" y="19" width="27" height="24" fill="black">
<rect fill="white" x="5" y="19" width="27" height="24"/>
<path d="M30.94 41.6H28.5V24.52L19.74 41.6H17.26L8.5 24.52V41.6H6.06V20.96H9.38L18.5 38.72L27.62 20.96H30.94V41.6Z"/>
</mask>
<path d="M30.94 41.6H28.5V24.52L19.74 41.6H17.26L8.5 24.52V41.6H6.06V20.96H9.38L18.5 38.72L27.62 20.96H30.94V41.6Z" fill="white"/>
<path d="M30.94 41.6V42.6H31.94V41.6H30.94ZM28.5 41.6H27.5V42.6H28.5V41.6ZM28.5 24.52H29.5L27.6102 24.0636L28.5 24.52ZM19.74 41.6V42.6H20.351L20.6298 42.0564L19.74 41.6ZM17.26 41.6L16.3702 42.0564L16.649 42.6H17.26V41.6ZM8.5 24.52L9.3898 24.0636L7.5 24.52H8.5ZM8.5 41.6V42.6H9.5V41.6H8.5ZM6.06 41.6H5.06V42.6H6.06V41.6ZM6.06 20.96V19.96H5.06V20.96H6.06ZM9.38 20.96L10.2696 20.5032L9.99063 19.96H9.38V20.96ZM18.5 38.72L17.6104 39.1768L18.5 40.9091L19.3896 39.1768L18.5 38.72ZM27.62 20.96V19.96H27.0094L26.7304 20.5032L27.62 20.96ZM30.94 20.96H31.94V19.96H30.94V20.96ZM30.94 40.6H28.5V42.6H30.94V40.6ZM29.5 41.6V24.52H27.5V41.6H29.5ZM27.6102 24.0636L18.8502 41.1436L20.6298 42.0564L29.3898 24.9764L27.6102 24.0636ZM19.74 40.6H17.26V42.6H19.74V40.6ZM18.1498 41.1436L9.3898 24.0636L7.6102 24.9764L16.3702 42.0564L18.1498 41.1436ZM7.5 24.52V41.6H9.5V24.52H7.5ZM8.5 40.6H6.06V42.6H8.5V40.6ZM7.06 41.6V20.96H5.06V41.6H7.06ZM6.06 21.96H9.38V19.96H6.06V21.96ZM8.49043 21.4168L17.6104 39.1768L19.3896 38.2632L10.2696 20.5032L8.49043 21.4168ZM19.3896 39.1768L28.5096 21.4168L26.7304 20.5032L17.6104 38.2632L19.3896 39.1768ZM27.62 21.96H30.94V19.96H27.62V21.96ZM29.94 20.96V41.6H31.94V20.96H29.94Z" fill="#020202" mask="url(#path-2-outside-1_459_351)"/>
<rect x="40" width="37" height="52" rx="5" fill="#E81204"/>
<mask id="path-5-outside-2_459_351" maskUnits="userSpaceOnUse" x="48" y="19" width="21" height="30" fill="black">
<rect fill="white" x="48" y="19" width="21" height="30"/>
<path d="M67.34 20.96L58.86 44.32C58.4333 45.4933 57.86 46.3867 57.14 47C56.4467 47.64 55.4467 47.96 54.14 47.96C53.66 47.96 53.2733 47.9333 52.98 47.88C52.7133 47.8533 52.46 47.8133 52.22 47.76V45.64C52.8867 45.7733 53.4467 45.84 53.9 45.84C54.2733 45.84 54.5933 45.8 54.86 45.72C55.1533 45.6667 55.4067 45.5333 55.62 45.32C55.86 45.1333 56.0733 44.8667 56.26 44.52C56.4733 44.2 56.6867 43.76 56.9 43.2L57.7 41.16L49.62 20.96H52.22L58.82 38.28L64.86 20.96H67.34Z"/>
</mask>
<path d="M67.34 20.96L58.86 44.32C58.4333 45.4933 57.86 46.3867 57.14 47C56.4467 47.64 55.4467 47.96 54.14 47.96C53.66 47.96 53.2733 47.9333 52.98 47.88C52.7133 47.8533 52.46 47.8133 52.22 47.76V45.64C52.8867 45.7733 53.4467 45.84 53.9 45.84C54.2733 45.84 54.5933 45.8 54.86 45.72C55.1533 45.6667 55.4067 45.5333 55.62 45.32C55.86 45.1333 56.0733 44.8667 56.26 44.52C56.4733 44.2 56.6867 43.76 56.9 43.2L57.7 41.16L49.62 20.96H52.22L58.82 38.28L64.86 20.96H67.34Z" fill="white"/>
<path d="M67.34 20.96L68.28 21.3012L68.7669 19.96H67.34V20.96ZM58.86 44.32L59.7998 44.6617L59.8 44.6612L58.86 44.32ZM57.14 47L56.4915 46.2388L56.4764 46.2517L56.4617 46.2652L57.14 47ZM52.98 47.88L53.1589 46.8961L53.1194 46.889L53.0795 46.885L52.98 47.88ZM52.22 47.76H51.22V48.5622L52.0031 48.7362L52.22 47.76ZM52.22 45.64L52.4161 44.6594L51.22 44.4202V45.64H52.22ZM54.86 45.72L54.6811 44.7361L54.6262 44.7461L54.5727 44.7622L54.86 45.72ZM55.62 45.32L55.0061 44.5306L54.9569 44.5689L54.9129 44.6129L55.62 45.32ZM56.26 44.52L55.428 43.9653L55.4018 44.0045L55.3795 44.0459L56.26 44.52ZM56.9 43.2L55.969 42.8349L55.9655 42.844L56.9 43.2ZM57.7 41.16L58.631 41.5251L58.7756 41.1564L58.6285 40.7886L57.7 41.16ZM49.62 20.96V19.96H48.143L48.6915 21.3314L49.62 20.96ZM52.22 20.96L53.1545 20.6039L52.9091 19.96H52.22V20.96ZM58.82 38.28L57.8855 38.6361L58.8616 41.1976L59.7642 38.6093L58.82 38.28ZM64.86 20.96V19.96H64.1497L63.9158 20.6307L64.86 20.96ZM66.4 20.6188L57.92 43.9788L59.8 44.6612L68.28 21.3012L66.4 20.6188ZM57.9202 43.9783C57.5344 45.0393 57.0442 45.768 56.4915 46.2388L57.7885 47.7612C58.6758 47.0053 59.3323 45.9473 59.7998 44.6617L57.9202 43.9783ZM56.4617 46.2652C56.014 46.6785 55.2927 46.96 54.14 46.96V48.96C55.6006 48.96 56.8793 48.6015 57.8183 47.7348L56.4617 46.2652ZM54.14 46.96C53.6885 46.96 53.3687 46.9343 53.1589 46.8961L52.8011 48.8639C53.178 48.9324 53.6315 48.96 54.14 48.96V46.96ZM53.0795 46.885C52.8488 46.8619 52.6349 46.8278 52.4369 46.7838L52.0031 48.7362C52.2851 48.7989 52.5778 48.8448 52.8805 48.875L53.0795 46.885ZM53.22 47.76V45.64H51.22V47.76H53.22ZM52.0239 46.6206C52.7265 46.7611 53.3569 46.84 53.9 46.84V44.84C53.5364 44.84 53.0468 44.7856 52.4161 44.6594L52.0239 46.6206ZM53.9 46.84C54.3398 46.84 54.7619 46.7935 55.1473 46.6778L54.5727 44.7622C54.4248 44.8065 54.2069 44.84 53.9 44.84V46.84ZM55.0389 46.7039C55.5349 46.6137 55.9718 46.3824 56.3271 46.0271L54.9129 44.6129C54.8416 44.6842 54.7718 44.7196 54.6811 44.7361L55.0389 46.7039ZM56.2339 46.1094C56.611 45.8161 56.9065 45.4286 57.1405 44.9941L55.3795 44.0459C55.2402 44.3047 55.109 44.4506 55.0061 44.5306L56.2339 46.1094ZM57.0921 45.0747C57.3631 44.6681 57.6075 44.1517 57.8345 43.556L55.9655 42.844C55.7658 43.3683 55.5835 43.7319 55.428 43.9653L57.0921 45.0747ZM57.831 43.5651L58.631 41.5251L56.769 40.7949L55.969 42.8349L57.831 43.5651ZM58.6285 40.7886L50.5485 20.5886L48.6915 21.3314L56.7715 41.5314L58.6285 40.7886ZM49.62 21.96H52.22V19.96H49.62V21.96ZM51.2855 21.3161L57.8855 38.6361L59.7545 37.9239L53.1545 20.6039L51.2855 21.3161ZM59.7642 38.6093L65.8042 21.2893L63.9158 20.6307L57.8758 37.9507L59.7642 38.6093ZM64.86 21.96H67.34V19.96H64.86V21.96Z" fill="black" mask="url(#path-5-outside-2_459_351)"/>
<rect x="160" width="37" height="52" rx="5" fill="#F40705"/>
<mask id="path-8-outside-3_459_351" maskUnits="userSpaceOnUse" x="167" y="19" width="23" height="24" fill="black">
<rect fill="white" x="167" y="19" width="23" height="24"/>
<path d="M188.06 23.12H179.7V41.6H177.22V23.12H168.9V20.96H188.06V23.12Z"/>
</mask>
<path d="M188.06 23.12H179.7V41.6H177.22V23.12H168.9V20.96H188.06V23.12Z" fill="white"/>
<path d="M188.06 23.12V24.12H189.06V23.12H188.06ZM179.7 23.12V22.12H178.7V23.12H179.7ZM179.7 41.6V42.6H180.7V41.6H179.7ZM177.22 41.6H176.22V42.6H177.22V41.6ZM177.22 23.12H178.22V22.12H177.22V23.12ZM168.9 23.12H167.9V24.12H168.9V23.12ZM168.9 20.96V19.96H167.9V20.96H168.9ZM188.06 20.96H189.06V19.96H188.06V20.96ZM188.06 22.12H179.7V24.12H188.06V22.12ZM178.7 23.12V41.6H180.7V23.12H178.7ZM179.7 40.6H177.22V42.6H179.7V40.6ZM178.22 41.6V23.12H176.22V41.6H178.22ZM177.22 22.12H168.9V24.12H177.22V22.12ZM169.9 23.12V20.96H167.9V23.12H169.9ZM168.9 21.96H188.06V19.96H168.9V21.96ZM187.06 20.96V23.12H189.06V20.96H187.06Z" fill="black" mask="url(#path-8-outside-3_459_351)"/>
<rect x="200" width="37" height="52" rx="5" fill="#F40705"/>
<mask id="path-11-outside-4_459_351" maskUnits="userSpaceOnUse" x="204" y="12" width="28" height="37" fill="black">
<rect fill="white" x="204" y="12" width="28" height="37"/>
<path d="M216.88 22.92C216.533 22.7867 216.173 22.68 215.8 22.6C215.453 22.52 215.093 22.48 214.72 22.48C213.68 22.48 212.72 22.6933 211.84 23.12C210.987 23.5467 210.253 24.1467 209.64 24.92C209.027 25.6933 208.547 26.6267 208.2 27.72C207.88 28.7867 207.72 29.9733 207.72 31.28C207.72 32.5867 207.88 33.7867 208.2 34.88C208.547 35.9467 209.027 36.8667 209.64 37.64C210.253 38.4133 210.987 39.0133 211.84 39.44C212.72 39.8667 213.68 40.08 214.72 40.08C215.093 40.08 215.453 40.04 215.8 39.96C216.173 39.88 216.533 39.7733 216.88 39.64V22.92ZM228.28 31.28C228.28 29.9733 228.107 28.7867 227.76 27.72C227.44 26.6267 226.973 25.6933 226.36 24.92C225.747 24.1467 225 23.5467 224.12 23.12C223.267 22.6933 222.32 22.48 221.28 22.48C220.64 22.48 219.987 22.6133 219.32 22.88V39.72C219.613 39.8267 219.92 39.92 220.24 40C220.587 40.0533 220.933 40.08 221.28 40.08C222.32 40.08 223.267 39.8667 224.12 39.44C225 39.0133 225.747 38.4133 226.36 37.64C226.973 36.8667 227.44 35.9467 227.76 34.88C228.107 33.7867 228.28 32.5867 228.28 31.28ZM230.72 31.28C230.72 32.88 230.493 34.3467 230.04 35.68C229.613 37.0133 228.987 38.1733 228.16 39.16C227.36 40.12 226.373 40.8667 225.2 41.4C224.027 41.9333 222.72 42.2 221.28 42.2C220.933 42.2 220.587 42.1733 220.24 42.12C219.92 42.0667 219.613 42 219.32 41.92V47.56H216.88V41.88C216.533 41.96 216.173 42.0267 215.8 42.08C215.453 42.16 215.093 42.2 214.72 42.2C213.28 42.2 211.973 41.9333 210.8 41.4C209.627 40.8667 208.627 40.12 207.8 39.16C207 38.1733 206.373 37.0133 205.92 35.68C205.493 34.3467 205.28 32.88 205.28 31.28C205.28 29.68 205.493 28.2133 205.92 26.88C206.373 25.5467 207 24.4 207.8 23.44C208.627 22.4533 209.627 21.6933 210.8 21.16C211.973 20.6267 213.28 20.36 214.72 20.36C215.093 20.36 215.453 20.4 215.8 20.48C216.173 20.5333 216.533 20.6 216.88 20.68V13.04H219.32V20.64C219.613 20.56 219.92 20.4933 220.24 20.44C220.587 20.3867 220.933 20.36 221.28 20.36C222.72 20.36 224.027 20.6267 225.2 21.16C226.373 21.6933 227.36 22.4533 228.16 23.44C228.987 24.4 229.613 25.5467 230.04 26.88C230.493 28.2133 230.72 29.68 230.72 31.28Z"/>
</mask>
<path d="M216.88 22.92C216.533 22.7867 216.173 22.68 215.8 22.6C215.453 22.52 215.093 22.48 214.72 22.48C213.68 22.48 212.72 22.6933 211.84 23.12C210.987 23.5467 210.253 24.1467 209.64 24.92C209.027 25.6933 208.547 26.6267 208.2 27.72C207.88 28.7867 207.72 29.9733 207.72 31.28C207.72 32.5867 207.88 33.7867 208.2 34.88C208.547 35.9467 209.027 36.8667 209.64 37.64C210.253 38.4133 210.987 39.0133 211.84 39.44C212.72 39.8667 213.68 40.08 214.72 40.08C215.093 40.08 215.453 40.04 215.8 39.96C216.173 39.88 216.533 39.7733 216.88 39.64V22.92ZM228.28 31.28C228.28 29.9733 228.107 28.7867 227.76 27.72C227.44 26.6267 226.973 25.6933 226.36 24.92C225.747 24.1467 225 23.5467 224.12 23.12C223.267 22.6933 222.32 22.48 221.28 22.48C220.64 22.48 219.987 22.6133 219.32 22.88V39.72C219.613 39.8267 219.92 39.92 220.24 40C220.587 40.0533 220.933 40.08 221.28 40.08C222.32 40.08 223.267 39.8667 224.12 39.44C225 39.0133 225.747 38.4133 226.36 37.64C226.973 36.8667 227.44 35.9467 227.76 34.88C228.107 33.7867 228.28 32.5867 228.28 31.28ZM230.72 31.28C230.72 32.88 230.493 34.3467 230.04 35.68C229.613 37.0133 228.987 38.1733 228.16 39.16C227.36 40.12 226.373 40.8667 225.2 41.4C224.027 41.9333 222.72 42.2 221.28 42.2C220.933 42.2 220.587 42.1733 220.24 42.12C219.92 42.0667 219.613 42 219.32 41.92V47.56H216.88V41.88C216.533 41.96 216.173 42.0267 215.8 42.08C215.453 42.16 215.093 42.2 214.72 42.2C213.28 42.2 211.973 41.9333 210.8 41.4C209.627 40.8667 208.627 40.12 207.8 39.16C207 38.1733 206.373 37.0133 205.92 35.68C205.493 34.3467 205.28 32.88 205.28 31.28C205.28 29.68 205.493 28.2133 205.92 26.88C206.373 25.5467 207 24.4 207.8 23.44C208.627 22.4533 209.627 21.6933 210.8 21.16C211.973 20.6267 213.28 20.36 214.72 20.36C215.093 20.36 215.453 20.4 215.8 20.48C216.173 20.5333 216.533 20.6 216.88 20.68V13.04H219.32V20.64C219.613 20.56 219.92 20.4933 220.24 20.44C220.587 20.3867 220.933 20.36 221.28 20.36C222.72 20.36 224.027 20.6267 225.2 21.16C226.373 21.6933 227.36 22.4533 228.16 23.44C228.987 24.4 229.613 25.5467 230.04 26.88C230.493 28.2133 230.72 29.68 230.72 31.28Z" fill="white"/>
<path d="M216.88 22.92H217.88V22.2332L217.239 21.9867L216.88 22.92ZM215.8 22.6L215.575 23.5744L215.583 23.5762L215.59 23.5778L215.8 22.6ZM211.84 23.12L211.404 22.2201L211.393 22.2256L211.84 23.12ZM209.64 24.92L210.423 25.5414L210.423 25.5414L209.64 24.92ZM208.2 27.72L207.247 27.4178L207.244 27.4252L207.242 27.4327L208.2 27.72ZM208.2 34.88L207.24 35.1609L207.244 35.1751L207.249 35.1891L208.2 34.88ZM211.84 39.44L211.393 40.3345L211.404 40.3398L211.84 39.44ZM215.8 39.96L215.59 38.9822L215.583 38.9838L215.575 38.9856L215.8 39.96ZM216.88 39.64L217.239 40.5733L217.88 40.3268V39.64H216.88ZM227.76 27.72L226.8 28.0009L226.804 28.0151L226.809 28.0291L227.76 27.72ZM226.36 24.92L225.577 25.5414V25.5414L226.36 24.92ZM224.12 23.12L223.673 24.0145L223.684 24.0198L224.12 23.12ZM219.32 22.88L218.949 21.9515L218.32 22.203V22.88H219.32ZM219.32 39.72H218.32V40.4204L218.978 40.6598L219.32 39.72ZM220.24 40L219.997 40.9701L220.042 40.9813L220.088 40.9884L220.24 40ZM224.12 39.44L223.684 38.5401L223.673 38.5456L224.12 39.44ZM227.76 34.88L226.807 34.5778L226.804 34.5852L226.802 34.5927L227.76 34.88ZM230.04 35.68L229.093 35.3581L229.09 35.3666L229.088 35.3752L230.04 35.68ZM228.16 39.16L227.393 38.5178L227.392 38.5198L228.16 39.16ZM225.2 41.4L224.786 40.4896L225.2 41.4ZM220.24 42.12L220.076 43.1065L220.088 43.1084L220.24 42.12ZM219.32 41.92L219.583 40.9552L218.32 40.6107V41.92H219.32ZM219.32 47.56V48.56H220.32V47.56H219.32ZM216.88 47.56H215.88V48.56H216.88V47.56ZM216.88 41.88H217.88V40.6229L216.655 40.9056L216.88 41.88ZM215.8 42.08L215.659 41.09L215.617 41.0961L215.575 41.1056L215.8 42.08ZM210.8 41.4L211.214 40.4896L210.8 41.4ZM207.8 39.16L207.023 39.7898L207.033 39.8013L207.042 39.8125L207.8 39.16ZM205.92 35.68L204.968 35.9848L204.97 35.9934L204.973 36.0019L205.92 35.68ZM205.92 26.88L204.973 26.5581L204.97 26.5666L204.968 26.5752L205.92 26.88ZM207.8 23.44L207.033 22.7978L207.032 22.7998L207.8 23.44ZM210.8 21.16L211.214 22.0704H211.214L210.8 21.16ZM215.8 20.48L215.575 21.4544L215.617 21.4639L215.659 21.4699L215.8 20.48ZM216.88 20.68L216.655 21.6544L217.88 21.9371V20.68H216.88ZM216.88 13.04V12.04H215.88V13.04H216.88ZM219.32 13.04H220.32V12.04H219.32V13.04ZM219.32 20.64H218.32V21.9492L219.583 21.6048L219.32 20.64ZM220.24 20.44L220.088 19.4516L220.076 19.4536L220.24 20.44ZM225.2 21.16L224.786 22.0704L225.2 21.16ZM228.16 23.44L227.383 24.0698L227.393 24.0813L227.402 24.0925L228.16 23.44ZM230.04 26.88L229.088 27.1848L229.09 27.1934L229.093 27.2019L230.04 26.88ZM217.239 21.9867C216.842 21.8341 216.432 21.7128 216.01 21.6222L215.59 23.5778C215.914 23.6472 216.224 23.7392 216.521 23.8533L217.239 21.9867ZM216.025 21.6256C215.601 21.5278 215.165 21.48 214.72 21.48V23.48C215.021 23.48 215.306 23.5122 215.575 23.5744L216.025 21.6256ZM214.72 21.48C213.539 21.48 212.428 21.7234 211.404 22.2202L212.276 24.0198C213.012 23.6632 213.821 23.48 214.72 23.48V21.48ZM211.393 22.2256C210.404 22.7199 209.557 23.4149 208.857 24.2986L210.423 25.5414C210.949 24.8785 211.569 24.3735 212.287 24.0144L211.393 22.2256ZM208.857 24.2986C208.157 25.1812 207.624 26.2271 207.247 27.4178L209.153 28.0222C209.469 27.0263 209.897 26.2055 210.423 25.5414L208.857 24.2986ZM207.242 27.4327C206.89 28.607 206.72 29.8924 206.72 31.28H208.72C208.72 30.0543 208.87 28.9663 209.158 28.0073L207.242 27.4327ZM206.72 31.28C206.72 32.6681 206.89 33.9641 207.24 35.1609L209.16 34.5991C208.87 33.6093 208.72 32.5053 208.72 31.28H206.72ZM207.249 35.1891C207.627 36.3537 208.16 37.383 208.857 38.2614L210.423 37.0186C209.894 36.3504 209.466 35.5396 209.151 34.5709L207.249 35.1891ZM208.857 38.2614C209.557 39.1451 210.404 39.8401 211.393 40.3344L212.287 38.5456C211.569 38.1865 210.949 37.6815 210.423 37.0186L208.857 38.2614ZM211.404 40.3398C212.428 40.8366 213.539 41.08 214.72 41.08V39.08C213.821 39.08 213.012 38.8968 212.276 38.5402L211.404 40.3398ZM214.72 41.08C215.165 41.08 215.601 41.0322 216.025 40.9344L215.575 38.9856C215.306 39.0478 215.021 39.08 214.72 39.08V41.08ZM216.01 40.9378C216.432 40.8472 216.842 40.7259 217.239 40.5733L216.521 38.7067C216.224 38.8208 215.914 38.9128 215.59 38.9822L216.01 40.9378ZM217.88 39.64V22.92H215.88V39.64H217.88ZM229.28 31.28C229.28 29.8853 229.095 28.5923 228.711 27.4109L226.809 28.0291C227.118 28.981 227.28 30.0614 227.28 31.28H229.28ZM228.72 27.4391C228.369 26.2408 227.848 25.1874 227.143 24.2986L225.577 25.5414C226.098 26.1993 226.511 27.0125 226.8 28.0009L228.72 27.4391ZM227.143 24.2986C226.438 23.4087 225.573 22.713 224.556 22.2202L223.684 24.0198C224.427 24.3803 225.056 24.8846 225.577 25.5414L227.143 24.2986ZM224.567 22.2256C223.563 21.7234 222.461 21.48 221.28 21.48V23.48C222.179 23.48 222.971 23.6633 223.673 24.0144L224.567 22.2256ZM221.28 21.48C220.498 21.48 219.719 21.6433 218.949 21.9515L219.691 23.8085C220.254 23.5833 220.782 23.48 221.28 23.48V21.48ZM218.32 22.88V39.72H220.32V22.88H218.32ZM218.978 40.6598C219.306 40.7789 219.646 40.8822 219.997 40.9701L220.483 39.0299C220.194 38.9578 219.921 38.8744 219.662 38.7802L218.978 40.6598ZM220.088 40.9884C220.484 41.0494 220.882 41.08 221.28 41.08V39.08C220.985 39.08 220.689 39.0573 220.392 39.0116L220.088 40.9884ZM221.28 41.08C222.461 41.08 223.563 40.8366 224.567 40.3344L223.673 38.5456C222.971 38.8967 222.179 39.08 221.28 39.08V41.08ZM224.556 40.3398C225.573 39.847 226.438 39.1513 227.143 38.2614L225.577 37.0186C225.056 37.6754 224.427 38.1797 223.684 38.5402L224.556 40.3398ZM227.143 38.2614C227.845 37.3768 228.366 36.3399 228.718 35.1673L226.802 34.5927C226.514 35.5534 226.102 36.3565 225.577 37.0186L227.143 38.2614ZM228.713 35.1822C229.095 33.9786 229.28 32.6752 229.28 31.28H227.28C227.28 32.4981 227.118 33.5947 226.807 34.5778L228.713 35.1822ZM229.72 31.28C229.72 32.7852 229.507 34.1415 229.093 35.3581L230.987 36.0019C231.48 34.5519 231.72 32.9748 231.72 31.28H229.72ZM229.088 35.3752C228.697 36.596 228.13 37.6389 227.393 38.5178L228.927 39.8022C229.843 38.7078 230.53 37.4307 230.992 35.9848L229.088 35.3752ZM227.392 38.5198C226.691 39.3606 225.827 40.0165 224.786 40.4896L225.614 42.3104C226.92 41.7168 228.029 40.8794 228.928 39.8002L227.392 38.5198ZM224.786 40.4896C223.757 40.9573 222.594 41.2 221.28 41.2V43.2C222.846 43.2 224.296 42.9094 225.614 42.3104L224.786 40.4896ZM221.28 41.2C220.985 41.2 220.689 41.1773 220.392 41.1316L220.088 43.1084C220.484 43.1694 220.882 43.2 221.28 43.2V41.2ZM220.404 41.1336C220.115 41.0854 219.842 41.0258 219.583 40.9552L219.057 42.8848C219.385 42.9742 219.725 43.0479 220.076 43.1064L220.404 41.1336ZM218.32 41.92V47.56H220.32V41.92H218.32ZM219.32 46.56H216.88V48.56H219.32V46.56ZM217.88 47.56V41.88H215.88V47.56H217.88ZM216.655 40.9056C216.338 40.9789 216.006 41.0405 215.659 41.09L215.941 43.07C216.341 43.0128 216.729 42.9411 217.105 42.8544L216.655 40.9056ZM215.575 41.1056C215.306 41.1678 215.021 41.2 214.72 41.2V43.2C215.165 43.2 215.601 43.1522 216.025 43.0544L215.575 41.1056ZM214.72 41.2C213.406 41.2 212.243 40.9573 211.214 40.4896L210.386 42.3104C211.704 42.9094 213.154 43.2 214.72 43.2V41.2ZM211.214 40.4896C210.17 40.0152 209.288 39.3557 208.558 38.5075L207.042 39.8125C207.965 40.8843 209.083 41.7181 210.386 42.3104L211.214 40.4896ZM208.577 38.5302C207.859 37.6448 207.286 36.5917 206.867 35.3581L204.973 36.0019C205.46 37.435 206.141 38.7019 207.023 39.7898L208.577 38.5302ZM206.872 35.3752C206.481 34.1533 206.28 32.7911 206.28 31.28H204.28C204.28 32.9689 204.505 34.54 204.968 35.9848L206.872 35.3752ZM206.28 31.28C206.28 29.7689 206.481 28.4067 206.872 27.1848L204.968 26.5752C204.505 28.02 204.28 29.5911 204.28 31.28H206.28ZM206.867 27.2019C207.286 25.9701 207.856 24.9347 208.568 24.0802L207.032 22.7998C206.144 23.8653 205.461 25.1233 204.973 26.5581L206.867 27.2019ZM208.567 24.0822C209.297 23.2103 210.176 22.5419 211.214 22.0704L210.386 20.2496C209.077 20.8448 207.956 21.6963 207.033 22.7978L208.567 24.0822ZM211.214 22.0704C212.243 21.6027 213.406 21.36 214.72 21.36V19.36C213.154 19.36 211.704 19.6506 210.386 20.2496L211.214 22.0704ZM214.72 21.36C215.021 21.36 215.306 21.3922 215.575 21.4544L216.025 19.5056C215.601 19.4078 215.165 19.36 214.72 19.36V21.36ZM215.659 21.4699C216.006 21.5195 216.338 21.5811 216.655 21.6544L217.105 19.7056C216.729 19.6189 216.341 19.5471 215.941 19.49L215.659 21.4699ZM217.88 20.68V13.04H215.88V20.68H217.88ZM216.88 14.04H219.32V12.04H216.88V14.04ZM218.32 13.04V20.64H220.32V13.04H218.32ZM219.583 21.6048C219.842 21.5342 220.115 21.4746 220.404 21.4264L220.076 19.4536C219.725 19.5121 219.385 19.5858 219.057 19.6752L219.583 21.6048ZM220.392 21.4284C220.689 21.3827 220.985 21.36 221.28 21.36V19.36C220.882 19.36 220.484 19.3906 220.088 19.4516L220.392 21.4284ZM221.28 21.36C222.594 21.36 223.757 21.6027 224.786 22.0704L225.614 20.2496C224.296 19.6506 222.846 19.36 221.28 19.36V21.36ZM224.786 22.0704C225.821 22.5405 226.682 23.2053 227.383 24.0698L228.937 22.8102C228.038 21.7013 226.926 20.8461 225.614 20.2496L224.786 22.0704ZM227.402 24.0925C228.133 24.9406 228.697 25.9658 229.088 27.1848L230.992 26.5752C230.529 25.1276 229.841 23.8594 228.918 22.7875L227.402 24.0925ZM229.093 27.2019C229.507 28.4185 229.72 29.7748 229.72 31.28H231.72C231.72 29.5852 231.48 28.0081 230.987 26.5581L229.093 27.2019Z" fill="black" mask="url(#path-11-outside-4_459_351)"/>
<rect x="80" width="37" height="52" rx="5" fill="#F40705"/>
<mask id="path-14-outside-5_459_351" maskUnits="userSpaceOnUse" x="86" y="19" width="25" height="25" fill="black">
<rect fill="white" x="86" y="19" width="25" height="25"/>
<path d="M109.14 41.6H106.7V23.12H95.58V25.08C95.58 27.1867 95.5133 29.08 95.38 30.76C95.2733 32.44 95.0067 33.9733 94.58 35.36C94.1533 36.7467 93.5133 38.0133 92.66 39.16C91.8333 40.3067 90.6867 41.4 89.22 42.44L87.82 40.84C89.02 40.04 89.98 39.1867 90.7 38.28C91.4467 37.3733 92.0067 36.32 92.38 35.12C92.78 33.8933 93.0333 32.4667 93.14 30.84C93.2733 29.2133 93.34 27.2933 93.34 25.08V20.96H109.14V41.6Z"/>
</mask>
<path d="M109.14 41.6H106.7V23.12H95.58V25.08C95.58 27.1867 95.5133 29.08 95.38 30.76C95.2733 32.44 95.0067 33.9733 94.58 35.36C94.1533 36.7467 93.5133 38.0133 92.66 39.16C91.8333 40.3067 90.6867 41.4 89.22 42.44L87.82 40.84C89.02 40.04 89.98 39.1867 90.7 38.28C91.4467 37.3733 92.0067 36.32 92.38 35.12C92.78 33.8933 93.0333 32.4667 93.14 30.84C93.2733 29.2133 93.34 27.2933 93.34 25.08V20.96H109.14V41.6Z" fill="white"/>
<path d="M109.14 41.6V42.6H110.14V41.6H109.14ZM106.7 41.6H105.7V42.6H106.7V41.6ZM106.7 23.12H107.7V22.12H106.7V23.12ZM95.58 23.12V22.12H94.58V23.12H95.58ZM95.38 30.76L94.3831 30.6809L94.3825 30.6888L94.382 30.6966L95.38 30.76ZM94.58 35.36L95.5358 35.6541L94.58 35.36ZM92.66 39.16L91.8578 38.563L91.8532 38.5691L91.8488 38.5752L92.66 39.16ZM89.22 42.44L88.4674 43.0985L89.0619 43.778L89.7984 43.2557L89.22 42.44ZM87.82 40.84L87.2653 40.0079L86.3166 40.6404L87.0674 41.4985L87.82 40.84ZM90.7 38.28L89.9281 37.6443L89.9224 37.6512L89.9169 37.6581L90.7 38.28ZM92.38 35.12L91.4292 34.8099L91.4251 34.8229L92.38 35.12ZM93.14 30.84L92.1433 30.7583L92.1427 30.7664L92.1421 30.7746L93.14 30.84ZM93.34 20.96V19.96H92.34V20.96H93.34ZM109.14 20.96H110.14V19.96H109.14V20.96ZM109.14 40.6H106.7V42.6H109.14V40.6ZM107.7 41.6V23.12H105.7V41.6H107.7ZM106.7 22.12H95.58V24.12H106.7V22.12ZM94.58 23.12V25.08H96.58V23.12H94.58ZM94.58 25.08C94.58 27.1665 94.5139 29.0327 94.3831 30.6809L96.3769 30.8391C96.5127 29.1273 96.58 27.2069 96.58 25.08H94.58ZM94.382 30.6966C94.2795 32.3105 94.0245 33.7651 93.6242 35.0659L95.5358 35.6541C95.9888 34.1816 96.2671 32.5695 96.378 30.8234L94.382 30.6966ZM93.6242 35.0659C93.2306 36.3453 92.642 37.5092 91.8578 38.563L93.4622 39.757C94.3847 38.5175 95.0761 37.1481 95.5358 35.6541L93.6242 35.0659ZM91.8488 38.5752C91.1013 39.6121 90.0417 40.6314 88.6416 41.6243L89.7984 43.2557C91.3316 42.1686 92.5654 41.0012 93.4712 39.7448L91.8488 38.5752ZM89.9726 41.7815L88.5726 40.1815L87.0674 41.4985L88.4674 43.0985L89.9726 41.7815ZM88.3747 41.6721C89.641 40.8279 90.6847 39.9072 91.4831 38.9019L89.9169 37.6581C89.2753 38.4661 88.399 39.2521 87.2653 40.0079L88.3747 41.6721ZM91.4719 38.9157C92.3066 37.9022 92.9258 36.732 93.3349 35.4171L91.4251 34.8229C91.0876 35.908 90.5868 36.8444 89.9281 37.6443L91.4719 38.9157ZM93.3307 35.43C93.7623 34.1065 94.0271 32.5945 94.1379 30.9054L92.1421 30.7746C92.0396 32.3388 91.7977 33.6801 91.4293 34.81L93.3307 35.43ZM94.1367 30.9217C94.2728 29.2602 94.34 27.3117 94.34 25.08H92.34C92.34 27.2749 92.2738 29.1664 92.1433 30.7583L94.1367 30.9217ZM94.34 25.08V20.96H92.34V25.08H94.34ZM93.34 21.96H109.14V19.96H93.34V21.96ZM108.14 20.96V41.6H110.14V20.96H108.14Z" fill="black" mask="url(#path-14-outside-5_459_351)"/>
<rect x="120" width="37" height="52" rx="5" fill="#F40705"/>
<mask id="path-17-outside-6_459_351" maskUnits="userSpaceOnUse" x="128" y="19" width="21" height="24" fill="black">
<rect fill="white" x="128" y="19" width="21" height="24"/>
<path d="M144.62 35.6C144.62 34.96 144.54 34.4 144.38 33.92C144.247 33.44 143.967 33.04 143.54 32.72C143.14 32.4 142.567 32.16 141.82 32C141.1 31.84 140.167 31.76 139.02 31.76H132.38V39.44H138.98C140.98 39.44 142.407 39.1467 143.26 38.56C144.14 37.9467 144.58 36.96 144.58 35.6H144.62ZM147.06 35.56C147.06 36.6 146.927 37.5067 146.66 38.28C146.393 39.0267 145.953 39.64 145.34 40.12C144.727 40.6267 143.9 41 142.86 41.24C141.82 41.48 140.54 41.6 139.02 41.6H129.94V20.96H132.38V29.6H138.98C141.94 29.6 144.02 30.0933 145.22 31.08C146.447 32.0667 147.06 33.56 147.06 35.56Z"/>
</mask>
<path d="M144.62 35.6C144.62 34.96 144.54 34.4 144.38 33.92C144.247 33.44 143.967 33.04 143.54 32.72C143.14 32.4 142.567 32.16 141.82 32C141.1 31.84 140.167 31.76 139.02 31.76H132.38V39.44H138.98C140.98 39.44 142.407 39.1467 143.26 38.56C144.14 37.9467 144.58 36.96 144.58 35.6H144.62ZM147.06 35.56C147.06 36.6 146.927 37.5067 146.66 38.28C146.393 39.0267 145.953 39.64 145.34 40.12C144.727 40.6267 143.9 41 142.86 41.24C141.82 41.48 140.54 41.6 139.02 41.6H129.94V20.96H132.38V29.6H138.98C141.94 29.6 144.02 30.0933 145.22 31.08C146.447 32.0667 147.06 33.56 147.06 35.56Z" fill="white"/>
<path d="M144.62 35.6V36.6H145.62V35.6H144.62ZM144.38 33.92L143.416 34.1876L143.423 34.2121L143.431 34.2362L144.38 33.92ZM143.54 32.72L142.915 33.5009L142.928 33.5106L142.94 33.52L143.54 32.72ZM141.82 32L141.603 32.9762L141.61 32.9778L141.82 32ZM132.38 31.76V30.76H131.38V31.76H132.38ZM132.38 39.44H131.38V40.44H132.38V39.44ZM143.26 38.56L143.827 39.3841L143.832 39.3804L143.26 38.56ZM144.58 35.6V34.6H143.58V35.6H144.58ZM146.66 38.28L147.602 38.6164L147.605 38.606L146.66 38.28ZM145.34 40.12L144.724 39.3325L144.713 39.3406L144.703 39.349L145.34 40.12ZM142.86 41.24L142.635 40.2656L142.86 41.24ZM129.94 41.6H128.94V42.6H129.94V41.6ZM129.94 20.96V19.96H128.94V20.96H129.94ZM132.38 20.96H133.38V19.96H132.38V20.96ZM132.38 29.6H131.38V30.6H132.38V29.6ZM145.22 31.08L144.585 31.8525L144.593 31.8592L145.22 31.08ZM145.62 35.6C145.62 34.8797 145.53 34.2086 145.329 33.6038L143.431 34.2362C143.55 34.5914 143.62 35.0403 143.62 35.6H145.62ZM145.344 33.6524C145.147 32.9442 144.73 32.3625 144.14 31.92L142.94 33.52C143.203 33.7175 143.347 33.9358 143.416 34.1876L145.344 33.6524ZM144.165 31.9391C143.599 31.4863 142.86 31.2001 142.03 31.0222L141.61 32.9778C142.274 33.1199 142.681 33.3137 142.915 33.5009L144.165 31.9391ZM142.037 31.0238C141.218 30.8418 140.204 30.76 139.02 30.76V32.76C140.129 32.76 140.982 32.8382 141.603 32.9762L142.037 31.0238ZM139.02 30.76H132.38V32.76H139.02V30.76ZM131.38 31.76V39.44H133.38V31.76H131.38ZM132.38 40.44H138.98V38.44H132.38V40.44ZM138.98 40.44C141.023 40.44 142.711 40.1507 143.827 39.384L142.693 37.736C142.102 38.1427 140.937 38.44 138.98 38.44V40.44ZM143.832 39.3804C145.052 38.5303 145.58 37.189 145.58 35.6H143.58C143.58 36.731 143.228 37.3631 142.688 37.7396L143.832 39.3804ZM144.58 36.6H144.62V34.6H144.58V36.6ZM146.06 35.56C146.06 36.5177 145.937 37.3096 145.715 37.954L147.605 38.606C147.917 37.7037 148.06 36.6823 148.06 35.56H146.06ZM145.718 37.9437C145.514 38.5156 145.185 38.9713 144.724 39.3325L145.956 40.9075C146.721 40.3087 147.273 39.5378 147.602 38.6163L145.718 37.9437ZM144.703 39.349C144.243 39.729 143.573 40.0491 142.635 40.2656L143.085 42.2144C144.227 41.9509 145.21 41.5243 145.977 40.891L144.703 39.349ZM142.635 40.2656C141.693 40.4831 140.493 40.6 139.02 40.6V42.6C140.587 42.6 141.947 42.4769 143.085 42.2144L142.635 40.2656ZM139.02 40.6H129.94V42.6H139.02V40.6ZM130.94 41.6V20.96H128.94V41.6H130.94ZM129.94 21.96H132.38V19.96H129.94V21.96ZM131.38 20.96V29.6H133.38V20.96H131.38ZM132.38 30.6H138.98V28.6H132.38V30.6ZM138.98 30.6C141.89 30.6 143.666 31.0972 144.585 31.8524L145.855 30.3076C144.374 29.0895 141.99 28.6 138.98 28.6V30.6ZM144.593 31.8592C145.522 32.6064 146.06 33.7736 146.06 35.56H148.06C148.06 33.3464 147.371 31.5269 145.847 30.3008L144.593 31.8592Z" fill="black" mask="url(#path-17-outside-6_459_351)"/>
<rect x="240" width="37" height="52" rx="5" fill="#F40705"/>
<mask id="path-20-outside-7_459_351" maskUnits="userSpaceOnUse" x="248" y="19" width="21" height="24" fill="black">
<rect fill="white" x="248" y="19" width="21" height="24"/>
<path d="M267.18 41.6H264.74V26.52L252.22 39.2V41.6H249.78V20.96H252.22V36.04L264.74 23.36V20.96H267.18V41.6Z"/>
</mask>
<path d="M267.18 41.6H264.74V26.52L252.22 39.2V41.6H249.78V20.96H252.22V36.04L264.74 23.36V20.96H267.18V41.6Z" fill="white"/>
<path d="M267.18 41.6V42.6H268.18V41.6H267.18ZM264.74 41.6H263.74V42.6H264.74V41.6ZM264.74 26.52H265.74V24.0839L264.028 25.8174L264.74 26.52ZM252.22 39.2L251.508 38.4974L251.22 38.7895V39.2H252.22ZM252.22 41.6V42.6H253.22V41.6H252.22ZM249.78 41.6H248.78V42.6H249.78V41.6ZM249.78 20.96V19.96H248.78V20.96H249.78ZM252.22 20.96H253.22V19.96H252.22V20.96ZM252.22 36.04H251.22V38.4761L252.932 36.7426L252.22 36.04ZM264.74 23.36L265.452 24.0626L265.74 23.7705V23.36H264.74ZM264.74 20.96V19.96H263.74V20.96H264.74ZM267.18 20.96H268.18V19.96H267.18V20.96ZM267.18 40.6H264.74V42.6H267.18V40.6ZM265.74 41.6V26.52H263.74V41.6H265.74ZM264.028 25.8174L251.508 38.4974L252.932 39.9026L265.452 27.2226L264.028 25.8174ZM251.22 39.2V41.6H253.22V39.2H251.22ZM252.22 40.6H249.78V42.6H252.22V40.6ZM250.78 41.6V20.96H248.78V41.6H250.78ZM249.78 21.96H252.22V19.96H249.78V21.96ZM251.22 20.96V36.04H253.22V20.96H251.22ZM252.932 36.7426L265.452 24.0626L264.028 22.6574L251.508 35.3374L252.932 36.7426ZM265.74 23.36V20.96H263.74V23.36H265.74ZM264.74 21.96H267.18V19.96H264.74V21.96ZM266.18 20.96V41.6H268.18V20.96H266.18Z" fill="black" mask="url(#path-20-outside-7_459_351)"/>
<rect x="280" width="37" height="52" rx="5" fill="#F40705"/>
<mask id="path-23-outside-8_459_351" maskUnits="userSpaceOnUse" x="286" y="19" width="25" height="25" fill="black">
<rect fill="white" x="286" y="19" width="25" height="25"/>
<path d="M309.14 41.6H306.7V23.12H295.58V25.08C295.58 27.1867 295.513 29.08 295.38 30.76C295.273 32.44 295.007 33.9733 294.58 35.36C294.153 36.7467 293.513 38.0133 292.66 39.16C291.833 40.3067 290.687 41.4 289.22 42.44L287.82 40.84C289.02 40.04 289.98 39.1867 290.7 38.28C291.447 37.3733 292.007 36.32 292.38 35.12C292.78 33.8933 293.033 32.4667 293.14 30.84C293.273 29.2133 293.34 27.2933 293.34 25.08V20.96H309.14V41.6Z"/>
</mask>
<path d="M309.14 41.6H306.7V23.12H295.58V25.08C295.58 27.1867 295.513 29.08 295.38 30.76C295.273 32.44 295.007 33.9733 294.58 35.36C294.153 36.7467 293.513 38.0133 292.66 39.16C291.833 40.3067 290.687 41.4 289.22 42.44L287.82 40.84C289.02 40.04 289.98 39.1867 290.7 38.28C291.447 37.3733 292.007 36.32 292.38 35.12C292.78 33.8933 293.033 32.4667 293.14 30.84C293.273 29.2133 293.34 27.2933 293.34 25.08V20.96H309.14V41.6Z" fill="white"/>
<path d="M309.14 41.6V42.6H310.14V41.6H309.14ZM306.7 41.6H305.7V42.6H306.7V41.6ZM306.7 23.12H307.7V22.12H306.7V23.12ZM295.58 23.12V22.12H294.58V23.12H295.58ZM295.38 30.76L294.383 30.6809L294.383 30.6888L294.382 30.6966L295.38 30.76ZM294.58 35.36L295.536 35.6541L294.58 35.36ZM292.66 39.16L291.858 38.563L291.853 38.5691L291.849 38.5752L292.66 39.16ZM289.22 42.44L288.467 43.0985L289.062 43.778L289.798 43.2557L289.22 42.44ZM287.82 40.84L287.265 40.0079L286.317 40.6404L287.067 41.4985L287.82 40.84ZM290.7 38.28L289.928 37.6443L289.922 37.6512L289.917 37.6581L290.7 38.28ZM292.38 35.12L291.429 34.8099L291.425 34.8229L292.38 35.12ZM293.14 30.84L292.143 30.7583L292.143 30.7664L292.142 30.7746L293.14 30.84ZM293.34 20.96V19.96H292.34V20.96H293.34ZM309.14 20.96H310.14V19.96H309.14V20.96ZM309.14 40.6H306.7V42.6H309.14V40.6ZM307.7 41.6V23.12H305.7V41.6H307.7ZM306.7 22.12H295.58V24.12H306.7V22.12ZM294.58 23.12V25.08H296.58V23.12H294.58ZM294.58 25.08C294.58 27.1665 294.514 29.0327 294.383 30.6809L296.377 30.8391C296.513 29.1273 296.58 27.2069 296.58 25.08H294.58ZM294.382 30.6966C294.28 32.3105 294.024 33.7651 293.624 35.0659L295.536 35.6541C295.989 34.1816 296.267 32.5695 296.378 30.8234L294.382 30.6966ZM293.624 35.0659C293.231 36.3453 292.642 37.5092 291.858 38.563L293.462 39.757C294.385 38.5175 295.076 37.1481 295.536 35.6541L293.624 35.0659ZM291.849 38.5752C291.101 39.6121 290.042 40.6314 288.642 41.6243L289.798 43.2557C291.332 42.1686 292.565 41.0012 293.471 39.7448L291.849 38.5752ZM289.973 41.7815L288.573 40.1815L287.067 41.4985L288.467 43.0985L289.973 41.7815ZM288.375 41.6721C289.641 40.8279 290.685 39.9072 291.483 38.9019L289.917 37.6581C289.275 38.4661 288.399 39.2521 287.265 40.0079L288.375 41.6721ZM291.472 38.9157C292.307 37.9022 292.926 36.732 293.335 35.4171L291.425 34.8229C291.088 35.908 290.587 36.8444 289.928 37.6443L291.472 38.9157ZM293.331 35.43C293.762 34.1065 294.027 32.5945 294.138 30.9054L292.142 30.7746C292.04 32.3388 291.798 33.6801 291.429 34.81L293.331 35.43ZM294.137 30.9217C294.273 29.2602 294.34 27.3117 294.34 25.08H292.34C292.34 27.2749 292.274 29.1664 292.143 30.7583L294.137 30.9217ZM294.34 25.08V20.96H292.34V25.08H294.34ZM293.34 21.96H309.14V19.96H293.34V21.96ZM308.14 20.96V41.6H310.14V20.96H308.14Z" fill="black" mask="url(#path-23-outside-8_459_351)"/>
<rect x="320" width="37" height="52" rx="5" fill="#F40705"/>
<mask id="path-26-outside-9_459_351" maskUnits="userSpaceOnUse" x="328" y="19" width="21" height="24" fill="black">
<rect fill="white" x="328" y="19" width="21" height="24"/>
<path d="M344.62 35.6C344.62 34.96 344.54 34.4 344.38 33.92C344.247 33.44 343.967 33.04 343.54 32.72C343.14 32.4 342.567 32.16 341.82 32C341.1 31.84 340.167 31.76 339.02 31.76H332.38V39.44H338.98C340.98 39.44 342.407 39.1467 343.26 38.56C344.14 37.9467 344.58 36.96 344.58 35.6H344.62ZM347.06 35.56C347.06 36.6 346.927 37.5067 346.66 38.28C346.393 39.0267 345.953 39.64 345.34 40.12C344.727 40.6267 343.9 41 342.86 41.24C341.82 41.48 340.54 41.6 339.02 41.6H329.94V20.96H332.38V29.6H338.98C341.94 29.6 344.02 30.0933 345.22 31.08C346.447 32.0667 347.06 33.56 347.06 35.56Z"/>
</mask>
<path d="M344.62 35.6C344.62 34.96 344.54 34.4 344.38 33.92C344.247 33.44 343.967 33.04 343.54 32.72C343.14 32.4 342.567 32.16 341.82 32C341.1 31.84 340.167 31.76 339.02 31.76H332.38V39.44H338.98C340.98 39.44 342.407 39.1467 343.26 38.56C344.14 37.9467 344.58 36.96 344.58 35.6H344.62ZM347.06 35.56C347.06 36.6 346.927 37.5067 346.66 38.28C346.393 39.0267 345.953 39.64 345.34 40.12C344.727 40.6267 343.9 41 342.86 41.24C341.82 41.48 340.54 41.6 339.02 41.6H329.94V20.96H332.38V29.6H338.98C341.94 29.6 344.02 30.0933 345.22 31.08C346.447 32.0667 347.06 33.56 347.06 35.56Z" fill="white"/>
<path d="M344.62 35.6V36.6H345.62V35.6H344.62ZM344.38 33.92L343.416 34.1876L343.423 34.2121L343.431 34.2362L344.38 33.92ZM343.54 32.72L342.915 33.5009L342.928 33.5106L342.94 33.52L343.54 32.72ZM341.82 32L341.603 32.9762L341.61 32.9778L341.82 32ZM332.38 31.76V30.76H331.38V31.76H332.38ZM332.38 39.44H331.38V40.44H332.38V39.44ZM343.26 38.56L343.827 39.3841L343.832 39.3804L343.26 38.56ZM344.58 35.6V34.6H343.58V35.6H344.58ZM346.66 38.28L347.602 38.6164L347.605 38.606L346.66 38.28ZM345.34 40.12L344.724 39.3325L344.713 39.3406L344.703 39.349L345.34 40.12ZM342.86 41.24L342.635 40.2656L342.86 41.24ZM329.94 41.6H328.94V42.6H329.94V41.6ZM329.94 20.96V19.96H328.94V20.96H329.94ZM332.38 20.96H333.38V19.96H332.38V20.96ZM332.38 29.6H331.38V30.6H332.38V29.6ZM345.22 31.08L344.585 31.8525L344.593 31.8592L345.22 31.08ZM345.62 35.6C345.62 34.8797 345.53 34.2086 345.329 33.6038L343.431 34.2362C343.55 34.5914 343.62 35.0403 343.62 35.6H345.62ZM345.344 33.6524C345.147 32.9442 344.73 32.3625 344.14 31.92L342.94 33.52C343.203 33.7175 343.347 33.9358 343.416 34.1876L345.344 33.6524ZM344.165 31.9391C343.599 31.4863 342.86 31.2001 342.03 31.0222L341.61 32.9778C342.274 33.1199 342.681 33.3137 342.915 33.5009L344.165 31.9391ZM342.037 31.0238C341.218 30.8418 340.204 30.76 339.02 30.76V32.76C340.129 32.76 340.982 32.8382 341.603 32.9762L342.037 31.0238ZM339.02 30.76H332.38V32.76H339.02V30.76ZM331.38 31.76V39.44H333.38V31.76H331.38ZM332.38 40.44H338.98V38.44H332.38V40.44ZM338.98 40.44C341.023 40.44 342.711 40.1507 343.827 39.384L342.693 37.736C342.102 38.1427 340.937 38.44 338.98 38.44V40.44ZM343.832 39.3804C345.052 38.5303 345.58 37.189 345.58 35.6H343.58C343.58 36.731 343.228 37.3631 342.688 37.7396L343.832 39.3804ZM344.58 36.6H344.62V34.6H344.58V36.6ZM346.06 35.56C346.06 36.5177 345.937 37.3096 345.715 37.954L347.605 38.606C347.917 37.7037 348.06 36.6823 348.06 35.56H346.06ZM345.718 37.9437C345.514 38.5156 345.185 38.9713 344.724 39.3325L345.956 40.9075C346.721 40.3087 347.273 39.5378 347.602 38.6163L345.718 37.9437ZM344.703 39.349C344.243 39.729 343.573 40.0491 342.635 40.2656L343.085 42.2144C344.227 41.9509 345.21 41.5243 345.977 40.891L344.703 39.349ZM342.635 40.2656C341.693 40.4831 340.493 40.6 339.02 40.6V42.6C340.587 42.6 341.947 42.4769 343.085 42.2144L342.635 40.2656ZM339.02 40.6H329.94V42.6H339.02V40.6ZM330.94 41.6V20.96H328.94V41.6H330.94ZM329.94 21.96H332.38V19.96H329.94V21.96ZM331.38 20.96V29.6H333.38V20.96H331.38ZM332.38 30.6H338.98V28.6H332.38V30.6ZM338.98 30.6C341.89 30.6 343.666 31.0972 344.585 31.8524L345.855 30.3076C344.374 29.0895 341.99 28.6 338.98 28.6V30.6ZM344.593 31.8592C345.522 32.6064 346.06 33.7736 346.06 35.56H348.06C348.06 33.3464 347.371 31.5269 345.847 30.3008L344.593 31.8592Z" fill="black" mask="url(#path-26-outside-9_459_351)"/>
<rect x="360" width="37" height="52" rx="5" fill="#F40705"/>
<mask id="path-29-outside-10_459_351" maskUnits="userSpaceOnUse" x="365" y="19" width="27" height="24" fill="black">
<rect fill="white" x="365" y="19" width="27" height="24"/>
<path d="M390.94 41.6H388.5V24.52L379.74 41.6H377.26L368.5 24.52V41.6H366.06V20.96H369.38L378.5 38.72L387.62 20.96H390.94V41.6Z"/>
</mask>
<path d="M390.94 41.6H388.5V24.52L379.74 41.6H377.26L368.5 24.52V41.6H366.06V20.96H369.38L378.5 38.72L387.62 20.96H390.94V41.6Z" fill="white"/>
<path d="M390.94 41.6V42.6H391.94V41.6H390.94ZM388.5 41.6H387.5V42.6H388.5V41.6ZM388.5 24.52H389.5L387.61 24.0636L388.5 24.52ZM379.74 41.6V42.6H380.351L380.63 42.0564L379.74 41.6ZM377.26 41.6L376.37 42.0564L376.649 42.6H377.26V41.6ZM368.5 24.52L369.39 24.0636L367.5 24.52H368.5ZM368.5 41.6V42.6H369.5V41.6H368.5ZM366.06 41.6H365.06V42.6H366.06V41.6ZM366.06 20.96V19.96H365.06V20.96H366.06ZM369.38 20.96L370.27 20.5032L369.991 19.96H369.38V20.96ZM378.5 38.72L377.61 39.1768L378.5 40.9091L379.39 39.1768L378.5 38.72ZM387.62 20.96V19.96H387.009L386.73 20.5032L387.62 20.96ZM390.94 20.96H391.94V19.96H390.94V20.96ZM390.94 40.6H388.5V42.6H390.94V40.6ZM389.5 41.6V24.52H387.5V41.6H389.5ZM387.61 24.0636L378.85 41.1436L380.63 42.0564L389.39 24.9764L387.61 24.0636ZM379.74 40.6H377.26V42.6H379.74V40.6ZM378.15 41.1436L369.39 24.0636L367.61 24.9764L376.37 42.0564L378.15 41.1436ZM367.5 24.52V41.6H369.5V24.52H367.5ZM368.5 40.6H366.06V42.6H368.5V40.6ZM367.06 41.6V20.96H365.06V41.6H367.06ZM366.06 21.96H369.38V19.96H366.06V21.96ZM368.49 21.4168L377.61 39.1768L379.39 38.2632L370.27 20.5032L368.49 21.4168ZM379.39 39.1768L388.51 21.4168L386.73 20.5032L377.61 38.2632L379.39 39.1768ZM387.62 21.96H390.94V19.96H387.62V21.96ZM389.94 20.96V41.6H391.94V20.96H389.94Z" fill="black" mask="url(#path-29-outside-10_459_351)"/>
</svg>
