<svg width="237" height="52" viewBox="0 0 237 52" fill="none" xmlns="http://www.w3.org/2000/svg">
<rect width="37" height="52" rx="5" fill="black"/>
<mask id="path-2-outside-1_456_336" maskUnits="userSpaceOnUse" x="8" y="19" width="21" height="25" fill="black">
<rect fill="white" x="8" y="19" width="21" height="25"/>
<path d="M27.34 34.6C26.9667 37.0267 26.06 38.8933 24.62 40.2C23.18 41.5333 21.2867 42.2 18.94 42.2C17.4467 42.2 16.1133 41.9333 14.94 41.4C13.7933 40.8667 12.82 40.12 12.02 39.16C11.2467 38.2 10.6467 37.0533 10.22 35.72C9.82 34.3867 9.62 32.9067 9.62 31.28C9.62 29.7333 9.82 28.2933 10.22 26.96C10.6467 25.6267 11.2467 24.48 12.02 23.52C12.82 22.5333 13.7933 21.76 14.94 21.2C16.0867 20.64 17.4067 20.36 18.9 20.36C19.9667 20.36 20.9667 20.5333 21.9 20.88C22.86 21.2 23.7 21.68 24.42 22.32C25.14 22.9333 25.74 23.6933 26.22 24.6C26.7 25.48 27.02 26.48 27.18 27.6H24.74C24.5 26.1067 23.86 24.88 22.82 23.92C21.78 22.96 20.4733 22.48 18.9 22.48C17.7533 22.48 16.7533 22.72 15.9 23.2C15.0467 23.6533 14.3267 24.28 13.74 25.08C13.18 25.88 12.7533 26.8133 12.46 27.88C12.1933 28.9467 12.06 30.08 12.06 31.28C12.06 32.56 12.2067 33.7467 12.5 34.84C12.82 35.9067 13.2733 36.84 13.86 37.64C14.4733 38.4133 15.1933 39.0133 16.02 39.44C16.8733 39.8667 17.8467 40.08 18.94 40.08C19.6867 40.08 20.3933 39.96 21.06 39.72C21.7533 39.4533 22.3533 39.08 22.86 38.6C23.3933 38.12 23.8333 37.5467 24.18 36.88C24.5267 36.1867 24.7667 35.4267 24.9 34.6H27.34Z"/>
</mask>
<path d="M27.34 34.6C26.9667 37.0267 26.06 38.8933 24.62 40.2C23.18 41.5333 21.2867 42.2 18.94 42.2C17.4467 42.2 16.1133 41.9333 14.94 41.4C13.7933 40.8667 12.82 40.12 12.02 39.16C11.2467 38.2 10.6467 37.0533 10.22 35.72C9.82 34.3867 9.62 32.9067 9.62 31.28C9.62 29.7333 9.82 28.2933 10.22 26.96C10.6467 25.6267 11.2467 24.48 12.02 23.52C12.82 22.5333 13.7933 21.76 14.94 21.2C16.0867 20.64 17.4067 20.36 18.9 20.36C19.9667 20.36 20.9667 20.5333 21.9 20.88C22.86 21.2 23.7 21.68 24.42 22.32C25.14 22.9333 25.74 23.6933 26.22 24.6C26.7 25.48 27.02 26.48 27.18 27.6H24.74C24.5 26.1067 23.86 24.88 22.82 23.92C21.78 22.96 20.4733 22.48 18.9 22.48C17.7533 22.48 16.7533 22.72 15.9 23.2C15.0467 23.6533 14.3267 24.28 13.74 25.08C13.18 25.88 12.7533 26.8133 12.46 27.88C12.1933 28.9467 12.06 30.08 12.06 31.28C12.06 32.56 12.2067 33.7467 12.5 34.84C12.82 35.9067 13.2733 36.84 13.86 37.64C14.4733 38.4133 15.1933 39.0133 16.02 39.44C16.8733 39.8667 17.8467 40.08 18.94 40.08C19.6867 40.08 20.3933 39.96 21.06 39.72C21.7533 39.4533 22.3533 39.08 22.86 38.6C23.3933 38.12 23.8333 37.5467 24.18 36.88C24.5267 36.1867 24.7667 35.4267 24.9 34.6H27.34Z" fill="white"/>
<path d="M27.34 34.6L28.3284 34.7521L28.5056 33.6H27.34V34.6ZM24.62 40.2L23.948 39.4594L23.9406 39.4662L24.62 40.2ZM14.94 41.4L14.5183 42.3068L14.5262 42.3104L14.94 41.4ZM12.02 39.16L11.2412 39.7873L11.2465 39.7938L11.2518 39.8002L12.02 39.16ZM10.22 35.72L9.26217 36.0073L9.2648 36.0161L9.26758 36.0248L10.22 35.72ZM10.22 26.96L9.26758 26.6552L9.2648 26.6639L9.26217 26.6727L10.22 26.96ZM12.02 23.52L11.2432 22.8902L11.2412 22.8927L12.02 23.52ZM14.94 21.2L14.5012 20.3014L14.5012 20.3014L14.94 21.2ZM21.9 20.88L21.5518 21.8174L21.5677 21.8233L21.5838 21.8287L21.9 20.88ZM24.42 22.32L23.7556 23.0674L23.7635 23.0744L23.7715 23.0812L24.42 22.32ZM26.22 24.6L25.3361 25.0679L25.3421 25.0789L26.22 24.6ZM27.18 27.6V28.6H28.333L28.1699 27.4586L27.18 27.6ZM24.74 27.6L23.7527 27.7587L23.8879 28.6H24.74V27.6ZM22.82 23.92L23.4983 23.1852L23.4983 23.1852L22.82 23.92ZM15.9 23.2L16.3692 24.0831L16.3798 24.0775L16.3903 24.0716L15.9 23.2ZM13.74 25.08L12.9336 24.4886L12.9271 24.4975L12.9208 24.5065L13.74 25.08ZM12.46 27.88L11.4958 27.6148L11.4927 27.6261L11.4899 27.6375L12.46 27.88ZM12.5 34.84L11.5342 35.0991L11.538 35.1133L11.5422 35.1273L12.5 34.84ZM13.86 37.64L13.0536 38.2314L13.0648 38.2466L13.0765 38.2614L13.86 37.64ZM16.02 39.44L15.5613 40.3287L15.5728 40.3344L16.02 39.44ZM21.06 39.72L21.3987 40.6609L21.4089 40.6572L21.419 40.6533L21.06 39.72ZM22.86 38.6L22.191 37.8567L22.1815 37.8653L22.1723 37.874L22.86 38.6ZM24.18 36.88L25.0672 37.3414L25.0709 37.3343L25.0744 37.3272L24.18 36.88ZM24.9 34.6V33.6H24.0484L23.9128 34.4408L24.9 34.6ZM26.3516 34.4479C26.0038 36.7088 25.1776 38.3437 23.948 39.4594L25.292 40.9406C26.9424 39.443 27.9295 37.3445 28.3284 34.7521L26.3516 34.4479ZM23.9406 39.4662C22.7205 40.596 21.087 41.2 18.94 41.2V43.2C21.4864 43.2 23.6395 42.4707 25.2994 40.9338L23.9406 39.4662ZM18.94 41.2C17.5669 41.2 16.3781 40.9552 15.3538 40.4896L14.5262 42.3104C15.8485 42.9114 17.3264 43.2 18.94 43.2V41.2ZM15.3617 40.4933C14.3471 40.0214 13.4926 39.3651 12.7882 38.5198L11.2518 39.8002C12.1474 40.8749 13.2395 41.712 14.5183 42.3067L15.3617 40.4933ZM12.7988 38.5327C12.1124 37.6807 11.5666 36.647 11.1724 35.4152L9.26758 36.0248C9.72673 37.4596 10.3809 38.7193 11.2412 39.7873L12.7988 38.5327ZM11.1778 35.4327C10.81 34.2067 10.62 32.8253 10.62 31.28H8.62C8.62 32.988 8.82996 34.5666 9.26217 36.0073L11.1778 35.4327ZM10.62 31.28C10.62 29.82 10.8087 28.4778 11.1778 27.2473L9.26217 26.6727C8.8313 28.1089 8.62 29.6467 8.62 31.28H10.62ZM11.1724 27.2648C11.5666 26.033 12.1124 24.9993 12.7988 24.1473L11.2412 22.8927C10.3809 23.9607 9.72673 25.2204 9.26758 26.6552L11.1724 27.2648ZM12.7968 24.1498C13.5046 23.2768 14.3624 22.595 15.3788 22.0986L14.5012 20.3014C13.2243 20.925 12.1354 21.7899 11.2432 22.8902L12.7968 24.1498ZM15.3788 22.0986C16.3674 21.6158 17.533 21.36 18.9 21.36V19.36C17.2804 19.36 15.8059 19.6642 14.5012 20.3014L15.3788 22.0986ZM18.9 21.36C19.8563 21.36 20.7376 21.515 21.5518 21.8174L22.2482 19.9426C21.1957 19.5517 20.077 19.36 18.9 19.36V21.36ZM21.5838 21.8287C22.4219 22.1081 23.1419 22.5219 23.7556 23.0674L25.0844 21.5726C24.2581 20.8381 23.2981 20.2919 22.2162 19.9313L21.5838 21.8287ZM23.7715 23.0812C24.3874 23.6058 24.9104 24.2635 25.3362 25.0679L27.1038 24.1321C26.5696 23.1232 25.8926 22.2608 25.0685 21.5588L23.7715 23.0812ZM25.3421 25.0789C25.758 25.8414 26.0448 26.7246 26.1901 27.7414L28.1699 27.4586C27.9952 26.2354 27.642 25.1186 27.0979 24.1211L25.3421 25.0789ZM27.18 26.6H24.74V28.6H27.18V26.6ZM25.7273 27.4413C25.4544 25.743 24.7146 24.308 23.4983 23.1852L22.1417 24.6548C23.0054 25.452 23.5456 26.4703 23.7527 27.7587L25.7273 27.4413ZM23.4983 23.1852C22.2524 22.0351 20.6944 21.48 18.9 21.48V23.48C20.2523 23.48 21.3076 23.8849 22.1417 24.6548L23.4983 23.1852ZM18.9 21.48C17.6112 21.48 16.4366 21.7508 15.4097 22.3284L16.3903 24.0716C17.0701 23.6892 17.8955 23.48 18.9 23.48V21.48ZM15.4308 22.3169C14.441 22.8428 13.6068 23.5706 12.9336 24.4886L14.5464 25.6714C15.0465 24.9894 15.6524 24.4639 16.3692 24.0831L15.4308 22.3169ZM12.9208 24.5065C12.2871 25.4118 11.8155 26.4524 11.4958 27.6148L13.4242 28.1452C13.6912 27.1743 14.0729 26.3482 14.5592 25.6535L12.9208 24.5065ZM11.4899 27.6375C11.2016 28.7903 11.06 30.0056 11.06 31.28H13.06C13.06 30.1544 13.185 29.103 13.4301 28.1225L11.4899 27.6375ZM11.06 31.28C11.06 32.6363 11.2154 33.9111 11.5342 35.0991L13.4658 34.5809C13.1979 33.5822 13.06 32.4837 13.06 31.28H11.06ZM11.5422 35.1273C11.891 36.29 12.3918 37.3289 13.0536 38.2314L14.6664 37.0486C14.1549 36.3511 13.749 35.5234 13.4578 34.5527L11.5422 35.1273ZM13.0765 38.2614C13.7725 39.1389 14.6011 39.833 15.5614 40.3286L16.4786 38.5514C15.7856 38.1937 15.1742 37.6877 14.6435 37.0186L13.0765 38.2614ZM15.5728 40.3344C16.584 40.84 17.7142 41.08 18.94 41.08V39.08C17.9792 39.08 17.1627 38.8933 16.4672 38.5456L15.5728 40.3344ZM18.94 41.08C19.7959 41.08 20.6177 40.9421 21.3987 40.6609L20.7213 38.7791C20.169 38.9779 19.5775 39.08 18.94 39.08V41.08ZM21.419 40.6533C22.2265 40.3428 22.9401 39.9016 23.5477 39.326L22.1723 37.874C21.7666 38.2584 21.2802 38.5639 20.701 38.7867L21.419 40.6533ZM23.529 39.3433C24.1555 38.7794 24.6679 38.1092 25.0672 37.3414L23.2928 36.4186C22.9987 36.9841 22.6312 37.4606 22.191 37.8567L23.529 39.3433ZM25.0744 37.3272C25.47 36.5362 25.739 35.678 25.8872 34.7592L23.9128 34.4408C23.7943 35.1753 23.5834 35.8372 23.2856 36.4328L25.0744 37.3272ZM24.9 35.6H27.34V33.6H24.9V35.6Z" fill="#502B91" mask="url(#path-2-outside-1_456_336)"/>
<rect x="40" width="37" height="52" rx="5" fill="black"/>
<mask id="path-5-outside-2_456_336" maskUnits="userSpaceOnUse" x="49" y="20" width="19" height="24" fill="black">
<rect fill="white" x="49" y="20" width="19" height="24"/>
<path d="M63.86 30.4C63.86 29.5733 63.7533 28.7333 63.54 27.88C63.3533 27.0267 63.06 26.28 62.66 25.64C61.7267 24.0933 60.3933 23.32 58.66 23.32C56.9267 23.32 55.5667 24.1067 54.58 25.68C54.1267 26.4533 53.78 27.2533 53.54 28.08C53.3 28.9067 53.1667 29.68 53.14 30.4H63.86ZM53.1 32.68C53.0733 33.5333 53.22 34.4667 53.54 35.48C53.8867 36.4667 54.3533 37.28 54.94 37.92C55.5267 38.5333 56.1933 39.0267 56.94 39.4C57.6867 39.7733 58.5933 39.96 59.66 39.96C60.5933 39.96 61.46 39.8667 62.26 39.68C63.06 39.4933 63.86 39.1867 64.66 38.76C64.98 38.6267 65.1533 38.72 65.18 39.04V40.88C65.18 41.0933 65.0333 41.2667 64.74 41.4C63.9133 41.72 63.1 41.96 62.3 42.12C61.5267 42.28 60.58 42.36 59.46 42.36C56.6067 42.36 54.34 41.4133 52.66 39.52C50.98 37.6 50.14 35.0267 50.14 31.8C50.14 28.8667 50.9667 26.3067 52.62 24.12C54.3533 22.0667 56.38 21.04 58.7 21.04C60.14 21.04 61.3267 21.2933 62.26 21.8C63.22 22.3067 64.0733 23.08 64.82 24.12C66.1533 25.9067 66.82 28.3333 66.82 31.4C66.82 31.72 66.8067 31.9733 66.78 32.16C66.78 32.32 66.74 32.44 66.66 32.52C66.58 32.6 66.4333 32.6533 66.22 32.68C66.0333 32.68 65.7533 32.68 65.38 32.68H53.1Z"/>
</mask>
<path d="M63.86 30.4C63.86 29.5733 63.7533 28.7333 63.54 27.88C63.3533 27.0267 63.06 26.28 62.66 25.64C61.7267 24.0933 60.3933 23.32 58.66 23.32C56.9267 23.32 55.5667 24.1067 54.58 25.68C54.1267 26.4533 53.78 27.2533 53.54 28.08C53.3 28.9067 53.1667 29.68 53.14 30.4H63.86ZM53.1 32.68C53.0733 33.5333 53.22 34.4667 53.54 35.48C53.8867 36.4667 54.3533 37.28 54.94 37.92C55.5267 38.5333 56.1933 39.0267 56.94 39.4C57.6867 39.7733 58.5933 39.96 59.66 39.96C60.5933 39.96 61.46 39.8667 62.26 39.68C63.06 39.4933 63.86 39.1867 64.66 38.76C64.98 38.6267 65.1533 38.72 65.18 39.04V40.88C65.18 41.0933 65.0333 41.2667 64.74 41.4C63.9133 41.72 63.1 41.96 62.3 42.12C61.5267 42.28 60.58 42.36 59.46 42.36C56.6067 42.36 54.34 41.4133 52.66 39.52C50.98 37.6 50.14 35.0267 50.14 31.8C50.14 28.8667 50.9667 26.3067 52.62 24.12C54.3533 22.0667 56.38 21.04 58.7 21.04C60.14 21.04 61.3267 21.2933 62.26 21.8C63.22 22.3067 64.0733 23.08 64.82 24.12C66.1533 25.9067 66.82 28.3333 66.82 31.4C66.82 31.72 66.8067 31.9733 66.78 32.16C66.78 32.32 66.74 32.44 66.66 32.52C66.58 32.6 66.4333 32.6533 66.22 32.68C66.0333 32.68 65.7533 32.68 65.38 32.68H53.1Z" fill="white"/>
<path d="M63.86 30.4V31.4H64.86V30.4H63.86ZM63.54 27.88L62.5631 28.0937L62.5663 28.1082L62.5699 28.1225L63.54 27.88ZM62.66 25.64L61.8038 26.1567L61.8079 26.1634L61.812 26.17L62.66 25.64ZM54.58 25.68L53.7328 25.1487L53.7249 25.1614L53.7173 25.1743L54.58 25.68ZM53.54 28.08L54.5003 28.3588L54.5003 28.3588L53.54 28.08ZM53.14 30.4L52.1407 30.363L52.1023 31.4H53.14V30.4ZM53.1 32.68V31.68H52.1308L52.1005 32.6488L53.1 32.68ZM53.54 35.48L52.5864 35.7811L52.5912 35.7964L52.5965 35.8115L53.54 35.48ZM54.94 37.92L54.2028 38.5957L54.21 38.6036L54.2174 38.6112L54.94 37.92ZM56.94 39.4L57.3872 38.5056L56.94 39.4ZM62.26 39.68L62.0328 38.7062L62.26 39.68ZM64.66 38.76L64.2754 37.8369L64.2314 37.8552L64.1894 37.8776L64.66 38.76ZM65.18 39.04H66.18V38.9984L66.1765 38.957L65.18 39.04ZM64.74 41.4L65.101 42.3326L65.1277 42.3222L65.1538 42.3104L64.74 41.4ZM62.3 42.12L62.1039 41.1394L62.0974 41.1407L62.3 42.12ZM52.66 39.52L51.9074 40.1785L51.912 40.1837L52.66 39.52ZM52.62 24.12L51.8559 23.4749L51.8385 23.4955L51.8223 23.5169L52.62 24.12ZM62.26 21.8L61.7829 22.6789L61.7932 22.6844L62.26 21.8ZM64.82 24.12L64.0077 24.7032L64.0131 24.7107L64.0186 24.7181L64.82 24.12ZM66.78 32.16L65.7901 32.0186L65.78 32.0889V32.16H66.78ZM66.66 32.52L67.3671 33.2271L67.3671 33.2271L66.66 32.52ZM66.22 32.68V33.68H66.2823L66.344 33.6723L66.22 32.68ZM64.86 30.4C64.86 29.4865 64.742 28.5651 64.5101 27.6375L62.5699 28.1225C62.7646 28.9016 62.86 29.6601 62.86 30.4H64.86ZM64.5169 27.6663C64.3095 26.7182 63.9775 25.8612 63.508 25.11L61.812 26.17C62.1425 26.6988 62.3972 27.3351 62.5631 28.0937L64.5169 27.6663ZM63.5162 25.1233C62.4112 23.2921 60.7614 22.32 58.66 22.32V24.32C60.0253 24.32 61.0422 24.8945 61.8038 26.1567L63.5162 25.1233ZM58.66 22.32C56.5539 22.32 54.8867 23.3088 53.7328 25.1487L55.4272 26.2113C56.2467 24.9046 57.2995 24.32 58.66 24.32V22.32ZM53.7173 25.1743C53.2239 26.016 52.8436 26.8919 52.5797 27.8012L54.5003 28.3588C54.7164 27.6147 55.0294 26.8907 55.4427 26.1857L53.7173 25.1743ZM52.5797 27.8012C52.3211 28.6918 52.1709 29.5471 52.1407 30.363L54.1393 30.437C54.1624 29.8129 54.2789 29.1215 54.5003 28.3588L52.5797 27.8012ZM53.14 31.4H63.86V29.4H53.14V31.4ZM52.1005 32.6488C52.0696 33.6384 52.2405 34.6856 52.5864 35.7811L54.4936 35.1789C54.1995 34.2477 54.0771 33.4283 54.0995 32.7112L52.1005 32.6488ZM52.5965 35.8115C52.979 36.9001 53.5082 37.8379 54.2028 38.5957L55.6772 37.2443C55.1985 36.7221 54.7943 36.0332 54.4835 35.1485L52.5965 35.8115ZM54.2174 38.6112C54.8821 39.3062 55.6416 39.8688 56.4928 40.2944L57.3872 38.5056C56.7451 38.1845 56.1712 37.7605 55.6626 37.2288L54.2174 38.6112ZM56.4928 40.2944C57.4114 40.7537 58.4799 40.96 59.66 40.96V38.96C58.7068 38.96 57.9619 38.7929 57.3872 38.5056L56.4928 40.2944ZM59.66 40.96C60.6597 40.96 61.6035 40.8601 62.4872 40.6538L62.0328 38.7062C61.3165 38.8733 60.527 38.96 59.66 38.96V40.96ZM62.4872 40.6538C63.3802 40.4455 64.2617 40.1058 65.1306 39.6424L64.1894 37.8776C63.4583 38.2675 62.7398 38.5412 62.0328 38.7062L62.4872 40.6538ZM65.0446 39.6831C65.0635 39.6752 65.0287 39.6931 64.9533 39.6992C64.872 39.7058 64.7213 39.6995 64.5559 39.6105C64.3845 39.5182 64.2833 39.3833 64.2323 39.2781C64.2087 39.2292 64.1968 39.1891 64.1909 39.1645C64.1849 39.1397 64.1836 39.1248 64.1835 39.123L66.1765 38.957C66.1533 38.6781 66.0402 38.1382 65.5041 37.8495C65.0063 37.5815 64.5117 37.7384 64.2754 37.8369L65.0446 39.6831ZM64.18 39.04V40.88H66.18V39.04H64.18ZM64.18 40.88C64.18 40.8161 64.1915 40.7464 64.2175 40.6778C64.2432 40.6101 64.2771 40.5589 64.3066 40.5241C64.3602 40.4608 64.3908 40.4603 64.3262 40.4896L65.1538 42.3104C65.5978 42.1086 66.18 41.6705 66.18 40.88H64.18ZM64.379 40.4674C63.6013 40.7685 62.8431 40.9916 62.1039 41.1394L62.4961 43.1006C63.3569 42.9284 64.2254 42.6715 65.101 42.3326L64.379 40.4674ZM62.0974 41.1407C61.4119 41.2826 60.5377 41.36 59.46 41.36V43.36C60.6223 43.36 61.6414 43.2774 62.5026 43.0993L62.0974 41.1407ZM59.46 41.36C56.8521 41.36 54.8729 40.5072 53.408 38.8563L51.912 40.1837C53.8071 42.3194 56.3612 43.36 59.46 43.36V41.36ZM53.4126 38.8615C51.9308 37.1681 51.14 34.8506 51.14 31.8H49.14C49.14 35.2027 50.0292 38.0319 51.9074 40.1785L53.4126 38.8615ZM51.14 31.8C51.14 29.0681 51.9051 26.7236 53.4177 24.7231L51.8223 23.5169C50.0282 25.8897 49.14 28.6652 49.14 31.8H51.14ZM53.3841 24.7651C54.9609 22.8972 56.7228 22.04 58.7 22.04V20.04C56.0372 20.04 53.7457 21.2362 51.8559 23.4749L53.3841 24.7651ZM58.7 22.04C60.0301 22.04 61.0389 22.2749 61.7829 22.6789L62.7371 20.9211C61.6145 20.3117 60.2499 20.04 58.7 20.04V22.04ZM61.7932 22.6844C62.5938 23.1069 63.3352 23.7665 64.0077 24.7032L65.6323 23.5368C64.8115 22.3935 63.8462 21.5064 62.7268 20.9156L61.7932 22.6844ZM64.0186 24.7181C65.1824 26.2776 65.82 28.4694 65.82 31.4H67.82C67.82 28.1972 67.1243 25.5357 65.6214 23.5219L64.0186 24.7181ZM65.82 31.4C65.82 31.7004 65.807 31.8999 65.7901 32.0186L67.7699 32.3014C67.8063 32.0468 67.82 31.7396 67.82 31.4H65.82ZM65.78 32.16C65.78 32.1597 65.7797 32.1186 65.8013 32.0538C65.8246 31.9841 65.8707 31.8951 65.9529 31.8129L67.3671 33.2271C67.7008 32.8934 67.78 32.4741 67.78 32.16H65.78ZM65.9529 31.8129C66.0476 31.7181 66.1333 31.6857 66.1483 31.6802C66.1661 31.6737 66.154 31.6805 66.096 31.6877L66.344 33.6723C66.607 33.6394 67.0406 33.5536 67.3671 33.2271L65.9529 31.8129ZM66.22 31.68C66.2196 31.68 66.2193 31.68 66.2189 31.68C66.2185 31.68 66.2182 31.68 66.2178 31.68C66.2174 31.68 66.2171 31.68 66.2167 31.68C66.2163 31.68 66.216 31.68 66.2156 31.68C66.2152 31.68 66.2149 31.68 66.2145 31.68C66.2141 31.68 66.2138 31.68 66.2134 31.68C66.213 31.68 66.2127 31.68 66.2123 31.68C66.2119 31.68 66.2116 31.68 66.2112 31.68C66.2108 31.68 66.2104 31.68 66.2101 31.68C66.2097 31.68 66.2093 31.68 66.209 31.68C66.2086 31.68 66.2082 31.68 66.2078 31.68C66.2075 31.68 66.2071 31.68 66.2067 31.68C66.2063 31.68 66.206 31.68 66.2056 31.68C66.2052 31.68 66.2049 31.68 66.2045 31.68C66.2041 31.68 66.2037 31.68 66.2034 31.68C66.203 31.68 66.2026 31.68 66.2022 31.68C66.2019 31.68 66.2015 31.68 66.2011 31.68C66.2007 31.68 66.2003 31.68 66.2 31.68C66.1996 31.68 66.1992 31.68 66.1988 31.68C66.1985 31.68 66.1981 31.68 66.1977 31.68C66.1973 31.68 66.1969 31.68 66.1966 31.68C66.1962 31.68 66.1958 31.68 66.1954 31.68C66.195 31.68 66.1947 31.68 66.1943 31.68C66.1939 31.68 66.1935 31.68 66.1931 31.68C66.1928 31.68 66.1924 31.68 66.192 31.68C66.1916 31.68 66.1912 31.68 66.1908 31.68C66.1905 31.68 66.1901 31.68 66.1897 31.68C66.1893 31.68 66.1889 31.68 66.1885 31.68C66.1882 31.68 66.1878 31.68 66.1874 31.68C66.187 31.68 66.1866 31.68 66.1862 31.68C66.1858 31.68 66.1855 31.68 66.1851 31.68C66.1847 31.68 66.1843 31.68 66.1839 31.68C66.1835 31.68 66.1831 31.68 66.1827 31.68C66.1824 31.68 66.182 31.68 66.1816 31.68C66.1812 31.68 66.1808 31.68 66.1804 31.68C66.18 31.68 66.1796 31.68 66.1792 31.68C66.1789 31.68 66.1785 31.68 66.1781 31.68C66.1777 31.68 66.1773 31.68 66.1769 31.68C66.1765 31.68 66.1761 31.68 66.1757 31.68C66.1753 31.68 66.1749 31.68 66.1745 31.68C66.1741 31.68 66.1738 31.68 66.1734 31.68C66.173 31.68 66.1726 31.68 66.1722 31.68C66.1718 31.68 66.1714 31.68 66.171 31.68C66.1706 31.68 66.1702 31.68 66.1698 31.68C66.1694 31.68 66.169 31.68 66.1686 31.68C66.1682 31.68 66.1678 31.68 66.1674 31.68C66.167 31.68 66.1666 31.68 66.1662 31.68C66.1658 31.68 66.1654 31.68 66.165 31.68C66.1646 31.68 66.1642 31.68 66.1638 31.68C66.1634 31.68 66.163 31.68 66.1626 31.68C66.1622 31.68 66.1618 31.68 66.1614 31.68C66.161 31.68 66.1606 31.68 66.1602 31.68C66.1598 31.68 66.1594 31.68 66.159 31.68C66.1586 31.68 66.1582 31.68 66.1578 31.68C66.1574 31.68 66.157 31.68 66.1566 31.68C66.1562 31.68 66.1558 31.68 66.1554 31.68C66.155 31.68 66.1546 31.68 66.1542 31.68C66.1538 31.68 66.1534 31.68 66.153 31.68C66.1526 31.68 66.1522 31.68 66.1518 31.68C66.1513 31.68 66.1509 31.68 66.1505 31.68C66.1501 31.68 66.1497 31.68 66.1493 31.68C66.1489 31.68 66.1485 31.68 66.1481 31.68C66.1477 31.68 66.1473 31.68 66.1469 31.68C66.1464 31.68 66.146 31.68 66.1456 31.68C66.1452 31.68 66.1448 31.68 66.1444 31.68C66.144 31.68 66.1436 31.68 66.1432 31.68C66.1427 31.68 66.1423 31.68 66.1419 31.68C66.1415 31.68 66.1411 31.68 66.1407 31.68C66.1403 31.68 66.1399 31.68 66.1394 31.68C66.139 31.68 66.1386 31.68 66.1382 31.68C66.1378 31.68 66.1374 31.68 66.137 31.68C66.1365 31.68 66.1361 31.68 66.1357 31.68C66.1353 31.68 66.1349 31.68 66.1345 31.68C66.134 31.68 66.1336 31.68 66.1332 31.68C66.1328 31.68 66.1324 31.68 66.132 31.68C66.1315 31.68 66.1311 31.68 66.1307 31.68C66.1303 31.68 66.1299 31.68 66.1294 31.68C66.129 31.68 66.1286 31.68 66.1282 31.68C66.1278 31.68 66.1273 31.68 66.1269 31.68C66.1265 31.68 66.1261 31.68 66.1257 31.68C66.1252 31.68 66.1248 31.68 66.1244 31.68C66.124 31.68 66.1236 31.68 66.1231 31.68C66.1227 31.68 66.1223 31.68 66.1219 31.68C66.1214 31.68 66.121 31.68 66.1206 31.68C66.1202 31.68 66.1197 31.68 66.1193 31.68C66.1189 31.68 66.1185 31.68 66.118 31.68C66.1176 31.68 66.1172 31.68 66.1168 31.68C66.1163 31.68 66.1159 31.68 66.1155 31.68C66.1151 31.68 66.1146 31.68 66.1142 31.68C66.1138 31.68 66.1133 31.68 66.1129 31.68C66.1125 31.68 66.1121 31.68 66.1116 31.68C66.1112 31.68 66.1108 31.68 66.1103 31.68C66.1099 31.68 66.1095 31.68 66.109 31.68C66.1086 31.68 66.1082 31.68 66.1078 31.68C66.1073 31.68 66.1069 31.68 66.1065 31.68C66.106 31.68 66.1056 31.68 66.1052 31.68C66.1047 31.68 66.1043 31.68 66.1039 31.68C66.1034 31.68 66.103 31.68 66.1026 31.68C66.1021 31.68 66.1017 31.68 66.1013 31.68C66.1008 31.68 66.1004 31.68 66.0999 31.68C66.0995 31.68 66.0991 31.68 66.0986 31.68C66.0982 31.68 66.0978 31.68 66.0973 31.68C66.0969 31.68 66.0965 31.68 66.096 31.68C66.0956 31.68 66.0951 31.68 66.0947 31.68C66.0943 31.68 66.0938 31.68 66.0934 31.68C66.0929 31.68 66.0925 31.68 66.0921 31.68C66.0916 31.68 66.0912 31.68 66.0907 31.68C66.0903 31.68 66.0899 31.68 66.0894 31.68C66.089 31.68 66.0885 31.68 66.0881 31.68C66.0876 31.68 66.0872 31.68 66.0868 31.68C66.0863 31.68 66.0859 31.68 66.0854 31.68C66.085 31.68 66.0845 31.68 66.0841 31.68C66.0837 31.68 66.0832 31.68 66.0828 31.68C66.0823 31.68 66.0819 31.68 66.0814 31.68C66.081 31.68 66.0805 31.68 66.0801 31.68C66.0796 31.68 66.0792 31.68 66.0788 31.68C66.0783 31.68 66.0779 31.68 66.0774 31.68C66.077 31.68 66.0765 31.68 66.0761 31.68C66.0756 31.68 66.0752 31.68 66.0747 31.68C66.0743 31.68 66.0738 31.68 66.0734 31.68C66.0729 31.68 66.0725 31.68 66.072 31.68C66.0716 31.68 66.0711 31.68 66.0707 31.68C66.0702 31.68 66.0698 31.68 66.0693 31.68C66.0689 31.68 66.0684 31.68 66.068 31.68C66.0675 31.68 66.067 31.68 66.0666 31.68C66.0661 31.68 66.0657 31.68 66.0652 31.68C66.0648 31.68 66.0643 31.68 66.0639 31.68C66.0634 31.68 66.063 31.68 66.0625 31.68C66.062 31.68 66.0616 31.68 66.0611 31.68C66.0607 31.68 66.0602 31.68 66.0598 31.68C66.0593 31.68 66.0588 31.68 66.0584 31.68C66.0579 31.68 66.0575 31.68 66.057 31.68C66.0566 31.68 66.0561 31.68 66.0556 31.68C66.0552 31.68 66.0547 31.68 66.0543 31.68C66.0538 31.68 66.0533 31.68 66.0529 31.68C66.0524 31.68 66.052 31.68 66.0515 31.68C66.051 31.68 66.0506 31.68 66.0501 31.68C66.0496 31.68 66.0492 31.68 66.0487 31.68C66.0483 31.68 66.0478 31.68 66.0473 31.68C66.0469 31.68 66.0464 31.68 66.0459 31.68C66.0455 31.68 66.045 31.68 66.0445 31.68C66.0441 31.68 66.0436 31.68 66.0432 31.68C66.0427 31.68 66.0422 31.68 66.0418 31.68C66.0413 31.68 66.0408 31.68 66.0404 31.68C66.0399 31.68 66.0394 31.68 66.0389 31.68C66.0385 31.68 66.038 31.68 66.0375 31.68C66.0371 31.68 66.0366 31.68 66.0361 31.68C66.0357 31.68 66.0352 31.68 66.0347 31.68C66.0343 31.68 66.0338 31.68 66.0333 31.68C66.0328 31.68 66.0324 31.68 66.0319 31.68C66.0314 31.68 66.031 31.68 66.0305 31.68C66.03 31.68 66.0295 31.68 66.0291 31.68C66.0286 31.68 66.0281 31.68 66.0277 31.68C66.0272 31.68 66.0267 31.68 66.0262 31.68C66.0258 31.68 66.0253 31.68 66.0248 31.68C66.0243 31.68 66.0239 31.68 66.0234 31.68C66.0229 31.68 66.0224 31.68 66.022 31.68C66.0215 31.68 66.021 31.68 66.0205 31.68C66.02 31.68 66.0196 31.68 66.0191 31.68C66.0186 31.68 66.0181 31.68 66.0177 31.68C66.0172 31.68 66.0167 31.68 66.0162 31.68C66.0157 31.68 66.0153 31.68 66.0148 31.68C66.0143 31.68 66.0138 31.68 66.0133 31.68C66.0129 31.68 66.0124 31.68 66.0119 31.68C66.0114 31.68 66.0109 31.68 66.0105 31.68C66.01 31.68 66.0095 31.68 66.009 31.68C66.0085 31.68 66.008 31.68 66.0076 31.68C66.0071 31.68 66.0066 31.68 66.0061 31.68C66.0056 31.68 66.0051 31.68 66.0047 31.68C66.0042 31.68 66.0037 31.68 66.0032 31.68C66.0027 31.68 66.0022 31.68 66.0017 31.68C66.0013 31.68 66.0008 31.68 66.0003 31.68C65.9998 31.68 65.9993 31.68 65.9988 31.68C65.9983 31.68 65.9978 31.68 65.9974 31.68C65.9969 31.68 65.9964 31.68 65.9959 31.68C65.9954 31.68 65.9949 31.68 65.9944 31.68C65.9939 31.68 65.9934 31.68 65.9929 31.68C65.9925 31.68 65.992 31.68 65.9915 31.68C65.991 31.68 65.9905 31.68 65.99 31.68C65.9895 31.68 65.989 31.68 65.9885 31.68C65.988 31.68 65.9875 31.68 65.987 31.68C65.9865 31.68 65.9861 31.68 65.9856 31.68C65.9851 31.68 65.9846 31.68 65.9841 31.68C65.9836 31.68 65.9831 31.68 65.9826 31.68C65.9821 31.68 65.9816 31.68 65.9811 31.68C65.9806 31.68 65.9801 31.68 65.9796 31.68C65.9791 31.68 65.9786 31.68 65.9781 31.68C65.9776 31.68 65.9771 31.68 65.9766 31.68C65.9761 31.68 65.9756 31.68 65.9751 31.68C65.9746 31.68 65.9741 31.68 65.9736 31.68C65.9731 31.68 65.9726 31.68 65.9721 31.68C65.9716 31.68 65.9711 31.68 65.9706 31.68C65.9701 31.68 65.9696 31.68 65.9691 31.68C65.9686 31.68 65.9681 31.68 65.9676 31.68C65.9671 31.68 65.9666 31.68 65.9661 31.68C65.9656 31.68 65.9651 31.68 65.9646 31.68C65.9641 31.68 65.9636 31.68 65.9631 31.68C65.9626 31.68 65.9621 31.68 65.9616 31.68C65.9611 31.68 65.9606 31.68 65.96 31.68C65.9595 31.68 65.959 31.68 65.9585 31.68C65.958 31.68 65.9575 31.68 65.957 31.68C65.9565 31.68 65.956 31.68 65.9555 31.68C65.955 31.68 65.9545 31.68 65.954 31.68C65.9534 31.68 65.9529 31.68 65.9524 31.68C65.9519 31.68 65.9514 31.68 65.9509 31.68C65.9504 31.68 65.9499 31.68 65.9494 31.68C65.9489 31.68 65.9483 31.68 65.9478 31.68C65.9473 31.68 65.9468 31.68 65.9463 31.68C65.9458 31.68 65.9453 31.68 65.9448 31.68C65.9442 31.68 65.9437 31.68 65.9432 31.68C65.9427 31.68 65.9422 31.68 65.9417 31.68C65.9412 31.68 65.9406 31.68 65.9401 31.68C65.9396 31.68 65.9391 31.68 65.9386 31.68C65.9381 31.68 65.9375 31.68 65.937 31.68C65.9365 31.68 65.936 31.68 65.9355 31.68C65.935 31.68 65.9344 31.68 65.9339 31.68C65.9334 31.68 65.9329 31.68 65.9324 31.68C65.9318 31.68 65.9313 31.68 65.9308 31.68C65.9303 31.68 65.9298 31.68 65.9292 31.68C65.9287 31.68 65.9282 31.68 65.9277 31.68C65.9272 31.68 65.9266 31.68 65.9261 31.68C65.9256 31.68 65.9251 31.68 65.9245 31.68C65.924 31.68 65.9235 31.68 65.923 31.68C65.9225 31.68 65.9219 31.68 65.9214 31.68C65.9209 31.68 65.9204 31.68 65.9198 31.68C65.9193 31.68 65.9188 31.68 65.9183 31.68C65.9177 31.68 65.9172 31.68 65.9167 31.68C65.9162 31.68 65.9156 31.68 65.9151 31.68C65.9146 31.68 65.914 31.68 65.9135 31.68C65.913 31.68 65.9125 31.68 65.9119 31.68C65.9114 31.68 65.9109 31.68 65.9103 31.68C65.9098 31.68 65.9093 31.68 65.9088 31.68C65.9082 31.68 65.9077 31.68 65.9072 31.68C65.9066 31.68 65.9061 31.68 65.9056 31.68C65.905 31.68 65.9045 31.68 65.904 31.68C65.9035 31.68 65.9029 31.68 65.9024 31.68C65.9019 31.68 65.9013 31.68 65.9008 31.68C65.9003 31.68 65.8997 31.68 65.8992 31.68C65.8987 31.68 65.8981 31.68 65.8976 31.68C65.897 31.68 65.8965 31.68 65.896 31.68C65.8954 31.68 65.8949 31.68 65.8944 31.68C65.8938 31.68 65.8933 31.68 65.8928 31.68C65.8922 31.68 65.8917 31.68 65.8911 31.68C65.8906 31.68 65.8901 31.68 65.8895 31.68C65.889 31.68 65.8885 31.68 65.8879 31.68C65.8874 31.68 65.8868 31.68 65.8863 31.68C65.8858 31.68 65.8852 31.68 65.8847 31.68C65.8841 31.68 65.8836 31.68 65.8831 31.68C65.8825 31.68 65.882 31.68 65.8814 31.68C65.8809 31.68 65.8803 31.68 65.8798 31.68C65.8793 31.68 65.8787 31.68 65.8782 31.68C65.8776 31.68 65.8771 31.68 65.8765 31.68C65.876 31.68 65.8755 31.68 65.8749 31.68C65.8744 31.68 65.8738 31.68 65.8733 31.68C65.8727 31.68 65.8722 31.68 65.8716 31.68C65.8711 31.68 65.8705 31.68 65.87 31.68C65.8695 31.68 65.8689 31.68 65.8684 31.68C65.8678 31.68 65.8673 31.68 65.8667 31.68C65.8662 31.68 65.8656 31.68 65.8651 31.68C65.8645 31.68 65.864 31.68 65.8634 31.68C65.8629 31.68 65.8623 31.68 65.8618 31.68C65.8612 31.68 65.8607 31.68 65.8601 31.68C65.8596 31.68 65.859 31.68 65.8585 31.68C65.8579 31.68 65.8574 31.68 65.8568 31.68C65.8563 31.68 65.8557 31.68 65.8551 31.68C65.8546 31.68 65.854 31.68 65.8535 31.68C65.8529 31.68 65.8524 31.68 65.8518 31.68C65.8513 31.68 65.8507 31.68 65.8502 31.68C65.8496 31.68 65.849 31.68 65.8485 31.68C65.8479 31.68 65.8474 31.68 65.8468 31.68C65.8463 31.68 65.8457 31.68 65.8452 31.68C65.8446 31.68 65.844 31.68 65.8435 31.68C65.8429 31.68 65.8424 31.68 65.8418 31.68C65.8412 31.68 65.8407 31.68 65.8401 31.68C65.8396 31.68 65.839 31.68 65.8384 31.68C65.8379 31.68 65.8373 31.68 65.8368 31.68C65.8362 31.68 65.8356 31.68 65.8351 31.68C65.8345 31.68 65.834 31.68 65.8334 31.68C65.8328 31.68 65.8323 31.68 65.8317 31.68C65.8311 31.68 65.8306 31.68 65.83 31.68C65.8294 31.68 65.8289 31.68 65.8283 31.68C65.8278 31.68 65.8272 31.68 65.8266 31.68C65.8261 31.68 65.8255 31.68 65.8249 31.68C65.8244 31.68 65.8238 31.68 65.8232 31.68C65.8227 31.68 65.8221 31.68 65.8215 31.68C65.821 31.68 65.8204 31.68 65.8198 31.68C65.8193 31.68 65.8187 31.68 65.8181 31.68C65.8175 31.68 65.817 31.68 65.8164 31.68C65.8158 31.68 65.8153 31.68 65.8147 31.68C65.8141 31.68 65.8136 31.68 65.813 31.68C65.8124 31.68 65.8118 31.68 65.8113 31.68C65.8107 31.68 65.8101 31.68 65.8096 31.68C65.809 31.68 65.8084 31.68 65.8078 31.68C65.8073 31.68 65.8067 31.68 65.8061 31.68C65.8055 31.68 65.805 31.68 65.8044 31.68C65.8038 31.68 65.8032 31.68 65.8027 31.68C65.8021 31.68 65.8015 31.68 65.8009 31.68C65.8004 31.68 65.7998 31.68 65.7992 31.68C65.7986 31.68 65.7981 31.68 65.7975 31.68C65.7969 31.68 65.7963 31.68 65.7957 31.68C65.7952 31.68 65.7946 31.68 65.794 31.68C65.7934 31.68 65.7929 31.68 65.7923 31.68C65.7917 31.68 65.7911 31.68 65.7905 31.68C65.79 31.68 65.7894 31.68 65.7888 31.68C65.7882 31.68 65.7876 31.68 65.787 31.68C65.7865 31.68 65.7859 31.68 65.7853 31.68C65.7847 31.68 65.7841 31.68 65.7836 31.68C65.783 31.68 65.7824 31.68 65.7818 31.68C65.7812 31.68 65.7806 31.68 65.78 31.68C65.7795 31.68 65.7789 31.68 65.7783 31.68C65.7777 31.68 65.7771 31.68 65.7765 31.68C65.7759 31.68 65.7754 31.68 65.7748 31.68C65.7742 31.68 65.7736 31.68 65.773 31.68C65.7724 31.68 65.7718 31.68 65.7713 31.68C65.7707 31.68 65.7701 31.68 65.7695 31.68C65.7689 31.68 65.7683 31.68 65.7677 31.68C65.7671 31.68 65.7665 31.68 65.7659 31.68C65.7654 31.68 65.7648 31.68 65.7642 31.68C65.7636 31.68 65.763 31.68 65.7624 31.68C65.7618 31.68 65.7612 31.68 65.7606 31.68C65.76 31.68 65.7594 31.68 65.7588 31.68C65.7583 31.68 65.7577 31.68 65.7571 31.68C65.7565 31.68 65.7559 31.68 65.7553 31.68C65.7547 31.68 65.7541 31.68 65.7535 31.68C65.7529 31.68 65.7523 31.68 65.7517 31.68C65.7511 31.68 65.7505 31.68 65.7499 31.68C65.7493 31.68 65.7487 31.68 65.7481 31.68C65.7475 31.68 65.7469 31.68 65.7463 31.68C65.7457 31.68 65.7451 31.68 65.7445 31.68C65.7439 31.68 65.7433 31.68 65.7427 31.68C65.7421 31.68 65.7415 31.68 65.7409 31.68C65.7403 31.68 65.7397 31.68 65.7391 31.68C65.7385 31.68 65.7379 31.68 65.7373 31.68C65.7367 31.68 65.7361 31.68 65.7355 31.68C65.7349 31.68 65.7343 31.68 65.7337 31.68C65.7331 31.68 65.7325 31.68 65.7319 31.68C65.7313 31.68 65.7307 31.68 65.7301 31.68C65.7295 31.68 65.7289 31.68 65.7283 31.68C65.7277 31.68 65.7271 31.68 65.7265 31.68C65.7259 31.68 65.7253 31.68 65.7247 31.68C65.724 31.68 65.7234 31.68 65.7228 31.68C65.7222 31.68 65.7216 31.68 65.721 31.68C65.7204 31.68 65.7198 31.68 65.7192 31.68C65.7186 31.68 65.718 31.68 65.7174 31.68C65.7167 31.68 65.7161 31.68 65.7155 31.68C65.7149 31.68 65.7143 31.68 65.7137 31.68C65.7131 31.68 65.7125 31.68 65.7119 31.68C65.7112 31.68 65.7106 31.68 65.71 31.68C65.7094 31.68 65.7088 31.68 65.7082 31.68C65.7076 31.68 65.707 31.68 65.7063 31.68C65.7057 31.68 65.7051 31.68 65.7045 31.68C65.7039 31.68 65.7033 31.68 65.7027 31.68C65.702 31.68 65.7014 31.68 65.7008 31.68C65.7002 31.68 65.6996 31.68 65.699 31.68C65.6983 31.68 65.6977 31.68 65.6971 31.68C65.6965 31.68 65.6959 31.68 65.6953 31.68C65.6946 31.68 65.694 31.68 65.6934 31.68C65.6928 31.68 65.6922 31.68 65.6915 31.68C65.6909 31.68 65.6903 31.68 65.6897 31.68C65.6891 31.68 65.6884 31.68 65.6878 31.68C65.6872 31.68 65.6866 31.68 65.686 31.68C65.6853 31.68 65.6847 31.68 65.6841 31.68C65.6835 31.68 65.6828 31.68 65.6822 31.68C65.6816 31.68 65.681 31.68 65.6804 31.68C65.6797 31.68 65.6791 31.68 65.6785 31.68C65.6779 31.68 65.6772 31.68 65.6766 31.68C65.676 31.68 65.6754 31.68 65.6747 31.68C65.6741 31.68 65.6735 31.68 65.6729 31.68C65.6722 31.68 65.6716 31.68 65.671 31.68C65.6703 31.68 65.6697 31.68 65.6691 31.68C65.6685 31.68 65.6678 31.68 65.6672 31.68C65.6666 31.68 65.6659 31.68 65.6653 31.68C65.6647 31.68 65.6641 31.68 65.6634 31.68C65.6628 31.68 65.6622 31.68 65.6615 31.68C65.6609 31.68 65.6603 31.68 65.6596 31.68C65.659 31.68 65.6584 31.68 65.6577 31.68C65.6571 31.68 65.6565 31.68 65.6558 31.68C65.6552 31.68 65.6546 31.68 65.6539 31.68C65.6533 31.68 65.6527 31.68 65.652 31.68C65.6514 31.68 65.6508 31.68 65.6501 31.68C65.6495 31.68 65.6489 31.68 65.6482 31.68C65.6476 31.68 65.647 31.68 65.6463 31.68C65.6457 31.68 65.6451 31.68 65.6444 31.68C65.6438 31.68 65.6431 31.68 65.6425 31.68C65.6419 31.68 65.6412 31.68 65.6406 31.68C65.6399 31.68 65.6393 31.68 65.6387 31.68C65.638 31.68 65.6374 31.68 65.6367 31.68C65.6361 31.68 65.6355 31.68 65.6348 31.68C65.6342 31.68 65.6335 31.68 65.6329 31.68C65.6323 31.68 65.6316 31.68 65.631 31.68C65.6303 31.68 65.6297 31.68 65.6291 31.68C65.6284 31.68 65.6278 31.68 65.6271 31.68C65.6265 31.68 65.6258 31.68 65.6252 31.68C65.6245 31.68 65.6239 31.68 65.6233 31.68C65.6226 31.68 65.622 31.68 65.6213 31.68C65.6207 31.68 65.62 31.68 65.6194 31.68C65.6187 31.68 65.6181 31.68 65.6174 31.68C65.6168 31.68 65.6161 31.68 65.6155 31.68C65.6148 31.68 65.6142 31.68 65.6135 31.68C65.6129 31.68 65.6123 31.68 65.6116 31.68C65.611 31.68 65.6103 31.68 65.6097 31.68C65.609 31.68 65.6084 31.68 65.6077 31.68C65.6071 31.68 65.6064 31.68 65.6057 31.68C65.6051 31.68 65.6044 31.68 65.6038 31.68C65.6031 31.68 65.6025 31.68 65.6018 31.68C65.6012 31.68 65.6005 31.68 65.5999 31.68C65.5992 31.68 65.5986 31.68 65.5979 31.68C65.5973 31.68 65.5966 31.68 65.5959 31.68C65.5953 31.68 65.5946 31.68 65.594 31.68C65.5933 31.68 65.5927 31.68 65.592 31.68C65.5914 31.68 65.5907 31.68 65.59 31.68C65.5894 31.68 65.5887 31.68 65.5881 31.68C65.5874 31.68 65.5868 31.68 65.5861 31.68C65.5854 31.68 65.5848 31.68 65.5841 31.68C65.5835 31.68 65.5828 31.68 65.5821 31.68C65.5815 31.68 65.5808 31.68 65.5802 31.68C65.5795 31.68 65.5788 31.68 65.5782 31.68C65.5775 31.68 65.5769 31.68 65.5762 31.68C65.5755 31.68 65.5749 31.68 65.5742 31.68C65.5735 31.68 65.5729 31.68 65.5722 31.68C65.5715 31.68 65.5709 31.68 65.5702 31.68C65.5696 31.68 65.5689 31.68 65.5682 31.68C65.5676 31.68 65.5669 31.68 65.5662 31.68C65.5656 31.68 65.5649 31.68 65.5642 31.68C65.5636 31.68 65.5629 31.68 65.5622 31.68C65.5616 31.68 65.5609 31.68 65.5602 31.68C65.5596 31.68 65.5589 31.68 65.5582 31.68C65.5576 31.68 65.5569 31.68 65.5562 31.68C65.5555 31.68 65.5549 31.68 65.5542 31.68C65.5535 31.68 65.5529 31.68 65.5522 31.68C65.5515 31.68 65.5509 31.68 65.5502 31.68C65.5495 31.68 65.5488 31.68 65.5482 31.68C65.5475 31.68 65.5468 31.68 65.5461 31.68C65.5455 31.68 65.5448 31.68 65.5441 31.68C65.5435 31.68 65.5428 31.68 65.5421 31.68C65.5414 31.68 65.5408 31.68 65.5401 31.68C65.5394 31.68 65.5387 31.68 65.5381 31.68C65.5374 31.68 65.5367 31.68 65.536 31.68C65.5354 31.68 65.5347 31.68 65.534 31.68C65.5333 31.68 65.5326 31.68 65.532 31.68C65.5313 31.68 65.5306 31.68 65.5299 31.68C65.5293 31.68 65.5286 31.68 65.5279 31.68C65.5272 31.68 65.5265 31.68 65.5259 31.68C65.5252 31.68 65.5245 31.68 65.5238 31.68C65.5231 31.68 65.5225 31.68 65.5218 31.68C65.5211 31.68 65.5204 31.68 65.5197 31.68C65.519 31.68 65.5184 31.68 65.5177 31.68C65.517 31.68 65.5163 31.68 65.5156 31.68C65.5149 31.68 65.5143 31.68 65.5136 31.68C65.5129 31.68 65.5122 31.68 65.5115 31.68C65.5108 31.68 65.5101 31.68 65.5095 31.68C65.5088 31.68 65.5081 31.68 65.5074 31.68C65.5067 31.68 65.506 31.68 65.5053 31.68C65.5047 31.68 65.504 31.68 65.5033 31.68C65.5026 31.68 65.5019 31.68 65.5012 31.68C65.5005 31.68 65.4998 31.68 65.4992 31.68C65.4985 31.68 65.4978 31.68 65.4971 31.68C65.4964 31.68 65.4957 31.68 65.495 31.68C65.4943 31.68 65.4936 31.68 65.4929 31.68C65.4922 31.68 65.4916 31.68 65.4909 31.68C65.4902 31.68 65.4895 31.68 65.4888 31.68C65.4881 31.68 65.4874 31.68 65.4867 31.68C65.486 31.68 65.4853 31.68 65.4846 31.68C65.4839 31.68 65.4832 31.68 65.4825 31.68C65.4818 31.68 65.4811 31.68 65.4805 31.68C65.4798 31.68 65.4791 31.68 65.4784 31.68C65.4777 31.68 65.477 31.68 65.4763 31.68C65.4756 31.68 65.4749 31.68 65.4742 31.68C65.4735 31.68 65.4728 31.68 65.4721 31.68C65.4714 31.68 65.4707 31.68 65.47 31.68C65.4693 31.68 65.4686 31.68 65.4679 31.68C65.4672 31.68 65.4665 31.68 65.4658 31.68C65.4651 31.68 65.4644 31.68 65.4637 31.68C65.463 31.68 65.4623 31.68 65.4616 31.68C65.4609 31.68 65.4602 31.68 65.4595 31.68C65.4588 31.68 65.4581 31.68 65.4574 31.68C65.4567 31.68 65.456 31.68 65.4553 31.68C65.4546 31.68 65.4538 31.68 65.4531 31.68C65.4524 31.68 65.4517 31.68 65.451 31.68C65.4503 31.68 65.4496 31.68 65.4489 31.68C65.4482 31.68 65.4475 31.68 65.4468 31.68C65.4461 31.68 65.4454 31.68 65.4447 31.68C65.444 31.68 65.4432 31.68 65.4425 31.68C65.4418 31.68 65.4411 31.68 65.4404 31.68C65.4397 31.68 65.439 31.68 65.4383 31.68C65.4376 31.68 65.4369 31.68 65.4362 31.68C65.4354 31.68 65.4347 31.68 65.434 31.68C65.4333 31.68 65.4326 31.68 65.4319 31.68C65.4312 31.68 65.4305 31.68 65.4297 31.68C65.429 31.68 65.4283 31.68 65.4276 31.68C65.4269 31.68 65.4262 31.68 65.4255 31.68C65.4248 31.68 65.424 31.68 65.4233 31.68C65.4226 31.68 65.4219 31.68 65.4212 31.68C65.4205 31.68 65.4197 31.68 65.419 31.68C65.4183 31.68 65.4176 31.68 65.4169 31.68C65.4162 31.68 65.4154 31.68 65.4147 31.68C65.414 31.68 65.4133 31.68 65.4126 31.68C65.4119 31.68 65.4111 31.68 65.4104 31.68C65.4097 31.68 65.409 31.68 65.4083 31.68C65.4075 31.68 65.4068 31.68 65.4061 31.68C65.4054 31.68 65.4047 31.68 65.4039 31.68C65.4032 31.68 65.4025 31.68 65.4018 31.68C65.401 31.68 65.4003 31.68 65.3996 31.68C65.3989 31.68 65.3982 31.68 65.3974 31.68C65.3967 31.68 65.396 31.68 65.3953 31.68C65.3945 31.68 65.3938 31.68 65.3931 31.68C65.3924 31.68 65.3916 31.68 65.3909 31.68C65.3902 31.68 65.3895 31.68 65.3887 31.68C65.388 31.68 65.3873 31.68 65.3866 31.68C65.3858 31.68 65.3851 31.68 65.3844 31.68C65.3836 31.68 65.3829 31.68 65.3822 31.68C65.3815 31.68 65.3807 31.68 65.38 31.68V33.68C65.3807 33.68 65.3815 33.68 65.3822 33.68C65.3829 33.68 65.3836 33.68 65.3844 33.68C65.3851 33.68 65.3858 33.68 65.3866 33.68C65.3873 33.68 65.388 33.68 65.3887 33.68C65.3895 33.68 65.3902 33.68 65.3909 33.68C65.3916 33.68 65.3924 33.68 65.3931 33.68C65.3938 33.68 65.3945 33.68 65.3953 33.68C65.396 33.68 65.3967 33.68 65.3974 33.68C65.3982 33.68 65.3989 33.68 65.3996 33.68C65.4003 33.68 65.401 33.68 65.4018 33.68C65.4025 33.68 65.4032 33.68 65.4039 33.68C65.4047 33.68 65.4054 33.68 65.4061 33.68C65.4068 33.68 65.4075 33.68 65.4083 33.68C65.409 33.68 65.4097 33.68 65.4104 33.68C65.4111 33.68 65.4119 33.68 65.4126 33.68C65.4133 33.68 65.414 33.68 65.4147 33.68C65.4154 33.68 65.4162 33.68 65.4169 33.68C65.4176 33.68 65.4183 33.68 65.419 33.68C65.4197 33.68 65.4205 33.68 65.4212 33.68C65.4219 33.68 65.4226 33.68 65.4233 33.68C65.424 33.68 65.4248 33.68 65.4255 33.68C65.4262 33.68 65.4269 33.68 65.4276 33.68C65.4283 33.68 65.429 33.68 65.4297 33.68C65.4305 33.68 65.4312 33.68 65.4319 33.68C65.4326 33.68 65.4333 33.68 65.434 33.68C65.4347 33.68 65.4354 33.68 65.4362 33.68C65.4369 33.68 65.4376 33.68 65.4383 33.68C65.439 33.68 65.4397 33.68 65.4404 33.68C65.4411 33.68 65.4418 33.68 65.4425 33.68C65.4432 33.68 65.444 33.68 65.4447 33.68C65.4454 33.68 65.4461 33.68 65.4468 33.68C65.4475 33.68 65.4482 33.68 65.4489 33.68C65.4496 33.68 65.4503 33.68 65.451 33.68C65.4517 33.68 65.4524 33.68 65.4531 33.68C65.4538 33.68 65.4546 33.68 65.4553 33.68C65.456 33.68 65.4567 33.68 65.4574 33.68C65.4581 33.68 65.4588 33.68 65.4595 33.68C65.4602 33.68 65.4609 33.68 65.4616 33.68C65.4623 33.68 65.463 33.68 65.4637 33.68C65.4644 33.68 65.4651 33.68 65.4658 33.68C65.4665 33.68 65.4672 33.68 65.4679 33.68C65.4686 33.68 65.4693 33.68 65.47 33.68C65.4707 33.68 65.4714 33.68 65.4721 33.68C65.4728 33.68 65.4735 33.68 65.4742 33.68C65.4749 33.68 65.4756 33.68 65.4763 33.68C65.477 33.68 65.4777 33.68 65.4784 33.68C65.4791 33.68 65.4798 33.68 65.4805 33.68C65.4811 33.68 65.4818 33.68 65.4825 33.68C65.4832 33.68 65.4839 33.68 65.4846 33.68C65.4853 33.68 65.486 33.68 65.4867 33.68C65.4874 33.68 65.4881 33.68 65.4888 33.68C65.4895 33.68 65.4902 33.68 65.4909 33.68C65.4916 33.68 65.4922 33.68 65.4929 33.68C65.4936 33.68 65.4943 33.68 65.495 33.68C65.4957 33.68 65.4964 33.68 65.4971 33.68C65.4978 33.68 65.4985 33.68 65.4992 33.68C65.4998 33.68 65.5005 33.68 65.5012 33.68C65.5019 33.68 65.5026 33.68 65.5033 33.68C65.504 33.68 65.5047 33.68 65.5053 33.68C65.506 33.68 65.5067 33.68 65.5074 33.68C65.5081 33.68 65.5088 33.68 65.5095 33.68C65.5101 33.68 65.5108 33.68 65.5115 33.68C65.5122 33.68 65.5129 33.68 65.5136 33.68C65.5143 33.68 65.5149 33.68 65.5156 33.68C65.5163 33.68 65.517 33.68 65.5177 33.68C65.5184 33.68 65.519 33.68 65.5197 33.68C65.5204 33.68 65.5211 33.68 65.5218 33.68C65.5225 33.68 65.5231 33.68 65.5238 33.68C65.5245 33.68 65.5252 33.68 65.5259 33.68C65.5265 33.68 65.5272 33.68 65.5279 33.68C65.5286 33.68 65.5293 33.68 65.5299 33.68C65.5306 33.68 65.5313 33.68 65.532 33.68C65.5326 33.68 65.5333 33.68 65.534 33.68C65.5347 33.68 65.5354 33.68 65.536 33.68C65.5367 33.68 65.5374 33.68 65.5381 33.68C65.5387 33.68 65.5394 33.68 65.5401 33.68C65.5408 33.68 65.5414 33.68 65.5421 33.68C65.5428 33.68 65.5435 33.68 65.5441 33.68C65.5448 33.68 65.5455 33.68 65.5461 33.68C65.5468 33.68 65.5475 33.68 65.5482 33.68C65.5488 33.68 65.5495 33.68 65.5502 33.68C65.5509 33.68 65.5515 33.68 65.5522 33.68C65.5529 33.68 65.5535 33.68 65.5542 33.68C65.5549 33.68 65.5555 33.68 65.5562 33.68C65.5569 33.68 65.5576 33.68 65.5582 33.68C65.5589 33.68 65.5596 33.68 65.5602 33.68C65.5609 33.68 65.5616 33.68 65.5622 33.68C65.5629 33.68 65.5636 33.68 65.5642 33.68C65.5649 33.68 65.5656 33.68 65.5662 33.68C65.5669 33.68 65.5676 33.68 65.5682 33.68C65.5689 33.68 65.5696 33.68 65.5702 33.68C65.5709 33.68 65.5715 33.68 65.5722 33.68C65.5729 33.68 65.5735 33.68 65.5742 33.68C65.5749 33.68 65.5755 33.68 65.5762 33.68C65.5769 33.68 65.5775 33.68 65.5782 33.68C65.5788 33.68 65.5795 33.68 65.5802 33.68C65.5808 33.68 65.5815 33.68 65.5821 33.68C65.5828 33.68 65.5835 33.68 65.5841 33.68C65.5848 33.68 65.5854 33.68 65.5861 33.68C65.5868 33.68 65.5874 33.68 65.5881 33.68C65.5887 33.68 65.5894 33.68 65.59 33.68C65.5907 33.68 65.5914 33.68 65.592 33.68C65.5927 33.68 65.5933 33.68 65.594 33.68C65.5946 33.68 65.5953 33.68 65.5959 33.68C65.5966 33.68 65.5973 33.68 65.5979 33.68C65.5986 33.68 65.5992 33.68 65.5999 33.68C65.6005 33.68 65.6012 33.68 65.6018 33.68C65.6025 33.68 65.6031 33.68 65.6038 33.68C65.6044 33.68 65.6051 33.68 65.6057 33.68C65.6064 33.68 65.6071 33.68 65.6077 33.68C65.6084 33.68 65.609 33.68 65.6097 33.68C65.6103 33.68 65.611 33.68 65.6116 33.68C65.6123 33.68 65.6129 33.68 65.6135 33.68C65.6142 33.68 65.6148 33.68 65.6155 33.68C65.6161 33.68 65.6168 33.68 65.6174 33.68C65.6181 33.68 65.6187 33.68 65.6194 33.68C65.62 33.68 65.6207 33.68 65.6213 33.68C65.622 33.68 65.6226 33.68 65.6233 33.68C65.6239 33.68 65.6245 33.68 65.6252 33.68C65.6258 33.68 65.6265 33.68 65.6271 33.68C65.6278 33.68 65.6284 33.68 65.6291 33.68C65.6297 33.68 65.6303 33.68 65.631 33.68C65.6316 33.68 65.6323 33.68 65.6329 33.68C65.6335 33.68 65.6342 33.68 65.6348 33.68C65.6355 33.68 65.6361 33.68 65.6367 33.68C65.6374 33.68 65.638 33.68 65.6387 33.68C65.6393 33.68 65.6399 33.68 65.6406 33.68C65.6412 33.68 65.6419 33.68 65.6425 33.68C65.6431 33.68 65.6438 33.68 65.6444 33.68C65.6451 33.68 65.6457 33.68 65.6463 33.68C65.647 33.68 65.6476 33.68 65.6482 33.68C65.6489 33.68 65.6495 33.68 65.6501 33.68C65.6508 33.68 65.6514 33.68 65.652 33.68C65.6527 33.68 65.6533 33.68 65.6539 33.68C65.6546 33.68 65.6552 33.68 65.6558 33.68C65.6565 33.68 65.6571 33.68 65.6577 33.68C65.6584 33.68 65.659 33.68 65.6596 33.68C65.6603 33.68 65.6609 33.68 65.6615 33.68C65.6622 33.68 65.6628 33.68 65.6634 33.68C65.6641 33.68 65.6647 33.68 65.6653 33.68C65.6659 33.68 65.6666 33.68 65.6672 33.68C65.6678 33.68 65.6685 33.68 65.6691 33.68C65.6697 33.68 65.6703 33.68 65.671 33.68C65.6716 33.68 65.6722 33.68 65.6729 33.68C65.6735 33.68 65.6741 33.68 65.6747 33.68C65.6754 33.68 65.676 33.68 65.6766 33.68C65.6772 33.68 65.6779 33.68 65.6785 33.68C65.6791 33.68 65.6797 33.68 65.6804 33.68C65.681 33.68 65.6816 33.68 65.6822 33.68C65.6828 33.68 65.6835 33.68 65.6841 33.68C65.6847 33.68 65.6853 33.68 65.686 33.68C65.6866 33.68 65.6872 33.68 65.6878 33.68C65.6884 33.68 65.6891 33.68 65.6897 33.68C65.6903 33.68 65.6909 33.68 65.6915 33.68C65.6922 33.68 65.6928 33.68 65.6934 33.68C65.694 33.68 65.6946 33.68 65.6953 33.68C65.6959 33.68 65.6965 33.68 65.6971 33.68C65.6977 33.68 65.6983 33.68 65.699 33.68C65.6996 33.68 65.7002 33.68 65.7008 33.68C65.7014 33.68 65.702 33.68 65.7027 33.68C65.7033 33.68 65.7039 33.68 65.7045 33.68C65.7051 33.68 65.7057 33.68 65.7063 33.68C65.707 33.68 65.7076 33.68 65.7082 33.68C65.7088 33.68 65.7094 33.68 65.71 33.68C65.7106 33.68 65.7112 33.68 65.7119 33.68C65.7125 33.68 65.7131 33.68 65.7137 33.68C65.7143 33.68 65.7149 33.68 65.7155 33.68C65.7161 33.68 65.7167 33.68 65.7174 33.68C65.718 33.68 65.7186 33.68 65.7192 33.68C65.7198 33.68 65.7204 33.68 65.721 33.68C65.7216 33.68 65.7222 33.68 65.7228 33.68C65.7234 33.68 65.724 33.68 65.7247 33.68C65.7253 33.68 65.7259 33.68 65.7265 33.68C65.7271 33.68 65.7277 33.68 65.7283 33.68C65.7289 33.68 65.7295 33.68 65.7301 33.68C65.7307 33.68 65.7313 33.68 65.7319 33.68C65.7325 33.68 65.7331 33.68 65.7337 33.68C65.7343 33.68 65.7349 33.68 65.7355 33.68C65.7361 33.68 65.7367 33.68 65.7373 33.68C65.7379 33.68 65.7385 33.68 65.7391 33.68C65.7397 33.68 65.7403 33.68 65.7409 33.68C65.7415 33.68 65.7421 33.68 65.7427 33.68C65.7433 33.68 65.7439 33.68 65.7445 33.68C65.7451 33.68 65.7457 33.68 65.7463 33.68C65.7469 33.68 65.7475 33.68 65.7481 33.68C65.7487 33.68 65.7493 33.68 65.7499 33.68C65.7505 33.68 65.7511 33.68 65.7517 33.68C65.7523 33.68 65.7529 33.68 65.7535 33.68C65.7541 33.68 65.7547 33.68 65.7553 33.68C65.7559 33.68 65.7565 33.68 65.7571 33.68C65.7577 33.68 65.7583 33.68 65.7588 33.68C65.7594 33.68 65.76 33.68 65.7606 33.68C65.7612 33.68 65.7618 33.68 65.7624 33.68C65.763 33.68 65.7636 33.68 65.7642 33.68C65.7648 33.68 65.7654 33.68 65.7659 33.68C65.7665 33.68 65.7671 33.68 65.7677 33.68C65.7683 33.68 65.7689 33.68 65.7695 33.68C65.7701 33.68 65.7707 33.68 65.7713 33.68C65.7718 33.68 65.7724 33.68 65.773 33.68C65.7736 33.68 65.7742 33.68 65.7748 33.68C65.7754 33.68 65.7759 33.68 65.7765 33.68C65.7771 33.68 65.7777 33.68 65.7783 33.68C65.7789 33.68 65.7795 33.68 65.78 33.68C65.7806 33.68 65.7812 33.68 65.7818 33.68C65.7824 33.68 65.783 33.68 65.7836 33.68C65.7841 33.68 65.7847 33.68 65.7853 33.68C65.7859 33.68 65.7865 33.68 65.787 33.68C65.7876 33.68 65.7882 33.68 65.7888 33.68C65.7894 33.68 65.79 33.68 65.7905 33.68C65.7911 33.68 65.7917 33.68 65.7923 33.68C65.7929 33.68 65.7934 33.68 65.794 33.68C65.7946 33.68 65.7952 33.68 65.7957 33.68C65.7963 33.68 65.7969 33.68 65.7975 33.68C65.7981 33.68 65.7986 33.68 65.7992 33.68C65.7998 33.68 65.8004 33.68 65.8009 33.68C65.8015 33.68 65.8021 33.68 65.8027 33.68C65.8032 33.68 65.8038 33.68 65.8044 33.68C65.805 33.68 65.8055 33.68 65.8061 33.68C65.8067 33.68 65.8073 33.68 65.8078 33.68C65.8084 33.68 65.809 33.68 65.8096 33.68C65.8101 33.68 65.8107 33.68 65.8113 33.68C65.8118 33.68 65.8124 33.68 65.813 33.68C65.8136 33.68 65.8141 33.68 65.8147 33.68C65.8153 33.68 65.8158 33.68 65.8164 33.68C65.817 33.68 65.8175 33.68 65.8181 33.68C65.8187 33.68 65.8193 33.68 65.8198 33.68C65.8204 33.68 65.821 33.68 65.8215 33.68C65.8221 33.68 65.8227 33.68 65.8232 33.68C65.8238 33.68 65.8244 33.68 65.8249 33.68C65.8255 33.68 65.8261 33.68 65.8266 33.68C65.8272 33.68 65.8278 33.68 65.8283 33.68C65.8289 33.68 65.8294 33.68 65.83 33.68C65.8306 33.68 65.8311 33.68 65.8317 33.68C65.8323 33.68 65.8328 33.68 65.8334 33.68C65.834 33.68 65.8345 33.68 65.8351 33.68C65.8356 33.68 65.8362 33.68 65.8368 33.68C65.8373 33.68 65.8379 33.68 65.8384 33.68C65.839 33.68 65.8396 33.68 65.8401 33.68C65.8407 33.68 65.8412 33.68 65.8418 33.68C65.8424 33.68 65.8429 33.68 65.8435 33.68C65.844 33.68 65.8446 33.68 65.8452 33.68C65.8457 33.68 65.8463 33.68 65.8468 33.68C65.8474 33.68 65.8479 33.68 65.8485 33.68C65.849 33.68 65.8496 33.68 65.8502 33.68C65.8507 33.68 65.8513 33.68 65.8518 33.68C65.8524 33.68 65.8529 33.68 65.8535 33.68C65.854 33.68 65.8546 33.68 65.8551 33.68C65.8557 33.68 65.8563 33.68 65.8568 33.68C65.8574 33.68 65.8579 33.68 65.8585 33.68C65.859 33.68 65.8596 33.68 65.8601 33.68C65.8607 33.68 65.8612 33.68 65.8618 33.68C65.8623 33.68 65.8629 33.68 65.8634 33.68C65.864 33.68 65.8645 33.68 65.8651 33.68C65.8656 33.68 65.8662 33.68 65.8667 33.68C65.8673 33.68 65.8678 33.68 65.8684 33.68C65.8689 33.68 65.8695 33.68 65.87 33.68C65.8705 33.68 65.8711 33.68 65.8716 33.68C65.8722 33.68 65.8727 33.68 65.8733 33.68C65.8738 33.68 65.8744 33.68 65.8749 33.68C65.8755 33.68 65.876 33.68 65.8765 33.68C65.8771 33.68 65.8776 33.68 65.8782 33.68C65.8787 33.68 65.8793 33.68 65.8798 33.68C65.8803 33.68 65.8809 33.68 65.8814 33.68C65.882 33.68 65.8825 33.68 65.8831 33.68C65.8836 33.68 65.8841 33.68 65.8847 33.68C65.8852 33.68 65.8858 33.68 65.8863 33.68C65.8868 33.68 65.8874 33.68 65.8879 33.68C65.8885 33.68 65.889 33.68 65.8895 33.68C65.8901 33.68 65.8906 33.68 65.8911 33.68C65.8917 33.68 65.8922 33.68 65.8928 33.68C65.8933 33.68 65.8938 33.68 65.8944 33.68C65.8949 33.68 65.8954 33.68 65.896 33.68C65.8965 33.68 65.897 33.68 65.8976 33.68C65.8981 33.68 65.8987 33.68 65.8992 33.68C65.8997 33.68 65.9003 33.68 65.9008 33.68C65.9013 33.68 65.9019 33.68 65.9024 33.68C65.9029 33.68 65.9035 33.68 65.904 33.68C65.9045 33.68 65.905 33.68 65.9056 33.68C65.9061 33.68 65.9066 33.68 65.9072 33.68C65.9077 33.68 65.9082 33.68 65.9088 33.68C65.9093 33.68 65.9098 33.68 65.9103 33.68C65.9109 33.68 65.9114 33.68 65.9119 33.68C65.9125 33.68 65.913 33.68 65.9135 33.68C65.914 33.68 65.9146 33.68 65.9151 33.68C65.9156 33.68 65.9162 33.68 65.9167 33.68C65.9172 33.68 65.9177 33.68 65.9183 33.68C65.9188 33.68 65.9193 33.68 65.9198 33.68C65.9204 33.68 65.9209 33.68 65.9214 33.68C65.9219 33.68 65.9225 33.68 65.923 33.68C65.9235 33.68 65.924 33.68 65.9245 33.68C65.9251 33.68 65.9256 33.68 65.9261 33.68C65.9266 33.68 65.9272 33.68 65.9277 33.68C65.9282 33.68 65.9287 33.68 65.9292 33.68C65.9298 33.68 65.9303 33.68 65.9308 33.68C65.9313 33.68 65.9318 33.68 65.9324 33.68C65.9329 33.68 65.9334 33.68 65.9339 33.68C65.9344 33.68 65.935 33.68 65.9355 33.68C65.936 33.68 65.9365 33.68 65.937 33.68C65.9375 33.68 65.9381 33.68 65.9386 33.68C65.9391 33.68 65.9396 33.68 65.9401 33.68C65.9406 33.68 65.9412 33.68 65.9417 33.68C65.9422 33.68 65.9427 33.68 65.9432 33.68C65.9437 33.68 65.9442 33.68 65.9448 33.68C65.9453 33.68 65.9458 33.68 65.9463 33.68C65.9468 33.68 65.9473 33.68 65.9478 33.68C65.9483 33.68 65.9489 33.68 65.9494 33.68C65.9499 33.68 65.9504 33.68 65.9509 33.68C65.9514 33.68 65.9519 33.68 65.9524 33.68C65.9529 33.68 65.9534 33.68 65.954 33.68C65.9545 33.68 65.955 33.68 65.9555 33.68C65.956 33.68 65.9565 33.68 65.957 33.68C65.9575 33.68 65.958 33.68 65.9585 33.68C65.959 33.68 65.9595 33.68 65.96 33.68C65.9606 33.68 65.9611 33.68 65.9616 33.68C65.9621 33.68 65.9626 33.68 65.9631 33.68C65.9636 33.68 65.9641 33.68 65.9646 33.68C65.9651 33.68 65.9656 33.68 65.9661 33.68C65.9666 33.68 65.9671 33.68 65.9676 33.68C65.9681 33.68 65.9686 33.68 65.9691 33.68C65.9696 33.68 65.9701 33.68 65.9706 33.68C65.9711 33.68 65.9716 33.68 65.9721 33.68C65.9726 33.68 65.9731 33.68 65.9736 33.68C65.9741 33.68 65.9746 33.68 65.9751 33.68C65.9756 33.68 65.9761 33.68 65.9766 33.68C65.9771 33.68 65.9776 33.68 65.9781 33.68C65.9786 33.68 65.9791 33.68 65.9796 33.68C65.9801 33.68 65.9806 33.68 65.9811 33.68C65.9816 33.68 65.9821 33.68 65.9826 33.68C65.9831 33.68 65.9836 33.68 65.9841 33.68C65.9846 33.68 65.9851 33.68 65.9856 33.68C65.9861 33.68 65.9865 33.68 65.987 33.68C65.9875 33.68 65.988 33.68 65.9885 33.68C65.989 33.68 65.9895 33.68 65.99 33.68C65.9905 33.68 65.991 33.68 65.9915 33.68C65.992 33.68 65.9925 33.68 65.9929 33.68C65.9934 33.68 65.9939 33.68 65.9944 33.68C65.9949 33.68 65.9954 33.68 65.9959 33.68C65.9964 33.68 65.9969 33.68 65.9974 33.68C65.9978 33.68 65.9983 33.68 65.9988 33.68C65.9993 33.68 65.9998 33.68 66.0003 33.68C66.0008 33.68 66.0013 33.68 66.0017 33.68C66.0022 33.68 66.0027 33.68 66.0032 33.68C66.0037 33.68 66.0042 33.68 66.0047 33.68C66.0051 33.68 66.0056 33.68 66.0061 33.68C66.0066 33.68 66.0071 33.68 66.0076 33.68C66.008 33.68 66.0085 33.68 66.009 33.68C66.0095 33.68 66.01 33.68 66.0105 33.68C66.0109 33.68 66.0114 33.68 66.0119 33.68C66.0124 33.68 66.0129 33.68 66.0133 33.68C66.0138 33.68 66.0143 33.68 66.0148 33.68C66.0153 33.68 66.0157 33.68 66.0162 33.68C66.0167 33.68 66.0172 33.68 66.0177 33.68C66.0181 33.68 66.0186 33.68 66.0191 33.68C66.0196 33.68 66.02 33.68 66.0205 33.68C66.021 33.68 66.0215 33.68 66.022 33.68C66.0224 33.68 66.0229 33.68 66.0234 33.68C66.0239 33.68 66.0243 33.68 66.0248 33.68C66.0253 33.68 66.0258 33.68 66.0262 33.68C66.0267 33.68 66.0272 33.68 66.0277 33.68C66.0281 33.68 66.0286 33.68 66.0291 33.68C66.0295 33.68 66.03 33.68 66.0305 33.68C66.031 33.68 66.0314 33.68 66.0319 33.68C66.0324 33.68 66.0328 33.68 66.0333 33.68C66.0338 33.68 66.0343 33.68 66.0347 33.68C66.0352 33.68 66.0357 33.68 66.0361 33.68C66.0366 33.68 66.0371 33.68 66.0375 33.68C66.038 33.68 66.0385 33.68 66.0389 33.68C66.0394 33.68 66.0399 33.68 66.0404 33.68C66.0408 33.68 66.0413 33.68 66.0418 33.68C66.0422 33.68 66.0427 33.68 66.0432 33.68C66.0436 33.68 66.0441 33.68 66.0445 33.68C66.045 33.68 66.0455 33.68 66.0459 33.68C66.0464 33.68 66.0469 33.68 66.0473 33.68C66.0478 33.68 66.0483 33.68 66.0487 33.68C66.0492 33.68 66.0496 33.68 66.0501 33.68C66.0506 33.68 66.051 33.68 66.0515 33.68C66.052 33.68 66.0524 33.68 66.0529 33.68C66.0533 33.68 66.0538 33.68 66.0543 33.68C66.0547 33.68 66.0552 33.68 66.0556 33.68C66.0561 33.68 66.0566 33.68 66.057 33.68C66.0575 33.68 66.0579 33.68 66.0584 33.68C66.0588 33.68 66.0593 33.68 66.0598 33.68C66.0602 33.68 66.0607 33.68 66.0611 33.68C66.0616 33.68 66.062 33.68 66.0625 33.68C66.063 33.68 66.0634 33.68 66.0639 33.68C66.0643 33.68 66.0648 33.68 66.0652 33.68C66.0657 33.68 66.0661 33.68 66.0666 33.68C66.067 33.68 66.0675 33.68 66.068 33.68C66.0684 33.68 66.0689 33.68 66.0693 33.68C66.0698 33.68 66.0702 33.68 66.0707 33.68C66.0711 33.68 66.0716 33.68 66.072 33.68C66.0725 33.68 66.0729 33.68 66.0734 33.68C66.0738 33.68 66.0743 33.68 66.0747 33.68C66.0752 33.68 66.0756 33.68 66.0761 33.68C66.0765 33.68 66.077 33.68 66.0774 33.68C66.0779 33.68 66.0783 33.68 66.0788 33.68C66.0792 33.68 66.0796 33.68 66.0801 33.68C66.0805 33.68 66.081 33.68 66.0814 33.68C66.0819 33.68 66.0823 33.68 66.0828 33.68C66.0832 33.68 66.0837 33.68 66.0841 33.68C66.0845 33.68 66.085 33.68 66.0854 33.68C66.0859 33.68 66.0863 33.68 66.0868 33.68C66.0872 33.68 66.0876 33.68 66.0881 33.68C66.0885 33.68 66.089 33.68 66.0894 33.68C66.0899 33.68 66.0903 33.68 66.0907 33.68C66.0912 33.68 66.0916 33.68 66.0921 33.68C66.0925 33.68 66.0929 33.68 66.0934 33.68C66.0938 33.68 66.0943 33.68 66.0947 33.68C66.0951 33.68 66.0956 33.68 66.096 33.68C66.0965 33.68 66.0969 33.68 66.0973 33.68C66.0978 33.68 66.0982 33.68 66.0986 33.68C66.0991 33.68 66.0995 33.68 66.0999 33.68C66.1004 33.68 66.1008 33.68 66.1013 33.68C66.1017 33.68 66.1021 33.68 66.1026 33.68C66.103 33.68 66.1034 33.68 66.1039 33.68C66.1043 33.68 66.1047 33.68 66.1052 33.68C66.1056 33.68 66.106 33.68 66.1065 33.68C66.1069 33.68 66.1073 33.68 66.1078 33.68C66.1082 33.68 66.1086 33.68 66.109 33.68C66.1095 33.68 66.1099 33.68 66.1103 33.68C66.1108 33.68 66.1112 33.68 66.1116 33.68C66.1121 33.68 66.1125 33.68 66.1129 33.68C66.1133 33.68 66.1138 33.68 66.1142 33.68C66.1146 33.68 66.1151 33.68 66.1155 33.68C66.1159 33.68 66.1163 33.68 66.1168 33.68C66.1172 33.68 66.1176 33.68 66.118 33.68C66.1185 33.68 66.1189 33.68 66.1193 33.68C66.1197 33.68 66.1202 33.68 66.1206 33.68C66.121 33.68 66.1214 33.68 66.1219 33.68C66.1223 33.68 66.1227 33.68 66.1231 33.68C66.1236 33.68 66.124 33.68 66.1244 33.68C66.1248 33.68 66.1252 33.68 66.1257 33.68C66.1261 33.68 66.1265 33.68 66.1269 33.68C66.1273 33.68 66.1278 33.68 66.1282 33.68C66.1286 33.68 66.129 33.68 66.1294 33.68C66.1299 33.68 66.1303 33.68 66.1307 33.68C66.1311 33.68 66.1315 33.68 66.132 33.68C66.1324 33.68 66.1328 33.68 66.1332 33.68C66.1336 33.68 66.134 33.68 66.1345 33.68C66.1349 33.68 66.1353 33.68 66.1357 33.68C66.1361 33.68 66.1365 33.68 66.137 33.68C66.1374 33.68 66.1378 33.68 66.1382 33.68C66.1386 33.68 66.139 33.68 66.1394 33.68C66.1399 33.68 66.1403 33.68 66.1407 33.68C66.1411 33.68 66.1415 33.68 66.1419 33.68C66.1423 33.68 66.1427 33.68 66.1432 33.68C66.1436 33.68 66.144 33.68 66.1444 33.68C66.1448 33.68 66.1452 33.68 66.1456 33.68C66.146 33.68 66.1464 33.68 66.1469 33.68C66.1473 33.68 66.1477 33.68 66.1481 33.68C66.1485 33.68 66.1489 33.68 66.1493 33.68C66.1497 33.68 66.1501 33.68 66.1505 33.68C66.1509 33.68 66.1513 33.68 66.1518 33.68C66.1522 33.68 66.1526 33.68 66.153 33.68C66.1534 33.68 66.1538 33.68 66.1542 33.68C66.1546 33.68 66.155 33.68 66.1554 33.68C66.1558 33.68 66.1562 33.68 66.1566 33.68C66.157 33.68 66.1574 33.68 66.1578 33.68C66.1582 33.68 66.1586 33.68 66.159 33.68C66.1594 33.68 66.1598 33.68 66.1602 33.68C66.1606 33.68 66.161 33.68 66.1614 33.68C66.1618 33.68 66.1622 33.68 66.1626 33.68C66.163 33.68 66.1634 33.68 66.1638 33.68C66.1642 33.68 66.1646 33.68 66.165 33.68C66.1654 33.68 66.1658 33.68 66.1662 33.68C66.1666 33.68 66.167 33.68 66.1674 33.68C66.1678 33.68 66.1682 33.68 66.1686 33.68C66.169 33.68 66.1694 33.68 66.1698 33.68C66.1702 33.68 66.1706 33.68 66.171 33.68C66.1714 33.68 66.1718 33.68 66.1722 33.68C66.1726 33.68 66.173 33.68 66.1734 33.68C66.1738 33.68 66.1741 33.68 66.1745 33.68C66.1749 33.68 66.1753 33.68 66.1757 33.68C66.1761 33.68 66.1765 33.68 66.1769 33.68C66.1773 33.68 66.1777 33.68 66.1781 33.68C66.1785 33.68 66.1789 33.68 66.1792 33.68C66.1796 33.68 66.18 33.68 66.1804 33.68C66.1808 33.68 66.1812 33.68 66.1816 33.68C66.182 33.68 66.1824 33.68 66.1827 33.68C66.1831 33.68 66.1835 33.68 66.1839 33.68C66.1843 33.68 66.1847 33.68 66.1851 33.68C66.1855 33.68 66.1858 33.68 66.1862 33.68C66.1866 33.68 66.187 33.68 66.1874 33.68C66.1878 33.68 66.1882 33.68 66.1885 33.68C66.1889 33.68 66.1893 33.68 66.1897 33.68C66.1901 33.68 66.1905 33.68 66.1908 33.68C66.1912 33.68 66.1916 33.68 66.192 33.68C66.1924 33.68 66.1928 33.68 66.1931 33.68C66.1935 33.68 66.1939 33.68 66.1943 33.68C66.1947 33.68 66.195 33.68 66.1954 33.68C66.1958 33.68 66.1962 33.68 66.1966 33.68C66.1969 33.68 66.1973 33.68 66.1977 33.68C66.1981 33.68 66.1985 33.68 66.1988 33.68C66.1992 33.68 66.1996 33.68 66.2 33.68C66.2003 33.68 66.2007 33.68 66.2011 33.68C66.2015 33.68 66.2019 33.68 66.2022 33.68C66.2026 33.68 66.203 33.68 66.2034 33.68C66.2037 33.68 66.2041 33.68 66.2045 33.68C66.2049 33.68 66.2052 33.68 66.2056 33.68C66.206 33.68 66.2063 33.68 66.2067 33.68C66.2071 33.68 66.2075 33.68 66.2078 33.68C66.2082 33.68 66.2086 33.68 66.209 33.68C66.2093 33.68 66.2097 33.68 66.2101 33.68C66.2104 33.68 66.2108 33.68 66.2112 33.68C66.2116 33.68 66.2119 33.68 66.2123 33.68C66.2127 33.68 66.213 33.68 66.2134 33.68C66.2138 33.68 66.2141 33.68 66.2145 33.68C66.2149 33.68 66.2152 33.68 66.2156 33.68C66.216 33.68 66.2163 33.68 66.2167 33.68C66.2171 33.68 66.2174 33.68 66.2178 33.68C66.2182 33.68 66.2185 33.68 66.2189 33.68C66.2193 33.68 66.2196 33.68 66.22 33.68V31.68ZM65.38 31.68H53.1V33.68H65.38V31.68Z" fill="#502B91" mask="url(#path-5-outside-2_456_336)"/>
<rect x="160" width="37" height="52" rx="5" fill="black"/>
<mask id="path-8-outside-3_456_336" maskUnits="userSpaceOnUse" x="168" y="19" width="21" height="25" fill="black">
<rect fill="white" x="168" y="19" width="21" height="25"/>
<path d="M183.1 30.12C182.913 30.4133 182.62 30.6667 182.22 30.88C181.82 31.0933 181.407 31.24 180.98 31.32C179.46 31.6133 178.113 31.8933 176.94 32.16C175.767 32.4 174.793 32.7067 174.02 33.08C173.247 33.4533 172.66 33.92 172.26 34.48C171.86 35.0133 171.66 35.7067 171.66 36.56C171.66 37.76 172.073 38.6667 172.9 39.28C173.727 39.8667 174.833 40.16 176.22 40.16C177.207 40.16 178.113 40.0133 178.94 39.72C179.793 39.4 180.513 38.96 181.1 38.4C181.713 37.84 182.193 37.16 182.54 36.36C182.887 35.5333 183.06 34.6133 183.06 33.6L183.1 30.12ZM187.78 41.44C187.487 41.4933 187.22 41.5333 186.98 41.56C186.767 41.5867 186.5 41.6 186.18 41.6C185.06 41.6 184.3 41.28 183.9 40.64C183.5 40 183.3 39.12 183.3 38C182.927 39.2267 182.113 40.2267 180.86 41C179.633 41.8 177.993 42.2 175.94 42.2C175.007 42.2 174.127 42.0933 173.3 41.88C172.5 41.6667 171.793 41.3333 171.18 40.88C170.567 40.4267 170.073 39.8533 169.7 39.16C169.353 38.44 169.18 37.6 169.18 36.64C169.18 35.3067 169.46 34.24 170.02 33.44C170.58 32.6133 171.34 31.9467 172.3 31.44C173.287 30.9333 174.433 30.5467 175.74 30.28C177.073 29.9867 178.513 29.6933 180.06 29.4C181.073 29.2133 181.833 28.92 182.34 28.52C182.847 28.12 183.1 27.5333 183.1 26.76C183.1 25.2133 182.607 24.12 181.62 23.48C180.66 22.8133 179.407 22.48 177.86 22.48C176.447 22.48 175.22 22.8667 174.18 23.64C173.167 24.3867 172.607 25.6 172.5 27.28H170.02C170.073 26.1067 170.313 25.0933 170.74 24.24C171.167 23.36 171.74 22.64 172.46 22.08C173.18 21.4933 174.02 21.0667 174.98 20.8C175.94 20.5067 176.993 20.36 178.14 20.36C179.127 20.36 180.06 20.4533 180.94 20.64C181.847 20.8267 182.633 21.1733 183.3 21.68C183.967 22.1867 184.5 22.8667 184.9 23.72C185.3 24.5733 185.5 25.6667 185.5 27V37.96C185.5 38.44 185.62 38.8267 185.86 39.12C186.1 39.3867 186.46 39.52 186.94 39.52C187.073 39.52 187.207 39.5067 187.34 39.48C187.5 39.4533 187.647 39.4133 187.78 39.36V41.44Z"/>
</mask>
<path d="M183.1 30.12C182.913 30.4133 182.62 30.6667 182.22 30.88C181.82 31.0933 181.407 31.24 180.98 31.32C179.46 31.6133 178.113 31.8933 176.94 32.16C175.767 32.4 174.793 32.7067 174.02 33.08C173.247 33.4533 172.66 33.92 172.26 34.48C171.86 35.0133 171.66 35.7067 171.66 36.56C171.66 37.76 172.073 38.6667 172.9 39.28C173.727 39.8667 174.833 40.16 176.22 40.16C177.207 40.16 178.113 40.0133 178.94 39.72C179.793 39.4 180.513 38.96 181.1 38.4C181.713 37.84 182.193 37.16 182.54 36.36C182.887 35.5333 183.06 34.6133 183.06 33.6L183.1 30.12ZM187.78 41.44C187.487 41.4933 187.22 41.5333 186.98 41.56C186.767 41.5867 186.5 41.6 186.18 41.6C185.06 41.6 184.3 41.28 183.9 40.64C183.5 40 183.3 39.12 183.3 38C182.927 39.2267 182.113 40.2267 180.86 41C179.633 41.8 177.993 42.2 175.94 42.2C175.007 42.2 174.127 42.0933 173.3 41.88C172.5 41.6667 171.793 41.3333 171.18 40.88C170.567 40.4267 170.073 39.8533 169.7 39.16C169.353 38.44 169.18 37.6 169.18 36.64C169.18 35.3067 169.46 34.24 170.02 33.44C170.58 32.6133 171.34 31.9467 172.3 31.44C173.287 30.9333 174.433 30.5467 175.74 30.28C177.073 29.9867 178.513 29.6933 180.06 29.4C181.073 29.2133 181.833 28.92 182.34 28.52C182.847 28.12 183.1 27.5333 183.1 26.76C183.1 25.2133 182.607 24.12 181.62 23.48C180.66 22.8133 179.407 22.48 177.86 22.48C176.447 22.48 175.22 22.8667 174.18 23.64C173.167 24.3867 172.607 25.6 172.5 27.28H170.02C170.073 26.1067 170.313 25.0933 170.74 24.24C171.167 23.36 171.74 22.64 172.46 22.08C173.18 21.4933 174.02 21.0667 174.98 20.8C175.94 20.5067 176.993 20.36 178.14 20.36C179.127 20.36 180.06 20.4533 180.94 20.64C181.847 20.8267 182.633 21.1733 183.3 21.68C183.967 22.1867 184.5 22.8667 184.9 23.72C185.3 24.5733 185.5 25.6667 185.5 27V37.96C185.5 38.44 185.62 38.8267 185.86 39.12C186.1 39.3867 186.46 39.52 186.94 39.52C187.073 39.52 187.207 39.5067 187.34 39.48C187.5 39.4533 187.647 39.4133 187.78 39.36V41.44Z" fill="white"/>
<path d="M183.1 30.12L184.1 30.1315L184.14 26.6227L182.256 29.5831L183.1 30.12ZM182.22 30.88L182.691 31.7624L182.691 31.7624L182.22 30.88ZM180.98 31.32L180.796 30.3371L180.791 30.3381L180.98 31.32ZM176.94 32.16L177.14 33.1397L177.151 33.1375L177.162 33.1351L176.94 32.16ZM174.02 33.08L173.585 32.1794L173.585 32.1794L174.02 33.08ZM172.26 34.48L173.06 35.08L173.067 35.0707L173.074 35.0612L172.26 34.48ZM172.9 39.28L172.304 40.0831L172.313 40.0894L172.321 40.0955L172.9 39.28ZM178.94 39.72L179.274 40.6624L179.283 40.6595L179.291 40.6563L178.94 39.72ZM181.1 38.4L180.426 37.6615L180.418 37.669L180.41 37.6766L181.1 38.4ZM182.54 36.36L183.458 36.7576L183.462 36.7467L182.54 36.36ZM183.06 33.6L182.06 33.5885V33.6H183.06ZM187.78 41.44L187.959 42.4239L188.78 42.2746V41.44H187.78ZM186.98 41.56L186.87 40.566L186.856 40.5677L186.98 41.56ZM183.9 40.64L184.748 40.11L184.748 40.11L183.9 40.64ZM183.3 38H184.3L182.343 37.7088L183.3 38ZM180.86 41L180.335 40.149L180.324 40.1555L180.314 40.1624L180.86 41ZM173.3 41.88L173.042 42.8463L173.05 42.8483L173.3 41.88ZM171.18 40.88L170.586 41.6842L170.586 41.6842L171.18 40.88ZM169.7 39.16L168.799 39.5938L168.809 39.6142L168.82 39.6341L169.7 39.16ZM170.02 33.44L170.839 34.0135L170.844 34.0072L170.848 34.0008L170.02 33.44ZM172.3 31.44L171.843 30.5504L171.833 30.5556L172.3 31.44ZM175.74 30.28L175.94 31.2598L175.947 31.2583L175.955 31.2566L175.74 30.28ZM180.06 29.4L179.879 28.4165L179.874 28.4175L180.06 29.4ZM182.34 28.52L182.96 29.3049L182.96 29.3049L182.34 28.52ZM181.62 23.48L181.05 24.3014L181.063 24.3104L181.076 24.319L181.62 23.48ZM174.18 23.64L174.773 24.4451L174.777 24.4425L174.18 23.64ZM172.5 27.28V28.28H173.439L173.498 27.3434L172.5 27.28ZM170.02 27.28L169.021 27.2346L168.974 28.28H170.02V27.28ZM170.74 24.24L171.634 24.6872L171.64 24.6763L170.74 24.24ZM172.46 22.08L173.074 22.8694L173.083 22.8624L173.092 22.8552L172.46 22.08ZM174.98 20.8L175.248 21.7635L175.26 21.7601L175.272 21.7564L174.98 20.8ZM180.94 20.64L180.732 21.6183L180.738 21.6195L180.94 20.64ZM183.3 21.68L182.695 22.4762L182.695 22.4762L183.3 21.68ZM184.9 23.72L183.995 24.1444L183.995 24.1444L184.9 23.72ZM185.86 39.12L185.086 39.7532L185.101 39.7715L185.117 39.789L185.86 39.12ZM187.34 39.48L187.176 38.4936L187.16 38.4963L187.144 38.4994L187.34 39.48ZM187.78 39.36H188.78V37.883L187.409 38.4315L187.78 39.36ZM182.256 29.5831C182.186 29.6934 182.042 29.8414 181.749 29.9976L182.691 31.7624C183.198 31.4919 183.641 31.1332 183.944 30.6569L182.256 29.5831ZM181.749 29.9976C181.435 30.1652 181.118 30.2767 180.796 30.3371L181.164 32.3029C181.695 32.2033 182.205 32.0214 182.691 31.7624L181.749 29.9976ZM180.791 30.3381C179.263 30.633 177.905 30.9152 176.718 31.1849L177.162 33.1351C178.322 32.8715 179.657 32.5937 181.169 32.3019L180.791 30.3381ZM176.74 31.1803C175.514 31.4309 174.456 31.7591 173.585 32.1794L174.455 33.9806C175.131 33.6542 176.019 33.3691 177.14 33.1397L176.74 31.1803ZM173.585 32.1794C172.698 32.6079 171.965 33.1724 171.446 33.8988L173.074 35.0612C173.355 34.6676 173.796 34.2987 174.455 33.9806L173.585 32.1794ZM171.46 33.88C170.898 34.6296 170.66 35.5513 170.66 36.56H172.66C172.66 35.862 172.822 35.3971 173.06 35.08L171.46 33.88ZM170.66 36.56C170.66 38.0169 171.179 39.2482 172.304 40.0831L173.496 38.4769C172.968 38.0851 172.66 37.5031 172.66 36.56H170.66ZM172.321 40.0955C173.369 40.8392 174.701 41.16 176.22 41.16V39.16C174.966 39.16 174.084 38.8942 173.479 38.4645L172.321 40.0955ZM176.22 41.16C177.307 41.16 178.328 40.9983 179.274 40.6624L178.606 38.7776C177.899 39.0284 177.107 39.16 176.22 39.16V41.16ZM179.291 40.6563C180.255 40.2948 181.095 39.7874 181.79 39.1234L180.41 37.6766C179.932 38.1326 179.332 38.5052 178.589 38.7837L179.291 40.6563ZM181.774 39.1385C182.497 38.4786 183.058 37.6805 183.458 36.7576L181.622 35.9624C181.329 36.6395 180.93 37.2014 180.426 37.6615L181.774 39.1385ZM183.462 36.7467C183.866 35.7826 184.06 34.7289 184.06 33.6H182.06C182.06 34.4978 181.907 35.284 181.618 35.9733L183.462 36.7467ZM184.06 33.6115L184.1 30.1315L182.1 30.1085L182.06 33.5885L184.06 33.6115ZM187.601 40.4561C187.325 40.5062 187.082 40.5425 186.87 40.5661L187.09 42.5539C187.358 42.5242 187.648 42.4804 187.959 42.4239L187.601 40.4561ZM186.856 40.5677C186.698 40.5874 186.476 40.6 186.18 40.6V42.6C186.524 42.6 186.835 42.5859 187.104 42.5523L186.856 40.5677ZM186.18 40.6C185.225 40.6 184.887 40.3323 184.748 40.11L183.052 41.17C183.713 42.2277 184.895 42.6 186.18 42.6V40.6ZM184.748 40.11C184.484 39.6882 184.3 39.0175 184.3 38H182.3C182.3 39.2225 182.516 40.3118 183.052 41.17L184.748 40.11ZM182.343 37.7088C182.051 38.6682 181.414 39.4833 180.335 40.149L181.385 41.851C182.813 40.9701 183.802 39.7852 184.257 38.2912L182.343 37.7088ZM180.314 40.1624C179.303 40.8218 177.874 41.2 175.94 41.2V43.2C178.112 43.2 179.964 42.7782 181.406 41.8376L180.314 40.1624ZM175.94 41.2C175.083 41.2 174.288 41.1021 173.55 40.9117L173.05 42.8483C173.966 43.0845 174.93 43.2 175.94 43.2V41.2ZM173.558 40.9138C172.869 40.73 172.278 40.4483 171.774 40.0758L170.586 41.6842C171.308 42.2184 172.131 42.6033 173.042 42.8462L173.558 40.9138ZM171.774 40.0758C171.283 39.713 170.886 39.2538 170.58 38.6859L168.82 39.6341C169.26 40.4529 169.85 41.1404 170.586 41.6842L171.774 40.0758ZM170.601 38.7262C170.331 38.1661 170.18 37.4796 170.18 36.64H168.18C168.18 37.7204 168.375 38.7139 168.799 39.5938L170.601 38.7262ZM170.18 36.64C170.18 35.4386 170.433 34.594 170.839 34.0135L169.201 32.8665C168.487 33.886 168.18 35.1747 168.18 36.64H170.18ZM170.848 34.0008C171.308 33.3216 171.939 32.7613 172.767 32.3244L171.833 30.5556C170.741 31.132 169.852 31.905 169.192 32.8792L170.848 34.0008ZM172.757 32.3296C173.648 31.872 174.705 31.5118 175.94 31.2598L175.54 29.3002C174.161 29.5815 172.925 29.9947 171.843 30.5504L172.757 32.3296ZM175.955 31.2566C177.277 30.9657 178.708 30.6743 180.246 30.3825L179.874 28.4175C178.319 28.7124 176.869 29.0076 175.525 29.3034L175.955 31.2566ZM180.241 30.3835C181.329 30.1831 182.271 29.8486 182.96 29.3049L181.72 27.7351C181.396 27.9914 180.818 28.2436 179.879 28.4165L180.241 30.3835ZM182.96 29.3049C183.755 28.677 184.1 27.7719 184.1 26.76H182.1C182.1 27.2948 181.938 27.563 181.72 27.7351L182.96 29.3049ZM184.1 26.76C184.1 24.994 183.523 23.5222 182.164 22.641L181.076 24.319C181.691 24.7178 182.1 25.4326 182.1 26.76H184.1ZM182.19 22.6586C181.016 21.8434 179.546 21.48 177.86 21.48V23.48C179.268 23.48 180.304 23.7833 181.05 24.3014L182.19 22.6586ZM177.86 21.48C176.252 21.48 174.812 21.9242 173.583 22.8375L174.777 24.4425C175.628 23.8091 176.641 23.48 177.86 23.48V21.48ZM173.587 22.8349C172.262 23.8112 171.621 25.3474 171.502 27.2166L173.498 27.3434C173.593 25.8526 174.072 24.9621 174.773 24.4451L173.587 22.8349ZM172.5 26.28H170.02V28.28H172.5V26.28ZM171.019 27.3254C171.067 26.2604 171.283 25.39 171.634 24.6872L169.846 23.7928C169.344 24.7967 169.079 25.953 169.021 27.2346L171.019 27.3254ZM171.64 24.6763C172.004 23.9242 172.484 23.3284 173.074 22.8694L171.846 21.2906C170.996 21.9516 170.329 22.7958 169.84 23.8037L171.64 24.6763ZM173.092 22.8552C173.697 22.362 174.411 21.996 175.248 21.7635L174.712 19.8365C173.629 20.1374 172.663 20.6247 171.828 21.3048L173.092 22.8552ZM175.272 21.7564C176.125 21.4957 177.079 21.36 178.14 21.36V19.36C176.908 19.36 175.755 19.5176 174.688 19.8436L175.272 21.7564ZM178.14 21.36C179.064 21.36 179.927 21.4474 180.732 21.6182L181.148 19.6618C180.193 19.4593 179.19 19.36 178.14 19.36V21.36ZM180.738 21.6195C181.514 21.7792 182.159 22.0692 182.695 22.4762L183.905 20.8838C183.107 20.2775 182.179 19.8742 181.142 19.6605L180.738 21.6195ZM182.695 22.4762C183.217 22.8733 183.654 23.4189 183.995 24.1444L185.805 23.2956C185.346 22.3145 184.716 21.5 183.905 20.8838L182.695 22.4762ZM183.995 24.1444C184.312 24.8217 184.5 25.7567 184.5 27H186.5C186.5 25.5767 186.288 24.325 185.805 23.2956L183.995 24.1444ZM184.5 27V37.96H186.5V27H184.5ZM184.5 37.96C184.5 38.608 184.664 39.238 185.086 39.7532L186.634 38.4868C186.576 38.4153 186.5 38.272 186.5 37.96H184.5ZM185.117 39.789C185.605 40.331 186.277 40.52 186.94 40.52V38.52C186.79 38.52 186.702 38.4989 186.657 38.4823C186.618 38.4678 186.607 38.4557 186.603 38.451L185.117 39.789ZM186.94 40.52C187.14 40.52 187.339 40.4999 187.536 40.4606L187.144 38.4994C187.074 38.5134 187.006 38.52 186.94 38.52V40.52ZM187.504 40.4664C187.726 40.4294 187.943 40.3717 188.151 40.2885L187.409 38.4315C187.35 38.455 187.274 38.4773 187.176 38.4936L187.504 40.4664ZM186.78 39.36V41.44H188.78V39.36H186.78Z" fill="#502B91" mask="url(#path-8-outside-3_456_336)"/>
<rect x="200" width="37" height="52" rx="5" fill="black"/>
<mask id="path-11-outside-4_456_336" maskUnits="userSpaceOnUse" x="205" y="19" width="25" height="25" fill="black">
<rect fill="white" x="205" y="19" width="25" height="25"/>
<path d="M228.64 41.6H226.2V23.12H215.08V25.08C215.08 27.1867 215.013 29.08 214.88 30.76C214.773 32.44 214.507 33.9733 214.08 35.36C213.653 36.7467 213.013 38.0133 212.16 39.16C211.333 40.3067 210.187 41.4 208.72 42.44L207.32 40.84C208.52 40.04 209.48 39.1867 210.2 38.28C210.947 37.3733 211.507 36.32 211.88 35.12C212.28 33.8933 212.533 32.4667 212.64 30.84C212.773 29.2133 212.84 27.2933 212.84 25.08V20.96H228.64V41.6Z"/>
</mask>
<path d="M228.64 41.6H226.2V23.12H215.08V25.08C215.08 27.1867 215.013 29.08 214.88 30.76C214.773 32.44 214.507 33.9733 214.08 35.36C213.653 36.7467 213.013 38.0133 212.16 39.16C211.333 40.3067 210.187 41.4 208.72 42.44L207.32 40.84C208.52 40.04 209.48 39.1867 210.2 38.28C210.947 37.3733 211.507 36.32 211.88 35.12C212.28 33.8933 212.533 32.4667 212.64 30.84C212.773 29.2133 212.84 27.2933 212.84 25.08V20.96H228.64V41.6Z" fill="white"/>
<path d="M228.64 41.6V42.6H229.64V41.6H228.64ZM226.2 41.6H225.2V42.6H226.2V41.6ZM226.2 23.12H227.2V22.12H226.2V23.12ZM215.08 23.12V22.12H214.08V23.12H215.08ZM214.88 30.76L213.883 30.6809L213.883 30.6888L213.882 30.6966L214.88 30.76ZM214.08 35.36L215.036 35.6541L215.036 35.6541L214.08 35.36ZM212.16 39.16L211.358 38.563L211.353 38.5691L211.349 38.5752L212.16 39.16ZM208.72 42.44L207.967 43.0985L208.562 43.778L209.298 43.2557L208.72 42.44ZM207.32 40.84L206.765 40.0079L205.817 40.6404L206.567 41.4985L207.32 40.84ZM210.2 38.28L209.428 37.6443L209.422 37.6512L209.417 37.6581L210.2 38.28ZM211.88 35.12L210.929 34.81L210.925 34.8229L211.88 35.12ZM212.64 30.84L211.643 30.7583L211.643 30.7664L211.642 30.7746L212.64 30.84ZM212.84 20.96V19.96H211.84V20.96H212.84ZM228.64 20.96H229.64V19.96H228.64V20.96ZM228.64 40.6H226.2V42.6H228.64V40.6ZM227.2 41.6V23.12H225.2V41.6H227.2ZM226.2 22.12H215.08V24.12H226.2V22.12ZM214.08 23.12V25.08H216.08V23.12H214.08ZM214.08 25.08C214.08 27.1665 214.014 29.0327 213.883 30.6809L215.877 30.8391C216.013 29.1273 216.08 27.2069 216.08 25.08H214.08ZM213.882 30.6966C213.78 32.3105 213.524 33.7651 213.124 35.0659L215.036 35.6541C215.489 34.1816 215.767 32.5695 215.878 30.8234L213.882 30.6966ZM213.124 35.0659C212.731 36.3453 212.142 37.5092 211.358 38.563L212.962 39.757C213.885 38.5175 214.576 37.1481 215.036 35.6541L213.124 35.0659ZM211.349 38.5752C210.601 39.6121 209.542 40.6314 208.142 41.6243L209.298 43.2557C210.832 42.1686 212.065 41.0012 212.971 39.7448L211.349 38.5752ZM209.473 41.7815L208.073 40.1815L206.567 41.4985L207.967 43.0985L209.473 41.7815ZM207.875 41.6721C209.141 40.8279 210.185 39.9072 210.983 38.9019L209.417 37.6581C208.775 38.4661 207.899 39.2521 206.765 40.0079L207.875 41.6721ZM210.972 38.9157C211.807 37.9022 212.426 36.732 212.835 35.4171L210.925 34.8229C210.588 35.908 210.087 36.8444 209.428 37.6443L210.972 38.9157ZM212.831 35.43C213.262 34.1065 213.527 32.5945 213.638 30.9054L211.642 30.7746C211.54 32.3388 211.298 33.6801 210.929 34.81L212.831 35.43ZM213.637 30.9217C213.773 29.2602 213.84 27.3117 213.84 25.08H211.84C211.84 27.2749 211.774 29.1664 211.643 30.7583L213.637 30.9217ZM213.84 25.08V20.96H211.84V25.08H213.84ZM212.84 21.96H228.64V19.96H212.84V21.96ZM227.64 20.96V41.6H229.64V20.96H227.64Z" fill="#502B91" mask="url(#path-11-outside-4_456_336)"/>
<rect x="80" width="37" height="52" rx="5" fill="black"/>
<mask id="path-14-outside-5_456_336" maskUnits="userSpaceOnUse" x="88" y="19" width="21" height="30" fill="black">
<rect fill="white" x="88" y="19" width="21" height="30"/>
<path d="M105.3 31.28C105.3 30.08 105.14 28.9467 104.82 27.88C104.527 26.8133 104.087 25.88 103.5 25.08C102.94 24.28 102.247 23.6533 101.42 23.2C100.62 22.72 99.7267 22.48 98.74 22.48C97.62 22.48 96.62 22.7067 95.74 23.16C94.86 23.6133 94.1133 24.24 93.5 25.04C92.9133 25.84 92.46 26.7733 92.14 27.84C91.8467 28.9067 91.7 30.0533 91.7 31.28C91.7 32.4 91.8333 33.4933 92.1 34.56C92.3667 35.6 92.78 36.5333 93.34 37.36C93.9 38.16 94.62 38.8133 95.5 39.32C96.4067 39.8267 97.4867 40.08 98.74 40.08C99.7267 40.08 100.62 39.8533 101.42 39.4C102.247 38.92 102.94 38.28 103.5 37.48C104.087 36.68 104.527 35.7467 104.82 34.68C105.14 33.6133 105.3 32.48 105.3 31.28ZM107.74 31.28C107.74 32.9867 107.527 34.52 107.1 35.88C106.673 37.2133 106.06 38.36 105.26 39.32C104.487 40.2533 103.54 40.96 102.42 41.44C101.327 41.9467 100.1 42.2 98.74 42.2C97.9133 42.2 97.1267 42.08 96.38 41.84C95.6333 41.6267 94.9533 41.3067 94.34 40.88C93.7267 40.48 93.1933 40.0133 92.74 39.48C92.2867 38.92 91.94 38.32 91.7 37.68V47.96H89.26V20.96H91.7V24.88C92.1533 23.6 92.98 22.5333 94.18 21.68C95.4067 20.8 96.9267 20.36 98.74 20.36C100.1 20.36 101.327 20.6133 102.42 21.12C103.54 21.6267 104.487 22.3467 105.26 23.28C106.06 24.2133 106.673 25.36 107.1 26.72C107.527 28.0533 107.74 29.5733 107.74 31.28Z"/>
</mask>
<path d="M105.3 31.28C105.3 30.08 105.14 28.9467 104.82 27.88C104.527 26.8133 104.087 25.88 103.5 25.08C102.94 24.28 102.247 23.6533 101.42 23.2C100.62 22.72 99.7267 22.48 98.74 22.48C97.62 22.48 96.62 22.7067 95.74 23.16C94.86 23.6133 94.1133 24.24 93.5 25.04C92.9133 25.84 92.46 26.7733 92.14 27.84C91.8467 28.9067 91.7 30.0533 91.7 31.28C91.7 32.4 91.8333 33.4933 92.1 34.56C92.3667 35.6 92.78 36.5333 93.34 37.36C93.9 38.16 94.62 38.8133 95.5 39.32C96.4067 39.8267 97.4867 40.08 98.74 40.08C99.7267 40.08 100.62 39.8533 101.42 39.4C102.247 38.92 102.94 38.28 103.5 37.48C104.087 36.68 104.527 35.7467 104.82 34.68C105.14 33.6133 105.3 32.48 105.3 31.28ZM107.74 31.28C107.74 32.9867 107.527 34.52 107.1 35.88C106.673 37.2133 106.06 38.36 105.26 39.32C104.487 40.2533 103.54 40.96 102.42 41.44C101.327 41.9467 100.1 42.2 98.74 42.2C97.9133 42.2 97.1267 42.08 96.38 41.84C95.6333 41.6267 94.9533 41.3067 94.34 40.88C93.7267 40.48 93.1933 40.0133 92.74 39.48C92.2867 38.92 91.94 38.32 91.7 37.68V47.96H89.26V20.96H91.7V24.88C92.1533 23.6 92.98 22.5333 94.18 21.68C95.4067 20.8 96.9267 20.36 98.74 20.36C100.1 20.36 101.327 20.6133 102.42 21.12C103.54 21.6267 104.487 22.3467 105.26 23.28C106.06 24.2133 106.673 25.36 107.1 26.72C107.527 28.0533 107.74 29.5733 107.74 31.28Z" fill="white"/>
<path d="M104.82 27.88L103.856 28.1452L103.859 28.1563L103.862 28.1673L104.82 27.88ZM103.5 25.08L102.681 25.6535L102.687 25.6625L102.694 25.6714L103.5 25.08ZM101.42 23.2L100.906 24.0575L100.922 24.0675L100.939 24.0768L101.42 23.2ZM95.74 23.16L95.282 22.271L95.282 22.271L95.74 23.16ZM93.5 25.04L92.7064 24.4316L92.6999 24.44L92.6936 24.4486L93.5 25.04ZM92.14 27.84L91.1822 27.5527L91.1789 27.5637L91.1758 27.5748L92.14 27.84ZM92.1 34.56L91.1298 34.8025L91.1313 34.8084L92.1 34.56ZM93.34 37.36L92.5121 37.9208L92.5164 37.9272L92.5208 37.9335L93.34 37.36ZM95.5 39.32L95.001 40.1867L95.0122 40.1929L95.5 39.32ZM101.42 39.4L101.913 40.2701L101.922 40.2648L101.42 39.4ZM103.5 37.48L102.694 36.8886L102.687 36.8975L102.681 36.9065L103.5 37.48ZM104.82 34.68L103.862 34.3927L103.859 34.4037L103.856 34.4148L104.82 34.68ZM107.1 35.88L108.052 36.1848L108.054 36.1793L107.1 35.88ZM105.26 39.32L104.492 38.6798L104.49 38.682L105.26 39.32ZM102.42 41.44L102.026 40.5209L102.013 40.5266L102 40.5327L102.42 41.44ZM96.38 41.84L96.686 40.888L96.6704 40.883L96.6547 40.8785L96.38 41.84ZM94.34 40.88L94.9111 40.0591L94.8988 40.0506L94.8863 40.0424L94.34 40.88ZM92.74 39.48L91.9628 40.1092L91.9703 40.1185L91.9781 40.1276L92.74 39.48ZM91.7 37.68L92.6363 37.3289L90.7 37.68H91.7ZM91.7 47.96V48.96H92.7V47.96H91.7ZM89.26 47.96H88.26V48.96H89.26V47.96ZM89.26 20.96V19.96H88.26V20.96H89.26ZM91.7 20.96H92.7V19.96H91.7V20.96ZM91.7 24.88H90.7L92.6426 25.2138L91.7 24.88ZM94.18 21.68L94.7595 22.495L94.7629 22.4925L94.18 21.68ZM102.42 21.12L102 22.0273L102.008 22.0311L102.42 21.12ZM105.26 23.28L104.49 23.918L104.495 23.9244L104.501 23.9308L105.26 23.28ZM107.1 26.72L106.146 27.0193L106.148 27.0248L107.1 26.72ZM106.3 31.28C106.3 29.9902 106.128 28.7595 105.778 27.5927L103.862 28.1673C104.152 29.1339 104.3 30.1698 104.3 31.28H106.3ZM105.784 27.6148C105.462 26.4442 104.973 25.3975 104.306 24.4886L102.694 25.6714C103.2 26.3625 103.591 27.1825 103.856 28.1452L105.784 27.6148ZM104.319 24.5065C103.674 23.5854 102.867 22.853 101.901 22.3232L100.939 24.0768C101.626 24.4537 102.206 24.9746 102.681 25.6535L104.319 24.5065ZM101.934 22.3425C100.97 21.7638 99.897 21.48 98.74 21.48V23.48C99.5563 23.48 100.27 23.6762 100.906 24.0575L101.934 22.3425ZM98.74 21.48C97.4818 21.48 96.3213 21.7356 95.282 22.271L96.198 24.049C96.9187 23.6777 97.7582 23.48 98.74 23.48V21.48ZM95.282 22.271C94.2684 22.7932 93.4078 23.5166 92.7064 24.4316L94.2936 25.6484C94.8188 24.9634 95.4516 24.4334 96.198 24.049L95.282 22.271ZM92.6936 24.4486C92.0318 25.3511 91.531 26.39 91.1822 27.5527L93.0978 28.1273C93.389 27.1566 93.7949 26.3289 94.3064 25.6314L92.6936 24.4486ZM91.1758 27.5748C90.8563 28.7367 90.7 29.9734 90.7 31.28H92.7C92.7 30.1333 92.837 29.0766 93.1042 28.1052L91.1758 27.5748ZM90.7 31.28C90.7 32.4802 90.843 33.6551 91.1299 34.8025L93.0701 34.3175C92.8237 33.3316 92.7 32.3198 92.7 31.28H90.7ZM91.1313 34.8084C91.4244 35.9514 91.8828 36.992 92.5121 37.9208L94.1679 36.7992C93.6772 36.0747 93.3089 35.2486 93.0687 34.3116L91.1313 34.8084ZM92.5208 37.9335C93.1681 38.8583 93.9993 39.6099 95.001 40.1866L95.999 38.4534C95.2407 38.0168 94.6319 37.4617 94.1592 36.7865L92.5208 37.9335ZM95.0122 40.1929C96.0959 40.7986 97.3511 41.08 98.74 41.08V39.08C97.6223 39.08 96.7174 38.8548 95.9878 38.4471L95.0122 40.1929ZM98.74 41.08C99.8864 41.08 100.952 40.8148 101.913 40.27L100.927 38.53C100.288 38.8919 99.5669 39.08 98.74 39.08V41.08ZM101.922 40.2648C102.877 39.7103 103.678 38.9698 104.319 38.0535L102.681 36.9065C102.202 37.5902 101.616 38.1297 100.918 38.5352L101.922 40.2648ZM104.306 38.0714C104.973 37.1625 105.462 36.1158 105.784 34.9452L103.856 34.4148C103.591 35.3775 103.2 36.1975 102.694 36.8886L104.306 38.0714ZM105.778 34.9673C106.128 33.8005 106.3 32.5698 106.3 31.28H104.3C104.3 32.3902 104.152 33.4261 103.862 34.3927L105.778 34.9673ZM106.74 31.28C106.74 32.9045 106.537 34.3344 106.146 35.5807L108.054 36.1793C108.517 34.7056 108.74 33.0688 108.74 31.28H106.74ZM106.148 35.5752C105.755 36.8007 105.2 37.8299 104.492 38.6798L106.028 39.9602C106.92 38.8901 107.591 37.626 108.052 36.1848L106.148 35.5752ZM104.49 38.682C103.818 39.4924 103.001 40.103 102.026 40.5209L102.814 42.3591C104.079 41.817 105.155 41.0143 106.03 39.958L104.49 38.682ZM102 40.5327C101.054 40.9709 99.9735 41.2 98.74 41.2V43.2C100.226 43.2 101.599 42.9225 102.84 42.3473L102 40.5327ZM98.74 41.2C98.0116 41.2 97.3286 41.0945 96.686 40.888L96.074 42.792C96.9248 43.0655 97.8151 43.2 98.74 43.2V41.2ZM96.6547 40.8785C96.0097 40.6942 95.4305 40.4204 94.9111 40.0591L93.7689 41.7009C94.4762 42.1929 95.257 42.5592 96.1053 42.8015L96.6547 40.8785ZM94.8863 40.0424C94.3499 39.6926 93.8901 39.289 93.5019 38.8324L91.9781 40.1276C92.4966 40.7377 93.1035 41.2674 93.7937 41.7176L94.8863 40.0424ZM93.5172 38.8508C93.1279 38.3698 92.8366 37.8629 92.6363 37.3289L90.7637 38.0311C91.0434 38.7771 91.4455 39.4702 91.9628 40.1092L93.5172 38.8508ZM90.7 37.68V47.96H92.7V37.68H90.7ZM91.7 46.96H89.26V48.96H91.7V46.96ZM90.26 47.96V20.96H88.26V47.96H90.26ZM89.26 21.96H91.7V19.96H89.26V21.96ZM90.7 20.96V24.88H92.7V20.96H90.7ZM92.6426 25.2138C93.0214 24.1443 93.7123 23.2397 94.7595 22.495L93.6005 20.865C92.2477 21.827 91.2852 23.0557 90.7574 24.5462L92.6426 25.2138ZM94.7629 22.4925C95.7878 21.7573 97.0928 21.36 98.74 21.36V19.36C96.7606 19.36 95.0256 19.8427 93.5971 20.8675L94.7629 22.4925ZM98.74 21.36C99.9735 21.36 101.054 21.5891 102 22.0273L102.84 20.2127C101.599 19.6375 100.226 19.36 98.74 19.36V21.36ZM102.008 22.0311C102.991 22.476 103.815 23.1034 104.49 23.918L106.03 22.642C105.158 21.5899 104.089 20.7773 102.832 20.2089L102.008 22.0311ZM104.501 23.9308C105.2 24.7463 105.753 25.7681 106.146 27.0193L108.054 26.4207C107.593 24.9519 106.92 23.6804 106.019 22.6292L104.501 23.9308ZM106.148 27.0248C106.537 28.2408 106.74 29.655 106.74 31.28H108.74C108.74 29.4917 108.517 27.8659 108.052 26.4152L106.148 27.0248Z" fill="#502B91" mask="url(#path-14-outside-5_456_336)"/>
<rect x="120" width="37" height="52" rx="5" fill="black"/>
<mask id="path-17-outside-6_456_336" maskUnits="userSpaceOnUse" x="128" y="19" width="21" height="24" fill="black">
<rect fill="white" x="128" y="19" width="21" height="24"/>
<path d="M147.18 41.6H144.74V26.52L132.22 39.2V41.6H129.78V20.96H132.22V36.04L144.74 23.36V20.96H147.18V41.6Z"/>
</mask>
<path d="M147.18 41.6H144.74V26.52L132.22 39.2V41.6H129.78V20.96H132.22V36.04L144.74 23.36V20.96H147.18V41.6Z" fill="white"/>
<path d="M147.18 41.6V42.6H148.18V41.6H147.18ZM144.74 41.6H143.74V42.6H144.74V41.6ZM144.74 26.52H145.74V24.0839L144.028 25.8174L144.74 26.52ZM132.22 39.2L131.508 38.4974L131.22 38.7895V39.2H132.22ZM132.22 41.6V42.6H133.22V41.6H132.22ZM129.78 41.6H128.78V42.6H129.78V41.6ZM129.78 20.96V19.96H128.78V20.96H129.78ZM132.22 20.96H133.22V19.96H132.22V20.96ZM132.22 36.04H131.22V38.4761L132.932 36.7426L132.22 36.04ZM144.74 23.36L145.452 24.0626L145.74 23.7705V23.36H144.74ZM144.74 20.96V19.96H143.74V20.96H144.74ZM147.18 20.96H148.18V19.96H147.18V20.96ZM147.18 40.6H144.74V42.6H147.18V40.6ZM145.74 41.6V26.52H143.74V41.6H145.74ZM144.028 25.8174L131.508 38.4974L132.932 39.9026L145.452 27.2226L144.028 25.8174ZM131.22 39.2V41.6H133.22V39.2H131.22ZM132.22 40.6H129.78V42.6H132.22V40.6ZM130.78 41.6V20.96H128.78V41.6H130.78ZM129.78 21.96H132.22V19.96H129.78V21.96ZM131.22 20.96V36.04H133.22V20.96H131.22ZM132.932 36.7426L145.452 24.0626L144.028 22.6574L131.508 35.3374L132.932 36.7426ZM145.74 23.36V20.96H143.74V23.36H145.74ZM144.74 21.96H147.18V19.96H144.74V21.96ZM146.18 20.96V41.6H148.18V20.96H146.18Z" fill="#502B91" mask="url(#path-17-outside-6_456_336)"/>
</svg>
